<?xml version="1.0" encoding="UTF-8" standalone="no"?>
<!DOCTYPE svg PUBLIC "-//W3C//DTD SVG 1.1//EN"
 "http://www.w3.org/Graphics/SVG/1.1/DTD/svg11.dtd">
<!-- Generated by graphviz version 2.47.0 (20210316.0004)
 -->
<!-- Title: dependencies Pages: 1 -->
<svg width="652pt" height="211pt"
 viewBox="0.00 0.00 652.00 211.00" xmlns="http://www.w3.org/2000/svg" xmlns:xlink="http://www.w3.org/1999/xlink">
<g id="graph0" class="graph" transform="scale(1 1) rotate(0) translate(4 207)">
<title>dependencies</title>
<polygon fill="white" stroke="transparent" points="-4,4 -4,-207 648,-207 648,4 -4,4"/>
<text text-anchor="start" x="301.01" y="-42.4" font-family="sans-serif" font-weight="bold" font-size="14.00">Legend</text>
<polygon fill="#ffffb3" stroke="transparent" points="88,-10 88,-30 108,-30 108,-10 88,-10"/>
<text text-anchor="start" x="111.63" y="-15.4" font-family="sans-serif" font-size="14.00"> &#160;Declarations</text>
<polygon fill="#8dd3c7" stroke="transparent" points="201,-10 201,-30 221,-30 221,-10 201,-10"/>
<text text-anchor="start" x="224.73" y="-15.4" font-family="sans-serif" font-size="14.00"> &#160;Module</text>
<polygon fill="#80b1d3" stroke="transparent" points="287,-10 287,-30 307,-30 307,-10 287,-10"/>
<text text-anchor="start" x="310.78" y="-15.4" font-family="sans-serif" font-size="14.00"> &#160;Bootstrap</text>
<polygon fill="#fdb462" stroke="transparent" points="384,-10 384,-30 404,-30 404,-10 384,-10"/>
<text text-anchor="start" x="407.67" y="-15.4" font-family="sans-serif" font-size="14.00"> &#160;Providers</text>
<polygon fill="#fb8072" stroke="transparent" points="480,-10 480,-30 500,-30 500,-10 480,-10"/>
<text text-anchor="start" x="503.73" y="-15.4" font-family="sans-serif" font-size="14.00"> &#160;Exports</text>
<g id="clust1" class="cluster">
<title>cluster_NotificationsModule</title>
<polygon fill="none" stroke="black" stroke-dasharray="1,5" points="8,-70 8,-195 636,-195 636,-70 8,-70"/>
</g>
<g id="clust4" class="cluster">
<title>cluster_NotificationsModule_imports</title>
<polygon fill="none" stroke="black" points="194,-78 194,-130 628,-130 628,-78 194,-78"/>
</g>
<g id="clust2" class="cluster">
<title>cluster_NotificationsModule_declarations</title>
<polygon fill="none" stroke="black" points="16,-78 16,-130 186,-130 186,-78 16,-78"/>
</g>
<!-- AdsManagerComponent -->
<g id="node1" class="node">
<title>AdsManagerComponent</title>
<polygon fill="#ffffb3" stroke="black" points="177.63,-122 24.37,-122 24.37,-86 177.63,-86 177.63,-122"/>
<text text-anchor="middle" x="101" y="-99.8" font-family="Times,serif" font-size="14.00">AdsManagerComponent</text>
</g>
<!-- NotificationsModule -->
<g id="node2" class="node">
<title>NotificationsModule</title>
<polygon fill="#8dd3c7" stroke="black" points="381.14,-187 378.14,-191 357.14,-191 354.14,-187 248.86,-187 248.86,-151 381.14,-151 381.14,-187"/>
<text text-anchor="middle" x="315" y="-164.8" font-family="Times,serif" font-size="14.00">NotificationsModule</text>
</g>
<!-- AdsManagerComponent&#45;&gt;NotificationsModule -->
<g id="edge1" class="edge">
<title>AdsManagerComponent&#45;&gt;NotificationsModule</title>
<path fill="none" stroke="black" d="M101,-122.11C101,-141.34 101,-169 101,-169 101,-169 238.75,-169 238.75,-169"/>
<polygon fill="black" stroke="black" points="238.75,-172.5 248.75,-169 238.75,-165.5 238.75,-172.5"/>
</g>
<!-- NotificationsRoutingModule -->
<g id="node3" class="node">
<title>NotificationsRoutingModule</title>
<polygon fill="#8dd3c7" stroke="black" points="619.76,-122 616.76,-126 595.76,-126 592.76,-122 442.24,-122 442.24,-86 619.76,-86 619.76,-122"/>
<text text-anchor="middle" x="531" y="-99.8" font-family="Times,serif" font-size="14.00">NotificationsRoutingModule</text>
</g>
<!-- NotificationsRoutingModule&#45;&gt;NotificationsModule -->
<g id="edge2" class="edge">
<title>NotificationsRoutingModule&#45;&gt;NotificationsModule</title>
<path fill="none" stroke="black" d="M531,-122.11C531,-141.34 531,-169 531,-169 531,-169 391.28,-169 391.28,-169"/>
<polygon fill="black" stroke="black" points="391.28,-165.5 381.28,-169 391.28,-172.5 391.28,-165.5"/>
</g>
<!-- ThemeModule -->
<g id="node4" class="node">
<title>ThemeModule</title>
<polygon fill="#8dd3c7" stroke="black" points="424.42,-122 421.42,-126 400.42,-126 397.42,-122 325.58,-122 325.58,-86 424.42,-86 424.42,-122"/>
<text text-anchor="middle" x="375" y="-99.8" font-family="Times,serif" font-size="14.00">ThemeModule</text>
</g>
<!-- ThemeModule&#45;&gt;NotificationsModule -->
<g id="edge3" class="edge">
<title>ThemeModule&#45;&gt;NotificationsModule</title>
<path fill="none" stroke="black" d="M353.56,-122.11C353.56,-122.11 353.56,-140.99 353.56,-140.99"/>
<polygon fill="black" stroke="black" points="350.06,-140.99 353.56,-150.99 357.06,-140.99 350.06,-140.99"/>
</g>
<!-- WidgetsModule -->
<g id="node5" class="node">
<title>WidgetsModule</title>
<polygon fill="#8dd3c7" stroke="black" points="308.2,-122 305.2,-126 284.2,-126 281.2,-122 201.8,-122 201.8,-86 308.2,-86 308.2,-122"/>
<text text-anchor="middle" x="255" y="-99.8" font-family="Times,serif" font-size="14.00">WidgetsModule</text>
</g>
<!-- WidgetsModule&#45;&gt;NotificationsModule -->
<g id="edge4" class="edge">
<title>WidgetsModule&#45;&gt;NotificationsModule</title>
<path fill="none" stroke="black" d="M278.39,-122.11C278.39,-122.11 278.39,-140.99 278.39,-140.99"/>
<polygon fill="black" stroke="black" points="274.89,-140.99 278.39,-150.99 281.89,-140.99 274.89,-140.99"/>
</g>
</g>
</svg>
