<?xml version="1.0" encoding="UTF-8" standalone="no"?>
<!DOCTYPE svg PUBLIC "-//W3C//DTD SVG 1.1//EN"
 "http://www.w3.org/Graphics/SVG/1.1/DTD/svg11.dtd">
<!-- Generated by graphviz version 2.47.0 (20210316.0004)
 -->
<!-- Title: dependencies Pages: 1 -->
<svg width="3295pt" height="211pt"
 viewBox="0.00 0.00 3295.00 211.00" xmlns="http://www.w3.org/2000/svg" xmlns:xlink="http://www.w3.org/1999/xlink">
<g id="graph0" class="graph" transform="scale(1 1) rotate(0) translate(4 207)">
<title>dependencies</title>
<polygon fill="white" stroke="transparent" points="-4,4 -4,-207 3291,-207 3291,4 -4,4"/>
<text text-anchor="start" x="1622.51" y="-42.4" font-family="sans-serif" font-weight="bold" font-size="14.00">Legend</text>
<polygon fill="#ffffb3" stroke="transparent" points="1409.5,-10 1409.5,-30 1429.5,-30 1429.5,-10 1409.5,-10"/>
<text text-anchor="start" x="1433.13" y="-15.4" font-family="sans-serif" font-size="14.00"> &#160;Declarations</text>
<polygon fill="#8dd3c7" stroke="transparent" points="1522.5,-10 1522.5,-30 1542.5,-30 1542.5,-10 1522.5,-10"/>
<text text-anchor="start" x="1546.23" y="-15.4" font-family="sans-serif" font-size="14.00"> &#160;Module</text>
<polygon fill="#80b1d3" stroke="transparent" points="1608.5,-10 1608.5,-30 1628.5,-30 1628.5,-10 1608.5,-10"/>
<text text-anchor="start" x="1632.28" y="-15.4" font-family="sans-serif" font-size="14.00"> &#160;Bootstrap</text>
<polygon fill="#fdb462" stroke="transparent" points="1705.5,-10 1705.5,-30 1725.5,-30 1725.5,-10 1705.5,-10"/>
<text text-anchor="start" x="1729.17" y="-15.4" font-family="sans-serif" font-size="14.00"> &#160;Providers</text>
<polygon fill="#fb8072" stroke="transparent" points="1801.5,-10 1801.5,-30 1821.5,-30 1821.5,-10 1801.5,-10"/>
<text text-anchor="start" x="1825.23" y="-15.4" font-family="sans-serif" font-size="14.00"> &#160;Exports</text>
<g id="clust1" class="cluster">
<title>cluster_ProfileModule</title>
<polygon fill="none" stroke="black" stroke-dasharray="1,5" points="8,-70 8,-195 3279,-195 3279,-70 8,-70"/>
</g>
<g id="clust17" class="cluster">
<title>cluster_ProfileModule_imports</title>
<polygon fill="none" stroke="black" points="2996,-78 2996,-130 3271,-130 3271,-78 2996,-78"/>
</g>
<g id="clust2" class="cluster">
<title>cluster_ProfileModule_declarations</title>
<polygon fill="none" stroke="black" points="16,-78 16,-130 2988,-130 2988,-78 16,-78"/>
</g>
<!-- AdsManagerComponent -->
<g id="node1" class="node">
<title>AdsManagerComponent</title>
<polygon fill="#ffffb3" stroke="black" points="2979.63,-122 2826.37,-122 2826.37,-86 2979.63,-86 2979.63,-122"/>
<text text-anchor="middle" x="2903" y="-99.8" font-family="Times,serif" font-size="14.00">AdsManagerComponent</text>
</g>
<!-- ProfileModule -->
<g id="node15" class="node">
<title>ProfileModule</title>
<polygon fill="#8dd3c7" stroke="black" points="1777.65,-187 1774.65,-191 1753.65,-191 1750.65,-187 1680.35,-187 1680.35,-151 1777.65,-151 1777.65,-187"/>
<text text-anchor="middle" x="1729" y="-164.8" font-family="Times,serif" font-size="14.00">ProfileModule</text>
</g>
<!-- AdsManagerComponent&#45;&gt;ProfileModule -->
<g id="edge1" class="edge">
<title>AdsManagerComponent&#45;&gt;ProfileModule</title>
<path fill="none" stroke="black" d="M2903,-122.03C2903,-142.77 2903,-174 2903,-174 2903,-174 1787.95,-174 1787.95,-174"/>
<polygon fill="black" stroke="black" points="1787.95,-170.5 1777.95,-174 1787.95,-177.5 1787.95,-170.5"/>
</g>
<!-- ProfileActivityWidgetComponent -->
<g id="node2" class="node">
<title>ProfileActivityWidgetComponent</title>
<polygon fill="#ffffb3" stroke="black" points="2808.03,-122 2601.97,-122 2601.97,-86 2808.03,-86 2808.03,-122"/>
<text text-anchor="middle" x="2705" y="-99.8" font-family="Times,serif" font-size="14.00">ProfileActivityWidgetComponent</text>
</g>
<!-- ProfileActivityWidgetComponent&#45;&gt;ProfileModule -->
<g id="edge2" class="edge">
<title>ProfileActivityWidgetComponent&#45;&gt;ProfileModule</title>
<path fill="none" stroke="black" d="M2705,-122.11C2705,-141.34 2705,-169 2705,-169 2705,-169 1787.73,-169 1787.73,-169"/>
<polygon fill="black" stroke="black" points="1787.73,-165.5 1777.73,-169 1787.73,-172.5 1787.73,-165.5"/>
</g>
<!-- ProfileContactsWidgetComponent -->
<g id="node3" class="node">
<title>ProfileContactsWidgetComponent</title>
<polygon fill="#ffffb3" stroke="black" points="2583.63,-122 2374.37,-122 2374.37,-86 2583.63,-86 2583.63,-122"/>
<text text-anchor="middle" x="2479" y="-99.8" font-family="Times,serif" font-size="14.00">ProfileContactsWidgetComponent</text>
</g>
<!-- ProfileContactsWidgetComponent&#45;&gt;ProfileModule -->
<g id="edge3" class="edge">
<title>ProfileContactsWidgetComponent&#45;&gt;ProfileModule</title>
<path fill="none" stroke="black" d="M2479,-122.3C2479,-140.27 2479,-165 2479,-165 2479,-165 1787.92,-165 1787.92,-165"/>
<polygon fill="black" stroke="black" points="1787.92,-161.5 1777.92,-165 1787.92,-168.5 1787.92,-161.5"/>
</g>
<!-- ProfileDealingWidgetComponent -->
<g id="node4" class="node">
<title>ProfileDealingWidgetComponent</title>
<polygon fill="#ffffb3" stroke="black" points="2356.46,-122 2151.54,-122 2151.54,-86 2356.46,-86 2356.46,-122"/>
<text text-anchor="middle" x="2254" y="-99.8" font-family="Times,serif" font-size="14.00">ProfileDealingWidgetComponent</text>
</g>
<!-- ProfileDealingWidgetComponent&#45;&gt;ProfileModule -->
<g id="edge4" class="edge">
<title>ProfileDealingWidgetComponent&#45;&gt;ProfileModule</title>
<path fill="none" stroke="black" d="M2254,-122.03C2254,-138.4 2254,-160 2254,-160 2254,-160 1787.92,-160 1787.92,-160"/>
<polygon fill="black" stroke="black" points="1787.92,-156.5 1777.92,-160 1787.92,-163.5 1787.92,-156.5"/>
</g>
<!-- ProfileFollowsWidgetComponent -->
<g id="node5" class="node">
<title>ProfileFollowsWidgetComponent</title>
<polygon fill="#ffffb3" stroke="black" points="2133.76,-122 1928.24,-122 1928.24,-86 2133.76,-86 2133.76,-122"/>
<text text-anchor="middle" x="2031" y="-99.8" font-family="Times,serif" font-size="14.00">ProfileFollowsWidgetComponent</text>
</g>
<!-- ProfileFollowsWidgetComponent&#45;&gt;ProfileModule -->
<g id="edge5" class="edge">
<title>ProfileFollowsWidgetComponent&#45;&gt;ProfileModule</title>
<path fill="none" stroke="black" d="M2031,-122.19C2031,-137.18 2031,-156 2031,-156 2031,-156 1787.86,-156 1787.86,-156"/>
<polygon fill="black" stroke="black" points="1787.86,-152.5 1777.86,-156 1787.86,-159.5 1787.86,-152.5"/>
</g>
<!-- ProfileHeaderComponent -->
<g id="node6" class="node">
<title>ProfileHeaderComponent</title>
<polygon fill="#ffffb3" stroke="black" points="1909.84,-122 1750.16,-122 1750.16,-86 1909.84,-86 1909.84,-122"/>
<text text-anchor="middle" x="1830" y="-99.8" font-family="Times,serif" font-size="14.00">ProfileHeaderComponent</text>
</g>
<!-- ProfileHeaderComponent&#45;&gt;ProfileModule -->
<g id="edge6" class="edge">
<title>ProfileHeaderComponent&#45;&gt;ProfileModule</title>
<path fill="none" stroke="black" d="M1763.95,-122.11C1763.95,-122.11 1763.95,-140.99 1763.95,-140.99"/>
<polygon fill="black" stroke="black" points="1760.45,-140.99 1763.95,-150.99 1767.45,-140.99 1760.45,-140.99"/>
</g>
<!-- ProfileLeftNavWidgetComponent -->
<g id="node7" class="node">
<title>ProfileLeftNavWidgetComponent</title>
<polygon fill="#ffffb3" stroke="black" points="1731.78,-122 1524.22,-122 1524.22,-86 1731.78,-86 1731.78,-122"/>
<text text-anchor="middle" x="1628" y="-99.8" font-family="Times,serif" font-size="14.00">ProfileLeftNavWidgetComponent</text>
</g>
<!-- ProfileLeftNavWidgetComponent&#45;&gt;ProfileModule -->
<g id="edge7" class="edge">
<title>ProfileLeftNavWidgetComponent&#45;&gt;ProfileModule</title>
<path fill="none" stroke="black" d="M1705.91,-122.11C1705.91,-122.11 1705.91,-140.99 1705.91,-140.99"/>
<polygon fill="black" stroke="black" points="1702.41,-140.99 1705.91,-150.99 1709.41,-140.99 1702.41,-140.99"/>
</g>
<!-- ProfileLikesWidgetComponent -->
<g id="node8" class="node">
<title>ProfileLikesWidgetComponent</title>
<polygon fill="#ffffb3" stroke="black" points="1505.74,-122 1314.26,-122 1314.26,-86 1505.74,-86 1505.74,-122"/>
<text text-anchor="middle" x="1410" y="-99.8" font-family="Times,serif" font-size="14.00">ProfileLikesWidgetComponent</text>
</g>
<!-- ProfileLikesWidgetComponent&#45;&gt;ProfileModule -->
<g id="edge8" class="edge">
<title>ProfileLikesWidgetComponent&#45;&gt;ProfileModule</title>
<path fill="none" stroke="black" d="M1410,-122.19C1410,-137.18 1410,-156 1410,-156 1410,-156 1670.2,-156 1670.2,-156"/>
<polygon fill="black" stroke="black" points="1670.2,-159.5 1680.2,-156 1670.2,-152.5 1670.2,-159.5"/>
</g>
<!-- ProfileMoviesWidgetComponent -->
<g id="node9" class="node">
<title>ProfileMoviesWidgetComponent</title>
<polygon fill="#ffffb3" stroke="black" points="1296.14,-122 1093.86,-122 1093.86,-86 1296.14,-86 1296.14,-122"/>
<text text-anchor="middle" x="1195" y="-99.8" font-family="Times,serif" font-size="14.00">ProfileMoviesWidgetComponent</text>
</g>
<!-- ProfileMoviesWidgetComponent&#45;&gt;ProfileModule -->
<g id="edge9" class="edge">
<title>ProfileMoviesWidgetComponent&#45;&gt;ProfileModule</title>
<path fill="none" stroke="black" d="M1195,-122.03C1195,-138.4 1195,-160 1195,-160 1195,-160 1670.2,-160 1670.2,-160"/>
<polygon fill="black" stroke="black" points="1670.2,-163.5 1680.2,-160 1670.2,-156.5 1670.2,-163.5"/>
</g>
<!-- ProfileMusicWidgetComponent -->
<g id="node10" class="node">
<title>ProfileMusicWidgetComponent</title>
<polygon fill="#ffffb3" stroke="black" points="1075.64,-122 880.36,-122 880.36,-86 1075.64,-86 1075.64,-122"/>
<text text-anchor="middle" x="978" y="-99.8" font-family="Times,serif" font-size="14.00">ProfileMusicWidgetComponent</text>
</g>
<!-- ProfileMusicWidgetComponent&#45;&gt;ProfileModule -->
<g id="edge10" class="edge">
<title>ProfileMusicWidgetComponent&#45;&gt;ProfileModule</title>
<path fill="none" stroke="black" d="M978,-122.3C978,-140.27 978,-165 978,-165 978,-165 1670.3,-165 1670.3,-165"/>
<polygon fill="black" stroke="black" points="1670.3,-168.5 1680.3,-165 1670.3,-161.5 1670.3,-168.5"/>
</g>
<!-- ProfilePagesWidgetComponent -->
<g id="node11" class="node">
<title>ProfilePagesWidgetComponent</title>
<polygon fill="#ffffb3" stroke="black" points="862.8,-122 669.2,-122 669.2,-86 862.8,-86 862.8,-122"/>
<text text-anchor="middle" x="766" y="-99.8" font-family="Times,serif" font-size="14.00">ProfilePagesWidgetComponent</text>
</g>
<!-- ProfilePagesWidgetComponent&#45;&gt;ProfileModule -->
<g id="edge11" class="edge">
<title>ProfilePagesWidgetComponent&#45;&gt;ProfileModule</title>
<path fill="none" stroke="black" d="M766,-122.11C766,-141.34 766,-169 766,-169 766,-169 1670.25,-169 1670.25,-169"/>
<polygon fill="black" stroke="black" points="1670.25,-172.5 1680.25,-169 1670.25,-165.5 1670.25,-172.5"/>
</g>
<!-- ProfilePhotosWidgetComponent -->
<g id="node12" class="node">
<title>ProfilePhotosWidgetComponent</title>
<polygon fill="#ffffb3" stroke="black" points="651.26,-122 452.74,-122 452.74,-86 651.26,-86 651.26,-122"/>
<text text-anchor="middle" x="552" y="-99.8" font-family="Times,serif" font-size="14.00">ProfilePhotosWidgetComponent</text>
</g>
<!-- ProfilePhotosWidgetComponent&#45;&gt;ProfileModule -->
<g id="edge12" class="edge">
<title>ProfilePhotosWidgetComponent&#45;&gt;ProfileModule</title>
<path fill="none" stroke="black" d="M552,-122.03C552,-142.77 552,-174 552,-174 552,-174 1670.3,-174 1670.3,-174"/>
<polygon fill="black" stroke="black" points="1670.3,-177.5 1680.3,-174 1670.3,-170.5 1670.3,-177.5"/>
</g>
<!-- ProfileSkillsWidgetComponent -->
<g id="node13" class="node">
<title>ProfileSkillsWidgetComponent</title>
<polygon fill="#ffffb3" stroke="black" points="434.04,-122 241.96,-122 241.96,-86 434.04,-86 434.04,-122"/>
<text text-anchor="middle" x="338" y="-99.8" font-family="Times,serif" font-size="14.00">ProfileSkillsWidgetComponent</text>
</g>
<!-- ProfileSkillsWidgetComponent&#45;&gt;ProfileModule -->
<g id="edge13" class="edge">
<title>ProfileSkillsWidgetComponent&#45;&gt;ProfileModule</title>
<path fill="none" stroke="black" d="M338,-122.29C338,-144.21 338,-178 338,-178 338,-178 1670.31,-178 1670.31,-178"/>
<polygon fill="black" stroke="black" points="1670.31,-181.5 1680.31,-178 1670.31,-174.5 1670.31,-181.5"/>
</g>
<!-- ProfileVideosWidgetComponent -->
<g id="node14" class="node">
<title>ProfileVideosWidgetComponent</title>
<polygon fill="#ffffb3" stroke="black" points="224.3,-122 23.7,-122 23.7,-86 224.3,-86 224.3,-122"/>
<text text-anchor="middle" x="124" y="-99.8" font-family="Times,serif" font-size="14.00">ProfileVideosWidgetComponent</text>
</g>
<!-- ProfileVideosWidgetComponent&#45;&gt;ProfileModule -->
<g id="edge14" class="edge">
<title>ProfileVideosWidgetComponent&#45;&gt;ProfileModule</title>
<path fill="none" stroke="black" d="M124,-122.32C124,-145.66 124,-183 124,-183 124,-183 1670.09,-183 1670.09,-183"/>
<polygon fill="black" stroke="black" points="1670.09,-186.5 1680.09,-183 1670.09,-179.5 1670.09,-186.5"/>
</g>
<!-- ProfileRoutingModule -->
<g id="node16" class="node">
<title>ProfileRoutingModule</title>
<polygon fill="#8dd3c7" stroke="black" points="3263.27,-122 3260.27,-126 3239.27,-126 3236.27,-122 3120.73,-122 3120.73,-86 3263.27,-86 3263.27,-122"/>
<text text-anchor="middle" x="3192" y="-99.8" font-family="Times,serif" font-size="14.00">ProfileRoutingModule</text>
</g>
<!-- ProfileRoutingModule&#45;&gt;ProfileModule -->
<g id="edge15" class="edge">
<title>ProfileRoutingModule&#45;&gt;ProfileModule</title>
<path fill="none" stroke="black" d="M3192,-122.32C3192,-145.66 3192,-183 3192,-183 3192,-183 1787.68,-183 1787.68,-183"/>
<polygon fill="black" stroke="black" points="1787.68,-179.5 1777.68,-183 1787.68,-186.5 1787.68,-179.5"/>
</g>
<!-- ThemeModule -->
<g id="node17" class="node">
<title>ThemeModule</title>
<polygon fill="#8dd3c7" stroke="black" points="3102.42,-122 3099.42,-126 3078.42,-126 3075.42,-122 3003.58,-122 3003.58,-86 3102.42,-86 3102.42,-122"/>
<text text-anchor="middle" x="3053" y="-99.8" font-family="Times,serif" font-size="14.00">ThemeModule</text>
</g>
<!-- ThemeModule&#45;&gt;ProfileModule -->
<g id="edge16" class="edge">
<title>ThemeModule&#45;&gt;ProfileModule</title>
<path fill="none" stroke="black" d="M3053,-122.29C3053,-144.21 3053,-178 3053,-178 3053,-178 1787.69,-178 1787.69,-178"/>
<polygon fill="black" stroke="black" points="1787.69,-174.5 1777.69,-178 1787.69,-181.5 1787.69,-174.5"/>
</g>
</g>
</svg>
