<?xml version="1.0" encoding="UTF-8" standalone="no"?>
<!DOCTYPE svg PUBLIC "-//W3C//DTD SVG 1.1//EN"
 "http://www.w3.org/Graphics/SVG/1.1/DTD/svg11.dtd">
<!-- Generated by graphviz version 2.47.0 (20210316.0004)
 -->
<!-- Title: dependencies Pages: 1 -->
<svg width="626pt" height="211pt"
 viewBox="0.00 0.00 626.00 211.00" xmlns="http://www.w3.org/2000/svg" xmlns:xlink="http://www.w3.org/1999/xlink">
<g id="graph0" class="graph" transform="scale(1 1) rotate(0) translate(4 207)">
<title>dependencies</title>
<polygon fill="white" stroke="transparent" points="-4,4 -4,-207 622,-207 622,4 -4,4"/>
<text text-anchor="start" x="288.01" y="-42.4" font-family="sans-serif" font-weight="bold" font-size="14.00">Legend</text>
<polygon fill="#ffffb3" stroke="transparent" points="75,-10 75,-30 95,-30 95,-10 75,-10"/>
<text text-anchor="start" x="98.63" y="-15.4" font-family="sans-serif" font-size="14.00"> &#160;Declarations</text>
<polygon fill="#8dd3c7" stroke="transparent" points="188,-10 188,-30 208,-30 208,-10 188,-10"/>
<text text-anchor="start" x="211.73" y="-15.4" font-family="sans-serif" font-size="14.00"> &#160;Module</text>
<polygon fill="#80b1d3" stroke="transparent" points="274,-10 274,-30 294,-30 294,-10 274,-10"/>
<text text-anchor="start" x="297.78" y="-15.4" font-family="sans-serif" font-size="14.00"> &#160;Bootstrap</text>
<polygon fill="#fdb462" stroke="transparent" points="371,-10 371,-30 391,-30 391,-10 371,-10"/>
<text text-anchor="start" x="394.67" y="-15.4" font-family="sans-serif" font-size="14.00"> &#160;Providers</text>
<polygon fill="#fb8072" stroke="transparent" points="467,-10 467,-30 487,-30 487,-10 467,-10"/>
<text text-anchor="start" x="490.73" y="-15.4" font-family="sans-serif" font-size="14.00"> &#160;Exports</text>
<g id="clust1" class="cluster">
<title>cluster_ThreadModule</title>
<polygon fill="none" stroke="black" stroke-dasharray="1,5" points="8,-70 8,-195 610,-195 610,-70 8,-70"/>
</g>
<g id="clust4" class="cluster">
<title>cluster_ThreadModule_imports</title>
<polygon fill="none" stroke="black" points="194,-78 194,-130 602,-130 602,-78 194,-78"/>
</g>
<g id="clust2" class="cluster">
<title>cluster_ThreadModule_declarations</title>
<polygon fill="none" stroke="black" points="16,-78 16,-130 186,-130 186,-78 16,-78"/>
</g>
<!-- AdsManagerComponent -->
<g id="node1" class="node">
<title>AdsManagerComponent</title>
<polygon fill="#ffffb3" stroke="black" points="177.63,-122 24.37,-122 24.37,-86 177.63,-86 177.63,-122"/>
<text text-anchor="middle" x="101" y="-99.8" font-family="Times,serif" font-size="14.00">AdsManagerComponent</text>
</g>
<!-- ThreadModule -->
<g id="node2" class="node">
<title>ThreadModule</title>
<polygon fill="#8dd3c7" stroke="black" points="392.69,-187 389.69,-191 368.69,-191 365.69,-187 293.31,-187 293.31,-151 392.69,-151 392.69,-187"/>
<text text-anchor="middle" x="343" y="-164.8" font-family="Times,serif" font-size="14.00">ThreadModule</text>
</g>
<!-- AdsManagerComponent&#45;&gt;ThreadModule -->
<g id="edge1" class="edge">
<title>AdsManagerComponent&#45;&gt;ThreadModule</title>
<path fill="none" stroke="black" d="M101,-122.11C101,-141.34 101,-169 101,-169 101,-169 283.15,-169 283.15,-169"/>
<polygon fill="black" stroke="black" points="283.15,-172.5 293.15,-169 283.15,-165.5 283.15,-172.5"/>
</g>
<!-- MessagesModule -->
<g id="node3" class="node">
<title>MessagesModule</title>
<polygon fill="#8dd3c7" stroke="black" points="593.97,-122 590.97,-126 569.97,-126 566.97,-122 480.03,-122 480.03,-86 593.97,-86 593.97,-122"/>
<text text-anchor="middle" x="537" y="-99.8" font-family="Times,serif" font-size="14.00">MessagesModule</text>
</g>
<!-- MessagesModule&#45;&gt;ThreadModule -->
<g id="edge2" class="edge">
<title>MessagesModule&#45;&gt;ThreadModule</title>
<path fill="none" stroke="black" d="M537,-122.11C537,-141.34 537,-169 537,-169 537,-169 402.71,-169 402.71,-169"/>
<polygon fill="black" stroke="black" points="402.71,-165.5 392.71,-169 402.71,-172.5 402.71,-165.5"/>
</g>
<!-- ThemeModule -->
<g id="node4" class="node">
<title>ThemeModule</title>
<polygon fill="#8dd3c7" stroke="black" points="462.42,-122 459.42,-126 438.42,-126 435.42,-122 363.58,-122 363.58,-86 462.42,-86 462.42,-122"/>
<text text-anchor="middle" x="413" y="-99.8" font-family="Times,serif" font-size="14.00">ThemeModule</text>
</g>
<!-- ThemeModule&#45;&gt;ThreadModule -->
<g id="edge3" class="edge">
<title>ThemeModule&#45;&gt;ThreadModule</title>
<path fill="none" stroke="black" d="M378.19,-122.11C378.19,-122.11 378.19,-140.99 378.19,-140.99"/>
<polygon fill="black" stroke="black" points="374.69,-140.99 378.19,-150.99 381.69,-140.99 374.69,-140.99"/>
</g>
<!-- ThreadRoutingModule -->
<g id="node5" class="node">
<title>ThreadRoutingModule</title>
<polygon fill="#8dd3c7" stroke="black" points="346.31,-122 343.31,-126 322.31,-126 319.31,-122 201.69,-122 201.69,-86 346.31,-86 346.31,-122"/>
<text text-anchor="middle" x="274" y="-99.8" font-family="Times,serif" font-size="14.00">ThreadRoutingModule</text>
</g>
<!-- ThreadRoutingModule&#45;&gt;ThreadModule -->
<g id="edge4" class="edge">
<title>ThreadRoutingModule&#45;&gt;ThreadModule</title>
<path fill="none" stroke="black" d="M319.78,-122.11C319.78,-122.11 319.78,-140.99 319.78,-140.99"/>
<polygon fill="black" stroke="black" points="316.28,-140.99 319.78,-150.99 323.28,-140.99 316.28,-140.99"/>
</g>
</g>
</svg>
