<?xml version="1.0" encoding="UTF-8" standalone="no"?>
<!DOCTYPE svg PUBLIC "-//W3C//DTD SVG 1.1//EN"
 "http://www.w3.org/Graphics/SVG/1.1/DTD/svg11.dtd">
<!-- Generated by graphviz version 2.47.0 (20210316.0004)
 -->
<!-- Title: dependencies Pages: 1 -->
<svg width="802pt" height="211pt"
 viewBox="0.00 0.00 802.00 211.00" xmlns="http://www.w3.org/2000/svg" xmlns:xlink="http://www.w3.org/1999/xlink">
<g id="graph0" class="graph" transform="scale(1 1) rotate(0) translate(4 207)">
<title>dependencies</title>
<polygon fill="white" stroke="transparent" points="-4,4 -4,-207 798,-207 798,4 -4,4"/>
<text text-anchor="start" x="376.01" y="-42.4" font-family="sans-serif" font-weight="bold" font-size="14.00">Legend</text>
<polygon fill="#ffffb3" stroke="transparent" points="163,-10 163,-30 183,-30 183,-10 163,-10"/>
<text text-anchor="start" x="186.63" y="-15.4" font-family="sans-serif" font-size="14.00"> &#160;Declarations</text>
<polygon fill="#8dd3c7" stroke="transparent" points="276,-10 276,-30 296,-30 296,-10 276,-10"/>
<text text-anchor="start" x="299.73" y="-15.4" font-family="sans-serif" font-size="14.00"> &#160;Module</text>
<polygon fill="#80b1d3" stroke="transparent" points="362,-10 362,-30 382,-30 382,-10 362,-10"/>
<text text-anchor="start" x="385.78" y="-15.4" font-family="sans-serif" font-size="14.00"> &#160;Bootstrap</text>
<polygon fill="#fdb462" stroke="transparent" points="459,-10 459,-30 479,-30 479,-10 459,-10"/>
<text text-anchor="start" x="482.67" y="-15.4" font-family="sans-serif" font-size="14.00"> &#160;Providers</text>
<polygon fill="#fb8072" stroke="transparent" points="555,-10 555,-30 575,-30 575,-10 555,-10"/>
<text text-anchor="start" x="578.73" y="-15.4" font-family="sans-serif" font-size="14.00"> &#160;Exports</text>
<g id="clust1" class="cluster">
<title>cluster_MynetworkModule</title>
<polygon fill="none" stroke="black" stroke-dasharray="1,5" points="8,-70 8,-195 786,-195 786,-70 8,-70"/>
</g>
<g id="clust2" class="cluster">
<title>cluster_MynetworkModule_declarations</title>
<polygon fill="none" stroke="black" points="608,-78 608,-130 778,-130 778,-78 608,-78"/>
</g>
<g id="clust4" class="cluster">
<title>cluster_MynetworkModule_imports</title>
<polygon fill="none" stroke="black" points="16,-78 16,-130 600,-130 600,-78 16,-78"/>
</g>
<!-- AdsManagerComponent -->
<g id="node1" class="node">
<title>AdsManagerComponent</title>
<polygon fill="#ffffb3" stroke="black" points="769.63,-122 616.37,-122 616.37,-86 769.63,-86 769.63,-122"/>
<text text-anchor="middle" x="693" y="-99.8" font-family="Times,serif" font-size="14.00">AdsManagerComponent</text>
</g>
<!-- MynetworkModule -->
<g id="node2" class="node">
<title>MynetworkModule</title>
<polygon fill="#8dd3c7" stroke="black" points="417.37,-187 414.37,-191 393.37,-191 390.37,-187 292.63,-187 292.63,-151 417.37,-151 417.37,-187"/>
<text text-anchor="middle" x="355" y="-164.8" font-family="Times,serif" font-size="14.00">MynetworkModule</text>
</g>
<!-- AdsManagerComponent&#45;&gt;MynetworkModule -->
<g id="edge1" class="edge">
<title>AdsManagerComponent&#45;&gt;MynetworkModule</title>
<path fill="none" stroke="black" d="M693,-122.11C693,-141.34 693,-169 693,-169 693,-169 427.39,-169 427.39,-169"/>
<polygon fill="black" stroke="black" points="427.39,-165.5 417.39,-169 427.39,-172.5 427.39,-165.5"/>
</g>
<!-- MynetworkRoutingModule -->
<g id="node3" class="node">
<title>MynetworkRoutingModule</title>
<polygon fill="#8dd3c7" stroke="black" points="591.98,-122 588.98,-126 567.98,-126 564.98,-122 422.02,-122 422.02,-86 591.98,-86 591.98,-122"/>
<text text-anchor="middle" x="507" y="-99.8" font-family="Times,serif" font-size="14.00">MynetworkRoutingModule</text>
</g>
<!-- MynetworkRoutingModule&#45;&gt;MynetworkModule -->
<g id="edge2" class="edge">
<title>MynetworkRoutingModule&#45;&gt;MynetworkModule</title>
<path fill="none" stroke="black" d="M421.86,-104C415.1,-104 410.82,-104 410.82,-104 410.82,-104 410.82,-140.89 410.82,-140.89"/>
<polygon fill="black" stroke="black" points="407.32,-140.89 410.82,-150.89 414.32,-140.89 407.32,-140.89"/>
</g>
<!-- ThemeModule -->
<g id="node4" class="node">
<title>ThemeModule</title>
<polygon fill="#8dd3c7" stroke="black" points="404.42,-122 401.42,-126 380.42,-126 377.42,-122 305.58,-122 305.58,-86 404.42,-86 404.42,-122"/>
<text text-anchor="middle" x="355" y="-99.8" font-family="Times,serif" font-size="14.00">ThemeModule</text>
</g>
<!-- ThemeModule&#45;&gt;MynetworkModule -->
<g id="edge3" class="edge">
<title>ThemeModule&#45;&gt;MynetworkModule</title>
<path fill="none" stroke="black" d="M355,-122.11C355,-122.11 355,-140.99 355,-140.99"/>
<polygon fill="black" stroke="black" points="351.5,-140.99 355,-150.99 358.5,-140.99 351.5,-140.99"/>
</g>
<!-- WfHoverCardModule -->
<g id="node5" class="node">
<title>WfHoverCardModule</title>
<polygon fill="#8dd3c7" stroke="black" points="287.62,-122 284.62,-126 263.62,-126 260.62,-122 148.38,-122 148.38,-86 287.62,-86 287.62,-122"/>
<text text-anchor="middle" x="218" y="-99.8" font-family="Times,serif" font-size="14.00">WfHoverCardModule</text>
</g>
<!-- WfHoverCardModule&#45;&gt;MynetworkModule -->
<g id="edge4" class="edge">
<title>WfHoverCardModule&#45;&gt;MynetworkModule</title>
<path fill="none" stroke="black" d="M287.89,-104C294.72,-104 299.18,-104 299.18,-104 299.18,-104 299.18,-140.89 299.18,-140.89"/>
<polygon fill="black" stroke="black" points="295.68,-140.89 299.18,-150.89 302.68,-140.89 295.68,-140.89"/>
</g>
<!-- WidgetsModule -->
<g id="node6" class="node">
<title>WidgetsModule</title>
<polygon fill="#8dd3c7" stroke="black" points="130.2,-122 127.2,-126 106.2,-126 103.2,-122 23.8,-122 23.8,-86 130.2,-86 130.2,-122"/>
<text text-anchor="middle" x="77" y="-99.8" font-family="Times,serif" font-size="14.00">WidgetsModule</text>
</g>
<!-- WidgetsModule&#45;&gt;MynetworkModule -->
<g id="edge5" class="edge">
<title>WidgetsModule&#45;&gt;MynetworkModule</title>
<path fill="none" stroke="black" d="M77,-122.11C77,-141.34 77,-169 77,-169 77,-169 282.61,-169 282.61,-169"/>
<polygon fill="black" stroke="black" points="282.61,-172.5 292.61,-169 282.61,-165.5 282.61,-172.5"/>
</g>
</g>
</svg>
