<?xml version="1.0" encoding="UTF-8" standalone="no"?>
<!DOCTYPE svg PUBLIC "-//W3C//DTD SVG 1.1//EN"
 "http://www.w3.org/Graphics/SVG/1.1/DTD/svg11.dtd">
<!-- Generated by graphviz version 2.47.0 (20210316.0004)
 -->
<!-- Title: dependencies Pages: 1 -->
<svg width="1079pt" height="211pt"
 viewBox="0.00 0.00 1079.00 211.00" xmlns="http://www.w3.org/2000/svg" xmlns:xlink="http://www.w3.org/1999/xlink">
<g id="graph0" class="graph" transform="scale(1 1) rotate(0) translate(4 207)">
<title>dependencies</title>
<polygon fill="white" stroke="transparent" points="-4,4 -4,-207 1075,-207 1075,4 -4,4"/>
<text text-anchor="start" x="514.51" y="-42.4" font-family="sans-serif" font-weight="bold" font-size="14.00">Legend</text>
<polygon fill="#ffffb3" stroke="transparent" points="301.5,-10 301.5,-30 321.5,-30 321.5,-10 301.5,-10"/>
<text text-anchor="start" x="325.13" y="-15.4" font-family="sans-serif" font-size="14.00"> &#160;Declarations</text>
<polygon fill="#8dd3c7" stroke="transparent" points="414.5,-10 414.5,-30 434.5,-30 434.5,-10 414.5,-10"/>
<text text-anchor="start" x="438.23" y="-15.4" font-family="sans-serif" font-size="14.00"> &#160;Module</text>
<polygon fill="#80b1d3" stroke="transparent" points="500.5,-10 500.5,-30 520.5,-30 520.5,-10 500.5,-10"/>
<text text-anchor="start" x="524.28" y="-15.4" font-family="sans-serif" font-size="14.00"> &#160;Bootstrap</text>
<polygon fill="#fdb462" stroke="transparent" points="597.5,-10 597.5,-30 617.5,-30 617.5,-10 597.5,-10"/>
<text text-anchor="start" x="621.17" y="-15.4" font-family="sans-serif" font-size="14.00"> &#160;Providers</text>
<polygon fill="#fb8072" stroke="transparent" points="693.5,-10 693.5,-30 713.5,-30 713.5,-10 693.5,-10"/>
<text text-anchor="start" x="717.23" y="-15.4" font-family="sans-serif" font-size="14.00"> &#160;Exports</text>
<g id="clust1" class="cluster">
<title>cluster_DaywakaModule</title>
<polygon fill="none" stroke="black" stroke-dasharray="1,5" points="8,-70 8,-195 1063,-195 1063,-70 8,-70"/>
</g>
<g id="clust2" class="cluster">
<title>cluster_DaywakaModule_declarations</title>
<polygon fill="none" stroke="black" points="905,-78 905,-130 1055,-130 1055,-78 905,-78"/>
</g>
<g id="clust4" class="cluster">
<title>cluster_DaywakaModule_imports</title>
<polygon fill="none" stroke="black" points="554,-78 554,-130 897,-130 897,-78 554,-78"/>
</g>
<g id="clust7" class="cluster">
<title>cluster_DaywakaModule_providers</title>
<polygon fill="none" stroke="black" points="16,-78 16,-130 546,-130 546,-78 16,-78"/>
</g>
<!-- DaywakaComponent -->
<g id="node1" class="node">
<title>DaywakaComponent</title>
<polygon fill="#ffffb3" stroke="black" points="1047.19,-122 912.81,-122 912.81,-86 1047.19,-86 1047.19,-122"/>
<text text-anchor="middle" x="980" y="-99.8" font-family="Times,serif" font-size="14.00">DaywakaComponent</text>
</g>
<!-- DaywakaModule -->
<g id="node2" class="node">
<title>DaywakaModule</title>
<polygon fill="#8dd3c7" stroke="black" points="606.41,-187 603.41,-191 582.41,-191 579.41,-187 493.59,-187 493.59,-151 606.41,-151 606.41,-187"/>
<text text-anchor="middle" x="550" y="-164.8" font-family="Times,serif" font-size="14.00">DaywakaModule</text>
</g>
<!-- DaywakaComponent&#45;&gt;DaywakaModule -->
<g id="edge1" class="edge">
<title>DaywakaComponent&#45;&gt;DaywakaModule</title>
<path fill="none" stroke="black" d="M980,-122.28C980,-143.32 980,-175 980,-175 980,-175 616.21,-175 616.21,-175"/>
<polygon fill="black" stroke="black" points="616.22,-171.5 606.21,-175 616.21,-178.5 616.22,-171.5"/>
</g>
<!-- DaywakaRoutingModule -->
<g id="node3" class="node">
<title>DaywakaRoutingModule</title>
<polygon fill="#8dd3c7" stroke="black" points="888.53,-122 885.53,-126 864.53,-126 861.53,-122 731.47,-122 731.47,-86 888.53,-86 888.53,-122"/>
<text text-anchor="middle" x="810" y="-99.8" font-family="Times,serif" font-size="14.00">DaywakaRoutingModule</text>
</g>
<!-- DaywakaRoutingModule&#45;&gt;DaywakaModule -->
<g id="edge2" class="edge">
<title>DaywakaRoutingModule&#45;&gt;DaywakaModule</title>
<path fill="none" stroke="black" d="M810,-122.02C810,-139.37 810,-163 810,-163 810,-163 616.42,-163 616.42,-163"/>
<polygon fill="black" stroke="black" points="616.42,-159.5 606.42,-163 616.42,-166.5 616.42,-159.5"/>
</g>
<!-- DaywakaThemeModule -->
<g id="node4" class="node">
<title>DaywakaThemeModule</title>
<polygon fill="#8dd3c7" stroke="black" points="713.78,-122 710.78,-126 689.78,-126 686.78,-122 562.22,-122 562.22,-86 713.78,-86 713.78,-122"/>
<text text-anchor="middle" x="638" y="-99.8" font-family="Times,serif" font-size="14.00">DaywakaThemeModule</text>
</g>
<!-- DaywakaThemeModule&#45;&gt;DaywakaModule -->
<g id="edge3" class="edge">
<title>DaywakaThemeModule&#45;&gt;DaywakaModule</title>
<path fill="none" stroke="black" d="M584.28,-122.11C584.28,-122.11 584.28,-140.99 584.28,-140.99"/>
<polygon fill="black" stroke="black" points="580.78,-140.99 584.28,-150.99 587.78,-140.99 580.78,-140.99"/>
</g>
<!-- DaywakaService -->
<g id="node5" class="node">
<title>DaywakaService</title>
<ellipse fill="#fdb462" stroke="black" cx="462" cy="-104" rx="76.4" ry="18"/>
<text text-anchor="middle" x="462" y="-99.8" font-family="Times,serif" font-size="14.00">DaywakaService</text>
</g>
<!-- DaywakaService&#45;&gt;DaywakaModule -->
<g id="edge4" class="edge">
<title>DaywakaService&#45;&gt;DaywakaModule</title>
<path fill="none" stroke="black" d="M516.12,-116.84C516.12,-116.84 516.12,-140.52 516.12,-140.52"/>
<polygon fill="black" stroke="black" points="512.62,-140.52 516.12,-150.52 519.62,-140.52 512.62,-140.52"/>
</g>
<!-- DwProfileService -->
<g id="node6" class="node">
<title>DwProfileService</title>
<ellipse fill="#fdb462" stroke="black" cx="287" cy="-104" rx="80.43" ry="18"/>
<text text-anchor="middle" x="287" y="-99.8" font-family="Times,serif" font-size="14.00">DwProfileService</text>
</g>
<!-- DwProfileService&#45;&gt;DaywakaModule -->
<g id="edge5" class="edge">
<title>DwProfileService&#45;&gt;DaywakaModule</title>
<path fill="none" stroke="black" d="M287,-122.02C287,-139.37 287,-163 287,-163 287,-163 483.58,-163 483.58,-163"/>
<polygon fill="black" stroke="black" points="483.58,-166.5 493.58,-163 483.58,-159.5 483.58,-166.5"/>
</g>
<!-- DwViewerService -->
<g id="node7" class="node">
<title>DwViewerService</title>
<ellipse fill="#fdb462" stroke="black" cx="106" cy="-104" rx="82.2" ry="18"/>
<text text-anchor="middle" x="106" y="-99.8" font-family="Times,serif" font-size="14.00">DwViewerService</text>
</g>
<!-- DwViewerService&#45;&gt;DaywakaModule -->
<g id="edge6" class="edge">
<title>DwViewerService&#45;&gt;DaywakaModule</title>
<path fill="none" stroke="black" d="M106,-122.28C106,-143.32 106,-175 106,-175 106,-175 483.77,-175 483.77,-175"/>
<polygon fill="black" stroke="black" points="483.77,-178.5 493.77,-175 483.77,-171.5 483.77,-178.5"/>
</g>
</g>
</svg>
