<?xml version="1.0" encoding="UTF-8" standalone="no"?>
<!DOCTYPE svg PUBLIC "-//W3C//DTD SVG 1.1//EN"
 "http://www.w3.org/Graphics/SVG/1.1/DTD/svg11.dtd">
<!-- Generated by graphviz version 2.47.0 (20210316.0004)
 -->
<!-- Title: dependencies Pages: 1 -->
<svg width="2756pt" height="284pt"
 viewBox="0.00 0.00 2756.00 284.00" xmlns="http://www.w3.org/2000/svg" xmlns:xlink="http://www.w3.org/1999/xlink">
<g id="graph0" class="graph" transform="scale(1 1) rotate(0) translate(4 280)">
<title>dependencies</title>
<polygon fill="white" stroke="transparent" points="-4,4 -4,-280 2752,-280 2752,4 -4,4"/>
<text text-anchor="start" x="1353.01" y="-42.4" font-family="sans-serif" font-weight="bold" font-size="14.00">Legend</text>
<polygon fill="#ffffb3" stroke="transparent" points="1140,-10 1140,-30 1160,-30 1160,-10 1140,-10"/>
<text text-anchor="start" x="1163.63" y="-15.4" font-family="sans-serif" font-size="14.00"> &#160;Declarations</text>
<polygon fill="#8dd3c7" stroke="transparent" points="1253,-10 1253,-30 1273,-30 1273,-10 1253,-10"/>
<text text-anchor="start" x="1276.73" y="-15.4" font-family="sans-serif" font-size="14.00"> &#160;Module</text>
<polygon fill="#80b1d3" stroke="transparent" points="1339,-10 1339,-30 1359,-30 1359,-10 1339,-10"/>
<text text-anchor="start" x="1362.78" y="-15.4" font-family="sans-serif" font-size="14.00"> &#160;Bootstrap</text>
<polygon fill="#fdb462" stroke="transparent" points="1436,-10 1436,-30 1456,-30 1456,-10 1436,-10"/>
<text text-anchor="start" x="1459.67" y="-15.4" font-family="sans-serif" font-size="14.00"> &#160;Providers</text>
<polygon fill="#fb8072" stroke="transparent" points="1532,-10 1532,-30 1552,-30 1552,-10 1532,-10"/>
<text text-anchor="start" x="1555.73" y="-15.4" font-family="sans-serif" font-size="14.00"> &#160;Exports</text>
<g id="clust1" class="cluster">
<title>cluster_AdsThemeModule</title>
<polygon fill="none" stroke="black" stroke-dasharray="1,5" points="8,-70 8,-268 2740,-268 2740,-70 8,-70"/>
</g>
<g id="clust2" class="cluster">
<title>cluster_AdsThemeModule_declarations</title>
<polygon fill="none" stroke="black" points="276,-78 276,-130 2732,-130 2732,-78 276,-78"/>
</g>
<g id="clust15" class="cluster">
<title>cluster_AdsThemeModule_exports</title>
<polygon fill="none" stroke="black" points="76,-208 76,-260 2571,-260 2571,-208 76,-208"/>
</g>
<g id="clust14" class="cluster">
<title>cluster_AdsThemeModule_imports</title>
<polygon fill="none" stroke="black" points="16,-78 16,-130 268,-130 268,-78 16,-78"/>
</g>
<!-- AdContentFormWidgetComponent -->
<g id="node1" class="node">
<title>AdContentFormWidgetComponent</title>
<polygon fill="#ffffb3" stroke="black" points="2724.32,-122 2509.68,-122 2509.68,-86 2724.32,-86 2724.32,-122"/>
<text text-anchor="middle" x="2617" y="-99.8" font-family="Times,serif" font-size="14.00">AdContentFormWidgetComponent</text>
</g>
<!-- AdsThemeModule -->
<g id="node12" class="node">
<title>AdsThemeModule</title>
<polygon fill="#8dd3c7" stroke="black" points="1397.47,-187 1394.47,-191 1373.47,-191 1370.47,-187 1276.53,-187 1276.53,-151 1397.47,-151 1397.47,-187"/>
<text text-anchor="middle" x="1337" y="-164.8" font-family="Times,serif" font-size="14.00">AdsThemeModule</text>
</g>
<!-- AdContentFormWidgetComponent&#45;&gt;AdsThemeModule -->
<g id="edge1" class="edge">
<title>AdContentFormWidgetComponent&#45;&gt;AdsThemeModule</title>
<path fill="none" stroke="black" d="M2536.38,-122.11C2536.38,-141.34 2536.38,-169 2536.38,-169 2536.38,-169 1407.71,-169 1407.71,-169"/>
<polygon fill="black" stroke="black" points="1407.71,-165.5 1397.71,-169 1407.71,-172.5 1407.71,-165.5"/>
</g>
<!-- AdPostCatalogWidgetComponent -->
<g id="node2" class="node">
<title>AdPostCatalogWidgetComponent</title>
<polygon fill="#ffffb3" stroke="black" points="2491.81,-122 2284.19,-122 2284.19,-86 2491.81,-86 2491.81,-122"/>
<text text-anchor="middle" x="2388" y="-99.8" font-family="Times,serif" font-size="14.00">AdPostCatalogWidgetComponent</text>
</g>
<!-- AdPostCatalogWidgetComponent&#45;&gt;AdsThemeModule -->
<g id="edge2" class="edge">
<title>AdPostCatalogWidgetComponent&#45;&gt;AdsThemeModule</title>
<path fill="none" stroke="black" d="M2305.88,-122.27C2305.88,-140.56 2305.88,-166 2305.88,-166 2305.88,-166 1407.61,-166 1407.61,-166"/>
<polygon fill="black" stroke="black" points="1407.61,-162.5 1397.61,-166 1407.61,-169.5 1407.61,-162.5"/>
</g>
<!-- AdPostPreviewWidgetComponent -->
<g id="node3" class="node">
<title>AdPostPreviewWidgetComponent</title>
<polygon fill="#ffffb3" stroke="black" points="2266.64,-122 2057.36,-122 2057.36,-86 2266.64,-86 2266.64,-122"/>
<text text-anchor="middle" x="2162" y="-99.8" font-family="Times,serif" font-size="14.00">AdPostPreviewWidgetComponent</text>
</g>
<!-- AdPostPreviewWidgetComponent&#45;&gt;AdsThemeModule -->
<g id="edge3" class="edge">
<title>AdPostPreviewWidgetComponent&#45;&gt;AdsThemeModule</title>
<path fill="none" stroke="black" d="M2077.88,-122.02C2077.88,-139.37 2077.88,-163 2077.88,-163 2077.88,-163 1407.63,-163 1407.63,-163"/>
<polygon fill="black" stroke="black" points="1407.63,-159.5 1397.63,-163 1407.63,-166.5 1407.63,-159.5"/>
</g>
<!-- AdPreviewWidgetComponent -->
<g id="node4" class="node">
<title>AdPreviewWidgetComponent</title>
<polygon fill="#ffffb3" stroke="black" points="2038.52,-122 1853.48,-122 1853.48,-86 2038.52,-86 2038.52,-122"/>
<text text-anchor="middle" x="1946" y="-99.8" font-family="Times,serif" font-size="14.00">AdPreviewWidgetComponent</text>
</g>
<!-- AdPreviewWidgetComponent&#45;&gt;AdsThemeModule -->
<g id="edge4" class="edge">
<title>AdPreviewWidgetComponent&#45;&gt;AdsThemeModule</title>
<path fill="none" stroke="black" d="M1860.38,-122.03C1860.38,-138.4 1860.38,-160 1860.38,-160 1860.38,-160 1407.55,-160 1407.55,-160"/>
<polygon fill="black" stroke="black" points="1407.55,-156.5 1397.55,-160 1407.55,-163.5 1407.55,-156.5"/>
</g>
<!-- AdTextPreviewWidgetComponent -->
<g id="node5" class="node">
<title>AdTextPreviewWidgetComponent</title>
<polygon fill="#ffffb3" stroke="black" points="1835.68,-122 1624.32,-122 1624.32,-86 1835.68,-86 1835.68,-122"/>
<text text-anchor="middle" x="1730" y="-99.8" font-family="Times,serif" font-size="14.00">AdTextPreviewWidgetComponent</text>
</g>
<!-- AdTextPreviewWidgetComponent&#45;&gt;AdsThemeModule -->
<g id="edge5" class="edge">
<title>AdTextPreviewWidgetComponent&#45;&gt;AdsThemeModule</title>
<path fill="none" stroke="black" d="M1642.38,-122.24C1642.38,-137.57 1642.38,-157 1642.38,-157 1642.38,-157 1407.7,-157 1407.7,-157"/>
<polygon fill="black" stroke="black" points="1407.7,-153.5 1397.7,-157 1407.7,-160.5 1407.7,-153.5"/>
</g>
<!-- AdsMainContentComponent -->
<g id="node6" class="node">
<title>AdsMainContentComponent</title>
<polygon fill="#ffffb3" stroke="black" points="1606.77,-122 1429.23,-122 1429.23,-86 1606.77,-86 1606.77,-122"/>
<text text-anchor="middle" x="1518" y="-99.8" font-family="Times,serif" font-size="14.00">AdsMainContentComponent</text>
</g>
<!-- AdsMainContentComponent&#45;&gt;AdsThemeModule -->
<g id="edge6" class="edge">
<title>AdsMainContentComponent&#45;&gt;AdsThemeModule</title>
<path fill="none" stroke="black" d="M1437.39,-122.05C1437.39,-136.37 1437.39,-154 1437.39,-154 1437.39,-154 1407.71,-154 1407.71,-154"/>
<polygon fill="black" stroke="black" points="1407.71,-150.5 1397.71,-154 1407.71,-157.5 1407.71,-150.5"/>
</g>
<!-- AdsNavBarComponent -->
<g id="node7" class="node">
<title>AdsNavBarComponent</title>
<polygon fill="#ffffb3" stroke="black" points="1410.92,-122 1263.08,-122 1263.08,-86 1410.92,-86 1410.92,-122"/>
<text text-anchor="middle" x="1337" y="-99.8" font-family="Times,serif" font-size="14.00">AdsNavBarComponent</text>
</g>
<!-- AdsNavBarComponent&#45;&gt;AdsThemeModule -->
<g id="edge7" class="edge">
<title>AdsNavBarComponent&#45;&gt;AdsThemeModule</title>
<path fill="none" stroke="black" d="M1337,-122.11C1337,-122.11 1337,-140.99 1337,-140.99"/>
<polygon fill="black" stroke="black" points="1333.5,-140.99 1337,-150.99 1340.5,-140.99 1333.5,-140.99"/>
</g>
<!-- AdsNavTabsWidgetComponent -->
<g id="node8" class="node">
<title>AdsNavTabsWidgetComponent</title>
<polygon fill="#ffffb3" stroke="black" points="1244.63,-122 1049.37,-122 1049.37,-86 1244.63,-86 1244.63,-122"/>
<text text-anchor="middle" x="1147" y="-99.8" font-family="Times,serif" font-size="14.00">AdsNavTabsWidgetComponent</text>
</g>
<!-- AdsNavTabsWidgetComponent&#45;&gt;AdsThemeModule -->
<g id="edge8" class="edge">
<title>AdsNavTabsWidgetComponent&#45;&gt;AdsThemeModule</title>
<path fill="none" stroke="black" d="M1236.64,-122.05C1236.64,-136.37 1236.64,-154 1236.64,-154 1236.64,-154 1266.3,-154 1266.3,-154"/>
<polygon fill="black" stroke="black" points="1266.3,-157.5 1276.3,-154 1266.3,-150.5 1266.3,-157.5"/>
</g>
<!-- AdsProcessingRequestOverlayComponent -->
<g id="node9" class="node">
<title>AdsProcessingRequestOverlayComponent</title>
<polygon fill="#ffffb3" stroke="black" points="1031.22,-122 776.78,-122 776.78,-86 1031.22,-86 1031.22,-122"/>
<text text-anchor="middle" x="904" y="-99.8" font-family="Times,serif" font-size="14.00">AdsProcessingRequestOverlayComponent</text>
</g>
<!-- AdsProcessingRequestOverlayComponent&#45;&gt;AdsThemeModule -->
<g id="edge9" class="edge">
<title>AdsProcessingRequestOverlayComponent&#45;&gt;AdsThemeModule</title>
<path fill="none" stroke="black" d="M945.9,-122.24C945.9,-137.57 945.9,-157 945.9,-157 945.9,-157 1266.32,-157 1266.32,-157"/>
<polygon fill="black" stroke="black" points="1266.32,-160.5 1276.32,-157 1266.32,-153.5 1266.32,-160.5"/>
</g>
<!-- CreateAdAccountFormModalComponent -->
<g id="node10" class="node">
<title>CreateAdAccountFormModalComponent</title>
<polygon fill="#ffffb3" stroke="black" points="758.78,-122 509.22,-122 509.22,-86 758.78,-86 758.78,-122"/>
<text text-anchor="middle" x="634" y="-99.8" font-family="Times,serif" font-size="14.00">CreateAdAccountFormModalComponent</text>
</g>
<!-- CreateAdAccountFormModalComponent&#45;&gt;AdsThemeModule -->
<g id="edge10" class="edge">
<title>CreateAdAccountFormModalComponent&#45;&gt;AdsThemeModule</title>
<path fill="none" stroke="black" d="M671.26,-122.03C671.26,-138.4 671.26,-160 671.26,-160 671.26,-160 1266.45,-160 1266.45,-160"/>
<polygon fill="black" stroke="black" points="1266.45,-163.5 1276.45,-160 1266.45,-156.5 1266.45,-163.5"/>
</g>
<!-- OverlayContentModalComponent -->
<g id="node11" class="node">
<title>OverlayContentModalComponent</title>
<polygon fill="#ffffb3" stroke="black" points="491.8,-122 284.2,-122 284.2,-86 491.8,-86 491.8,-122"/>
<text text-anchor="middle" x="388" y="-99.8" font-family="Times,serif" font-size="14.00">OverlayContentModalComponent</text>
</g>
<!-- OverlayContentModalComponent&#45;&gt;AdsThemeModule -->
<g id="edge11" class="edge">
<title>OverlayContentModalComponent&#45;&gt;AdsThemeModule</title>
<path fill="none" stroke="black" d="M402.13,-122.02C402.13,-139.37 402.13,-163 402.13,-163 402.13,-163 1266.38,-163 1266.38,-163"/>
<polygon fill="black" stroke="black" points="1266.38,-166.5 1276.38,-163 1266.38,-159.5 1266.38,-166.5"/>
</g>
<!-- AdContentFormWidgetComponent  -->
<g id="node15" class="node">
<title>AdContentFormWidgetComponent </title>
<polygon fill="#fb8072" stroke="black" points="2562.82,-252 2345.18,-252 2345.18,-216 2562.82,-216 2562.82,-252"/>
<text text-anchor="middle" x="2454" y="-229.8" font-family="Times,serif" font-size="14.00">AdContentFormWidgetComponent </text>
</g>
<!-- AdsThemeModule&#45;&gt;AdContentFormWidgetComponent  -->
<g id="edge14" class="edge">
<title>AdsThemeModule&#45;&gt;AdContentFormWidgetComponent </title>
<path fill="none" stroke="black" stroke-dasharray="5,2" d="M1397.85,-172C1626.09,-172 2418.37,-172 2418.37,-172 2418.37,-172 2418.37,-205.73 2418.37,-205.73"/>
<polygon fill="black" stroke="black" points="2414.87,-205.73 2418.37,-215.73 2421.87,-205.73 2414.87,-205.73"/>
</g>
<!-- AdPostCatalogWidgetComponent  -->
<g id="node16" class="node">
<title>AdPostCatalogWidgetComponent </title>
<polygon fill="#fb8072" stroke="black" points="2327.31,-252 2116.69,-252 2116.69,-216 2327.31,-216 2327.31,-252"/>
<text text-anchor="middle" x="2222" y="-229.8" font-family="Times,serif" font-size="14.00">AdPostCatalogWidgetComponent </text>
</g>
<!-- AdsThemeModule&#45;&gt;AdPostCatalogWidgetComponent  -->
<g id="edge15" class="edge">
<title>AdsThemeModule&#45;&gt;AdPostCatalogWidgetComponent </title>
<path fill="none" stroke="black" stroke-dasharray="5,2" d="M1397.78,-175C1593.05,-175 2191.71,-175 2191.71,-175 2191.71,-175 2191.71,-205.98 2191.71,-205.98"/>
<polygon fill="black" stroke="black" points="2188.21,-205.98 2191.71,-215.98 2195.21,-205.98 2188.21,-205.98"/>
</g>
<!-- AdPostPreviewWidgetComponent  -->
<g id="node17" class="node">
<title>AdPostPreviewWidgetComponent </title>
<polygon fill="#fb8072" stroke="black" points="2098.64,-252 1885.36,-252 1885.36,-216 2098.64,-216 2098.64,-252"/>
<text text-anchor="middle" x="1992" y="-229.8" font-family="Times,serif" font-size="14.00">AdPostPreviewWidgetComponent </text>
</g>
<!-- AdsThemeModule&#45;&gt;AdPostPreviewWidgetComponent  -->
<g id="edge16" class="edge">
<title>AdsThemeModule&#45;&gt;AdPostPreviewWidgetComponent </title>
<path fill="none" stroke="black" stroke-dasharray="5,2" d="M1397.5,-178C1554.38,-178 1962.1,-178 1962.1,-178 1962.1,-178 1962.1,-205.97 1962.1,-205.97"/>
<polygon fill="black" stroke="black" points="1958.6,-205.97 1962.1,-215.97 1965.6,-205.97 1958.6,-205.97"/>
</g>
<!-- AdPreviewWidgetComponent  -->
<g id="node18" class="node">
<title>AdPreviewWidgetComponent </title>
<polygon fill="#fb8072" stroke="black" points="1867.52,-252 1678.48,-252 1678.48,-216 1867.52,-216 1867.52,-252"/>
<text text-anchor="middle" x="1773" y="-229.8" font-family="Times,serif" font-size="14.00">AdPreviewWidgetComponent </text>
</g>
<!-- AdsThemeModule&#45;&gt;AdPreviewWidgetComponent  -->
<g id="edge17" class="edge">
<title>AdsThemeModule&#45;&gt;AdPreviewWidgetComponent </title>
<path fill="none" stroke="black" stroke-dasharray="5,2" d="M1397.63,-181C1513.95,-181 1757.04,-181 1757.04,-181 1757.04,-181 1757.04,-205.76 1757.04,-205.76"/>
<polygon fill="black" stroke="black" points="1753.54,-205.76 1757.04,-215.76 1760.54,-205.76 1753.54,-205.76"/>
</g>
<!-- AdTextPreviewWidgetComponent  -->
<g id="node19" class="node">
<title>AdTextPreviewWidgetComponent </title>
<polygon fill="#fb8072" stroke="black" points="1660.18,-252 1445.82,-252 1445.82,-216 1660.18,-216 1660.18,-252"/>
<text text-anchor="middle" x="1553" y="-229.8" font-family="Times,serif" font-size="14.00">AdTextPreviewWidgetComponent </text>
</g>
<!-- AdsThemeModule&#45;&gt;AdTextPreviewWidgetComponent  -->
<g id="edge18" class="edge">
<title>AdsThemeModule&#45;&gt;AdTextPreviewWidgetComponent </title>
<path fill="none" stroke="black" stroke-dasharray="5,2" d="M1397.67,-184C1453.03,-184 1526.27,-184 1526.27,-184 1526.27,-184 1526.27,-205.95 1526.27,-205.95"/>
<polygon fill="black" stroke="black" points="1522.77,-205.95 1526.27,-215.95 1529.77,-205.95 1522.77,-205.95"/>
</g>
<!-- AdsMainContentComponent  -->
<g id="node20" class="node">
<title>AdsMainContentComponent </title>
<polygon fill="#fb8072" stroke="black" points="1427.77,-252 1246.23,-252 1246.23,-216 1427.77,-216 1427.77,-252"/>
<text text-anchor="middle" x="1337" y="-229.8" font-family="Times,serif" font-size="14.00">AdsMainContentComponent </text>
</g>
<!-- AdsThemeModule&#45;&gt;AdsMainContentComponent  -->
<g id="edge19" class="edge">
<title>AdsThemeModule&#45;&gt;AdsMainContentComponent </title>
<path fill="none" stroke="black" stroke-dasharray="5,2" d="M1337,-187.11C1337,-187.11 1337,-205.99 1337,-205.99"/>
<polygon fill="black" stroke="black" points="1333.5,-205.99 1337,-215.99 1340.5,-205.99 1333.5,-205.99"/>
</g>
<!-- AdsNavBarComponent  -->
<g id="node21" class="node">
<title>AdsNavBarComponent </title>
<polygon fill="#fb8072" stroke="black" points="1228.42,-252 1077.58,-252 1077.58,-216 1228.42,-216 1228.42,-252"/>
<text text-anchor="middle" x="1153" y="-229.8" font-family="Times,serif" font-size="14.00">AdsNavBarComponent </text>
</g>
<!-- AdsThemeModule&#45;&gt;AdsNavBarComponent  -->
<g id="edge20" class="edge">
<title>AdsThemeModule&#45;&gt;AdsNavBarComponent </title>
<path fill="none" stroke="black" stroke-dasharray="5,2" d="M1276.5,-184C1222.87,-184 1153,-184 1153,-184 1153,-184 1153,-205.95 1153,-205.95"/>
<polygon fill="black" stroke="black" points="1149.5,-205.95 1153,-215.95 1156.5,-205.95 1149.5,-205.95"/>
</g>
<!-- AdsNavTabsWidgetComponent  -->
<g id="node22" class="node">
<title>AdsNavTabsWidgetComponent </title>
<polygon fill="#fb8072" stroke="black" points="1059.63,-252 860.37,-252 860.37,-216 1059.63,-216 1059.63,-252"/>
<text text-anchor="middle" x="960" y="-229.8" font-family="Times,serif" font-size="14.00">AdsNavTabsWidgetComponent </text>
</g>
<!-- AdsThemeModule&#45;&gt;AdsNavTabsWidgetComponent  -->
<g id="edge21" class="edge">
<title>AdsThemeModule&#45;&gt;AdsNavTabsWidgetComponent </title>
<path fill="none" stroke="black" stroke-dasharray="5,2" d="M1276.37,-181C1193.33,-181 1054.38,-181 1054.38,-181 1054.38,-181 1054.38,-205.76 1054.38,-205.76"/>
<polygon fill="black" stroke="black" points="1050.88,-205.76 1054.38,-215.76 1057.88,-205.76 1050.88,-205.76"/>
</g>
<!-- AdsProcessingRequestOverlayComponent  -->
<g id="node23" class="node">
<title>AdsProcessingRequestOverlayComponent </title>
<polygon fill="#fb8072" stroke="black" points="842.22,-252 583.78,-252 583.78,-216 842.22,-216 842.22,-252"/>
<text text-anchor="middle" x="713" y="-229.8" font-family="Times,serif" font-size="14.00">AdsProcessingRequestOverlayComponent </text>
</g>
<!-- AdsThemeModule&#45;&gt;AdsProcessingRequestOverlayComponent  -->
<g id="edge22" class="edge">
<title>AdsThemeModule&#45;&gt;AdsProcessingRequestOverlayComponent </title>
<path fill="none" stroke="black" stroke-dasharray="5,2" d="M1276.47,-178C1137.88,-178 809.38,-178 809.38,-178 809.38,-178 809.38,-205.97 809.38,-205.97"/>
<polygon fill="black" stroke="black" points="805.88,-205.97 809.38,-215.97 812.88,-205.97 805.88,-205.97"/>
</g>
<!-- CreateAdAccountFormModalComponent  -->
<g id="node24" class="node">
<title>CreateAdAccountFormModalComponent </title>
<polygon fill="#fb8072" stroke="black" points="565.28,-252 312.72,-252 312.72,-216 565.28,-216 565.28,-252"/>
<text text-anchor="middle" x="439" y="-229.8" font-family="Times,serif" font-size="14.00">CreateAdAccountFormModalComponent </text>
</g>
<!-- AdsThemeModule&#45;&gt;CreateAdAccountFormModalComponent  -->
<g id="edge23" class="edge">
<title>AdsThemeModule&#45;&gt;CreateAdAccountFormModalComponent </title>
<path fill="none" stroke="black" stroke-dasharray="5,2" d="M1276.24,-175C1089.64,-175 537.38,-175 537.38,-175 537.38,-175 537.38,-205.98 537.38,-205.98"/>
<polygon fill="black" stroke="black" points="533.88,-205.98 537.38,-215.98 540.88,-205.98 533.88,-205.98"/>
</g>
<!-- OverlayContentModalComponent  -->
<g id="node25" class="node">
<title>OverlayContentModalComponent </title>
<polygon fill="#fb8072" stroke="black" points="294.3,-252 83.7,-252 83.7,-216 294.3,-216 294.3,-252"/>
<text text-anchor="middle" x="189" y="-229.8" font-family="Times,serif" font-size="14.00">OverlayContentModalComponent </text>
</g>
<!-- AdsThemeModule&#45;&gt;OverlayContentModalComponent  -->
<g id="edge24" class="edge">
<title>AdsThemeModule&#45;&gt;OverlayContentModalComponent </title>
<path fill="none" stroke="black" stroke-dasharray="5,2" d="M1276.15,-172C1052.56,-172 289.38,-172 289.38,-172 289.38,-172 289.38,-205.73 289.38,-205.73"/>
<polygon fill="black" stroke="black" points="285.88,-205.73 289.38,-215.73 292.88,-205.73 285.88,-205.73"/>
</g>
<!-- ThemeModule -->
<g id="node13" class="node">
<title>ThemeModule</title>
<polygon fill="#8dd3c7" stroke="black" points="260.42,-122 257.42,-126 236.42,-126 233.42,-122 161.58,-122 161.58,-86 260.42,-86 260.42,-122"/>
<text text-anchor="middle" x="211" y="-99.8" font-family="Times,serif" font-size="14.00">ThemeModule</text>
</g>
<!-- ThemeModule&#45;&gt;AdsThemeModule -->
<g id="edge12" class="edge">
<title>ThemeModule&#45;&gt;AdsThemeModule</title>
<path fill="none" stroke="black" d="M211,-122.27C211,-140.56 211,-166 211,-166 211,-166 1266.46,-166 1266.46,-166"/>
<polygon fill="black" stroke="black" points="1266.46,-169.5 1276.46,-166 1266.46,-162.5 1266.46,-169.5"/>
</g>
<!-- WfLinkifyModule -->
<g id="node14" class="node">
<title>WfLinkifyModule</title>
<polygon fill="#8dd3c7" stroke="black" points="143.92,-122 140.92,-126 119.92,-126 116.92,-122 24.08,-122 24.08,-86 143.92,-86 143.92,-122"/>
<text text-anchor="middle" x="84" y="-99.8" font-family="Times,serif" font-size="14.00">WfLinkifyModule</text>
</g>
<!-- WfLinkifyModule&#45;&gt;AdsThemeModule -->
<g id="edge13" class="edge">
<title>WfLinkifyModule&#45;&gt;AdsThemeModule</title>
<path fill="none" stroke="black" d="M113.65,-122.11C113.65,-141.34 113.65,-169 113.65,-169 113.65,-169 1266.33,-169 1266.33,-169"/>
<polygon fill="black" stroke="black" points="1266.33,-172.5 1276.33,-169 1266.33,-165.5 1266.33,-172.5"/>
</g>
</g>
</svg>
