<?xml version="1.0" encoding="UTF-8" standalone="no"?>
<!DOCTYPE svg PUBLIC "-//W3C//DTD SVG 1.1//EN"
 "http://www.w3.org/Graphics/SVG/1.1/DTD/svg11.dtd">
<!-- Generated by graphviz version 2.47.0 (20210316.0004)
 -->
<!-- Title: dependencies Pages: 1 -->
<svg width="1432pt" height="211pt"
 viewBox="0.00 0.00 1432.00 211.00" xmlns="http://www.w3.org/2000/svg" xmlns:xlink="http://www.w3.org/1999/xlink">
<g id="graph0" class="graph" transform="scale(1 1) rotate(0) translate(4 207)">
<title>dependencies</title>
<polygon fill="white" stroke="transparent" points="-4,4 -4,-207 1428,-207 1428,4 -4,4"/>
<text text-anchor="start" x="691.01" y="-42.4" font-family="sans-serif" font-weight="bold" font-size="14.00">Legend</text>
<polygon fill="#ffffb3" stroke="transparent" points="478,-10 478,-30 498,-30 498,-10 478,-10"/>
<text text-anchor="start" x="501.63" y="-15.4" font-family="sans-serif" font-size="14.00"> &#160;Declarations</text>
<polygon fill="#8dd3c7" stroke="transparent" points="591,-10 591,-30 611,-30 611,-10 591,-10"/>
<text text-anchor="start" x="614.73" y="-15.4" font-family="sans-serif" font-size="14.00"> &#160;Module</text>
<polygon fill="#80b1d3" stroke="transparent" points="677,-10 677,-30 697,-30 697,-10 677,-10"/>
<text text-anchor="start" x="700.78" y="-15.4" font-family="sans-serif" font-size="14.00"> &#160;Bootstrap</text>
<polygon fill="#fdb462" stroke="transparent" points="774,-10 774,-30 794,-30 794,-10 774,-10"/>
<text text-anchor="start" x="797.67" y="-15.4" font-family="sans-serif" font-size="14.00"> &#160;Providers</text>
<polygon fill="#fb8072" stroke="transparent" points="870,-10 870,-30 890,-30 890,-10 870,-10"/>
<text text-anchor="start" x="893.73" y="-15.4" font-family="sans-serif" font-size="14.00"> &#160;Exports</text>
<g id="clust1" class="cluster">
<title>cluster_WoorbiPagesModule</title>
<polygon fill="none" stroke="black" stroke-dasharray="1,5" points="8,-70 8,-195 1416,-195 1416,-70 8,-70"/>
</g>
<g id="clust8" class="cluster">
<title>cluster_WoorbiPagesModule_imports</title>
<polygon fill="none" stroke="black" points="1096,-78 1096,-130 1408,-130 1408,-78 1096,-78"/>
</g>
<g id="clust2" class="cluster">
<title>cluster_WoorbiPagesModule_declarations</title>
<polygon fill="none" stroke="black" points="16,-78 16,-130 1088,-130 1088,-78 16,-78"/>
</g>
<!-- MyPagesComponent -->
<g id="node1" class="node">
<title>MyPagesComponent</title>
<polygon fill="#ffffb3" stroke="black" points="1079.93,-122 946.07,-122 946.07,-86 1079.93,-86 1079.93,-122"/>
<text text-anchor="middle" x="1013" y="-99.8" font-family="Times,serif" font-size="14.00">MyPagesComponent</text>
</g>
<!-- WoorbiPagesModule -->
<g id="node6" class="node">
<title>WoorbiPagesModule</title>
<polygon fill="#8dd3c7" stroke="black" points="896.47,-187 893.47,-191 872.47,-191 869.47,-187 761.53,-187 761.53,-151 896.47,-151 896.47,-187"/>
<text text-anchor="middle" x="829" y="-164.8" font-family="Times,serif" font-size="14.00">WoorbiPagesModule</text>
</g>
<!-- MyPagesComponent&#45;&gt;WoorbiPagesModule -->
<g id="edge1" class="edge">
<title>MyPagesComponent&#45;&gt;WoorbiPagesModule</title>
<path fill="none" stroke="black" d="M1013,-122.03C1013,-138.4 1013,-160 1013,-160 1013,-160 906.73,-160 906.73,-160"/>
<polygon fill="black" stroke="black" points="906.73,-156.5 896.73,-160 906.73,-163.5 906.73,-156.5"/>
</g>
<!-- PageListCardWidgetComponent -->
<g id="node2" class="node">
<title>PageListCardWidgetComponent</title>
<polygon fill="#ffffb3" stroke="black" points="928.24,-122 729.76,-122 729.76,-86 928.24,-86 928.24,-122"/>
<text text-anchor="middle" x="829" y="-99.8" font-family="Times,serif" font-size="14.00">PageListCardWidgetComponent</text>
</g>
<!-- PageListCardWidgetComponent&#45;&gt;WoorbiPagesModule -->
<g id="edge2" class="edge">
<title>PageListCardWidgetComponent&#45;&gt;WoorbiPagesModule</title>
<path fill="none" stroke="black" d="M829,-122.11C829,-122.11 829,-140.99 829,-140.99"/>
<polygon fill="black" stroke="black" points="825.5,-140.99 829,-150.99 832.5,-140.99 825.5,-140.99"/>
</g>
<!-- WoorbiPagesComponent -->
<g id="node3" class="node">
<title>WoorbiPagesComponent</title>
<polygon fill="#ffffb3" stroke="black" points="711.25,-122 554.75,-122 554.75,-86 711.25,-86 711.25,-122"/>
<text text-anchor="middle" x="633" y="-99.8" font-family="Times,serif" font-size="14.00">WoorbiPagesComponent</text>
</g>
<!-- WoorbiPagesComponent&#45;&gt;WoorbiPagesModule -->
<g id="edge3" class="edge">
<title>WoorbiPagesComponent&#45;&gt;WoorbiPagesModule</title>
<path fill="none" stroke="black" d="M633,-122.03C633,-138.4 633,-160 633,-160 633,-160 751.27,-160 751.27,-160"/>
<polygon fill="black" stroke="black" points="751.27,-163.5 761.27,-160 751.27,-156.5 751.27,-163.5"/>
</g>
<!-- WpPagesLeftMenuWidgetComponent -->
<g id="node4" class="node">
<title>WpPagesLeftMenuWidgetComponent</title>
<polygon fill="#ffffb3" stroke="black" points="536.89,-122 305.11,-122 305.11,-86 536.89,-86 536.89,-122"/>
<text text-anchor="middle" x="421" y="-99.8" font-family="Times,serif" font-size="14.00">WpPagesLeftMenuWidgetComponent</text>
</g>
<!-- WpPagesLeftMenuWidgetComponent&#45;&gt;WoorbiPagesModule -->
<g id="edge4" class="edge">
<title>WpPagesLeftMenuWidgetComponent&#45;&gt;WoorbiPagesModule</title>
<path fill="none" stroke="black" d="M421,-122.11C421,-141.34 421,-169 421,-169 421,-169 751.17,-169 751.17,-169"/>
<polygon fill="black" stroke="black" points="751.17,-172.5 761.17,-169 751.17,-165.5 751.17,-172.5"/>
</g>
<!-- WpPagesMainContentContainerComponent -->
<g id="node5" class="node">
<title>WpPagesMainContentContainerComponent</title>
<polygon fill="#ffffb3" stroke="black" points="287.79,-122 24.21,-122 24.21,-86 287.79,-86 287.79,-122"/>
<text text-anchor="middle" x="156" y="-99.8" font-family="Times,serif" font-size="14.00">WpPagesMainContentContainerComponent</text>
</g>
<!-- WpPagesMainContentContainerComponent&#45;&gt;WoorbiPagesModule -->
<g id="edge5" class="edge">
<title>WpPagesMainContentContainerComponent&#45;&gt;WoorbiPagesModule</title>
<path fill="none" stroke="black" d="M156,-122.29C156,-144.21 156,-178 156,-178 156,-178 751.39,-178 751.39,-178"/>
<polygon fill="black" stroke="black" points="751.39,-181.5 761.39,-178 751.39,-174.5 751.39,-181.5"/>
</g>
<!-- ThemeModule -->
<g id="node7" class="node">
<title>ThemeModule</title>
<polygon fill="#8dd3c7" stroke="black" points="1400.42,-122 1397.42,-126 1376.42,-126 1373.42,-122 1301.58,-122 1301.58,-86 1400.42,-86 1400.42,-122"/>
<text text-anchor="middle" x="1351" y="-99.8" font-family="Times,serif" font-size="14.00">ThemeModule</text>
</g>
<!-- ThemeModule&#45;&gt;WoorbiPagesModule -->
<g id="edge6" class="edge">
<title>ThemeModule&#45;&gt;WoorbiPagesModule</title>
<path fill="none" stroke="black" d="M1351,-122.29C1351,-144.21 1351,-178 1351,-178 1351,-178 906.71,-178 906.71,-178"/>
<polygon fill="black" stroke="black" points="906.71,-174.5 896.71,-178 906.71,-181.5 906.71,-174.5"/>
</g>
<!-- WoorbiPagesRoutingModule -->
<g id="node8" class="node">
<title>WoorbiPagesRoutingModule</title>
<polygon fill="#8dd3c7" stroke="black" points="1284.09,-122 1281.09,-126 1260.09,-126 1257.09,-122 1103.91,-122 1103.91,-86 1284.09,-86 1284.09,-122"/>
<text text-anchor="middle" x="1194" y="-99.8" font-family="Times,serif" font-size="14.00">WoorbiPagesRoutingModule</text>
</g>
<!-- WoorbiPagesRoutingModule&#45;&gt;WoorbiPagesModule -->
<g id="edge7" class="edge">
<title>WoorbiPagesRoutingModule&#45;&gt;WoorbiPagesModule</title>
<path fill="none" stroke="black" d="M1194,-122.11C1194,-141.34 1194,-169 1194,-169 1194,-169 906.8,-169 906.8,-169"/>
<polygon fill="black" stroke="black" points="906.8,-165.5 896.8,-169 906.8,-172.5 906.8,-165.5"/>
</g>
</g>
</svg>
