<?xml version="1.0" encoding="UTF-8" standalone="no"?>
<!DOCTYPE svg PUBLIC "-//W3C//DTD SVG 1.1//EN"
 "http://www.w3.org/Graphics/SVG/1.1/DTD/svg11.dtd">
<!-- Generated by graphviz version 2.47.0 (20210316.0004)
 -->
<!-- Title: dependencies Pages: 1 -->
<svg width="504pt" height="284pt"
 viewBox="0.00 0.00 504.00 284.00" xmlns="http://www.w3.org/2000/svg" xmlns:xlink="http://www.w3.org/1999/xlink">
<g id="graph0" class="graph" transform="scale(1 1) rotate(0) translate(4 280)">
<title>dependencies</title>
<polygon fill="white" stroke="transparent" points="-4,4 -4,-280 500,-280 500,4 -4,4"/>
<text text-anchor="start" x="227.01" y="-42.4" font-family="sans-serif" font-weight="bold" font-size="14.00">Legend</text>
<polygon fill="#ffffb3" stroke="transparent" points="14,-10 14,-30 34,-30 34,-10 14,-10"/>
<text text-anchor="start" x="37.63" y="-15.4" font-family="sans-serif" font-size="14.00"> &#160;Declarations</text>
<polygon fill="#8dd3c7" stroke="transparent" points="127,-10 127,-30 147,-30 147,-10 127,-10"/>
<text text-anchor="start" x="150.73" y="-15.4" font-family="sans-serif" font-size="14.00"> &#160;Module</text>
<polygon fill="#80b1d3" stroke="transparent" points="213,-10 213,-30 233,-30 233,-10 213,-10"/>
<text text-anchor="start" x="236.78" y="-15.4" font-family="sans-serif" font-size="14.00"> &#160;Bootstrap</text>
<polygon fill="#fdb462" stroke="transparent" points="310,-10 310,-30 330,-30 330,-10 310,-10"/>
<text text-anchor="start" x="333.67" y="-15.4" font-family="sans-serif" font-size="14.00"> &#160;Providers</text>
<polygon fill="#fb8072" stroke="transparent" points="406,-10 406,-30 426,-30 426,-10 406,-10"/>
<text text-anchor="start" x="429.73" y="-15.4" font-family="sans-serif" font-size="14.00"> &#160;Exports</text>
<g id="clust1" class="cluster">
<title>cluster_NgbdDatepickerAdapterModule</title>
<polygon fill="none" stroke="black" stroke-dasharray="1,5" points="141,-70 141,-268 355,-268 355,-70 141,-70"/>
</g>
<g id="clust6" class="cluster">
<title>cluster_NgbdDatepickerAdapterModule_bootstrap</title>
<polygon fill="none" stroke="black" points="161,-208 161,-260 335,-260 335,-208 161,-208"/>
</g>
<g id="clust2" class="cluster">
<title>cluster_NgbdDatepickerAdapterModule_declarations</title>
<polygon fill="none" stroke="black" points="163,-78 163,-130 333,-130 333,-78 163,-78"/>
</g>
<!-- NgbdDatepickerAdapter -->
<g id="node1" class="node">
<title>NgbdDatepickerAdapter</title>
<polygon fill="#ffffb3" stroke="black" points="324.6,-122 171.4,-122 171.4,-86 324.6,-86 324.6,-122"/>
<text text-anchor="middle" x="248" y="-99.8" font-family="Times,serif" font-size="14.00">NgbdDatepickerAdapter</text>
</g>
<!-- NgbdDatepickerAdapterModule -->
<g id="node2" class="node">
<title>NgbdDatepickerAdapterModule</title>
<polygon fill="#8dd3c7" stroke="black" points="346.65,-187 343.65,-191 322.65,-191 319.65,-187 149.35,-187 149.35,-151 346.65,-151 346.65,-187"/>
<text text-anchor="middle" x="248" y="-164.8" font-family="Times,serif" font-size="14.00">NgbdDatepickerAdapterModule</text>
</g>
<!-- NgbdDatepickerAdapter&#45;&gt;NgbdDatepickerAdapterModule -->
<g id="edge1" class="edge">
<title>NgbdDatepickerAdapter&#45;&gt;NgbdDatepickerAdapterModule</title>
<path fill="none" stroke="black" d="M248,-122.11C248,-122.11 248,-140.99 248,-140.99"/>
<polygon fill="black" stroke="black" points="244.5,-140.99 248,-150.99 251.5,-140.99 244.5,-140.99"/>
</g>
<!-- NgbdDatepickerAdapter  -->
<g id="node3" class="node">
<title>NgbdDatepickerAdapter </title>
<polygon fill="#fb8072" stroke="black" points="326.6,-252 169.4,-252 169.4,-216 326.6,-216 326.6,-252"/>
<text text-anchor="middle" x="248" y="-229.8" font-family="Times,serif" font-size="14.00">NgbdDatepickerAdapter </text>
</g>
<!-- NgbdDatepickerAdapterModule&#45;&gt;NgbdDatepickerAdapter  -->
<g id="edge2" class="edge">
<title>NgbdDatepickerAdapterModule&#45;&gt;NgbdDatepickerAdapter </title>
<path fill="none" stroke="black" stroke-dasharray="5,2" d="M221.82,-187.11C221.82,-187.11 221.82,-205.99 221.82,-205.99"/>
<polygon fill="black" stroke="black" points="218.32,-205.99 221.82,-215.99 225.32,-205.99 218.32,-205.99"/>
</g>
<!-- NgbdDatepickerAdapterModule&#45;&gt;NgbdDatepickerAdapter  -->
<g id="edge3" class="edge">
<title>NgbdDatepickerAdapterModule&#45;&gt;NgbdDatepickerAdapter </title>
<path fill="none" stroke="black" stroke-dasharray="1,5" d="M274.18,-187.11C274.18,-187.11 274.18,-205.99 274.18,-205.99"/>
<polygon fill="black" stroke="black" points="270.68,-205.99 274.18,-215.99 277.68,-205.99 270.68,-205.99"/>
</g>
</g>
</svg>
