<?xml version="1.0" encoding="UTF-8" standalone="no"?>
<!DOCTYPE svg PUBLIC "-//W3C//DTD SVG 1.1//EN"
 "http://www.w3.org/Graphics/SVG/1.1/DTD/svg11.dtd">
<!-- Generated by graphviz version 2.47.0 (20210316.0004)
 -->
<!-- Title: dependencies Pages: 1 -->
<svg width="716pt" height="211pt"
 viewBox="0.00 0.00 716.00 211.00" xmlns="http://www.w3.org/2000/svg" xmlns:xlink="http://www.w3.org/1999/xlink">
<g id="graph0" class="graph" transform="scale(1 1) rotate(0) translate(4 207)">
<title>dependencies</title>
<polygon fill="white" stroke="transparent" points="-4,4 -4,-207 712,-207 712,4 -4,4"/>
<text text-anchor="start" x="333.01" y="-42.4" font-family="sans-serif" font-weight="bold" font-size="14.00">Legend</text>
<polygon fill="#ffffb3" stroke="transparent" points="120,-10 120,-30 140,-30 140,-10 120,-10"/>
<text text-anchor="start" x="143.63" y="-15.4" font-family="sans-serif" font-size="14.00"> &#160;Declarations</text>
<polygon fill="#8dd3c7" stroke="transparent" points="233,-10 233,-30 253,-30 253,-10 233,-10"/>
<text text-anchor="start" x="256.73" y="-15.4" font-family="sans-serif" font-size="14.00"> &#160;Module</text>
<polygon fill="#80b1d3" stroke="transparent" points="319,-10 319,-30 339,-30 339,-10 319,-10"/>
<text text-anchor="start" x="342.78" y="-15.4" font-family="sans-serif" font-size="14.00"> &#160;Bootstrap</text>
<polygon fill="#fdb462" stroke="transparent" points="416,-10 416,-30 436,-30 436,-10 416,-10"/>
<text text-anchor="start" x="439.67" y="-15.4" font-family="sans-serif" font-size="14.00"> &#160;Providers</text>
<polygon fill="#fb8072" stroke="transparent" points="512,-10 512,-30 532,-30 532,-10 512,-10"/>
<text text-anchor="start" x="535.73" y="-15.4" font-family="sans-serif" font-size="14.00"> &#160;Exports</text>
<g id="clust1" class="cluster">
<title>cluster_ViewerModule</title>
<polygon fill="none" stroke="black" stroke-dasharray="1,5" points="8,-70 8,-195 700,-195 700,-70 8,-70"/>
</g>
<g id="clust4" class="cluster">
<title>cluster_ViewerModule_imports</title>
<polygon fill="none" stroke="black" points="194,-78 194,-130 692,-130 692,-78 194,-78"/>
</g>
<g id="clust2" class="cluster">
<title>cluster_ViewerModule_declarations</title>
<polygon fill="none" stroke="black" points="16,-78 16,-130 186,-130 186,-78 16,-78"/>
</g>
<!-- AdsManagerComponent -->
<g id="node1" class="node">
<title>AdsManagerComponent</title>
<polygon fill="#ffffb3" stroke="black" points="177.63,-122 24.37,-122 24.37,-86 177.63,-86 177.63,-122"/>
<text text-anchor="middle" x="101" y="-99.8" font-family="Times,serif" font-size="14.00">AdsManagerComponent</text>
</g>
<!-- ViewerModule -->
<g id="node2" class="node">
<title>ViewerModule</title>
<polygon fill="#8dd3c7" stroke="black" points="465.24,-187 462.24,-191 441.24,-191 438.24,-187 364.76,-187 364.76,-151 465.24,-151 465.24,-187"/>
<text text-anchor="middle" x="415" y="-164.8" font-family="Times,serif" font-size="14.00">ViewerModule</text>
</g>
<!-- AdsManagerComponent&#45;&gt;ViewerModule -->
<g id="edge1" class="edge">
<title>AdsManagerComponent&#45;&gt;ViewerModule</title>
<path fill="none" stroke="black" d="M101,-122.28C101,-143.32 101,-175 101,-175 101,-175 354.55,-175 354.55,-175"/>
<polygon fill="black" stroke="black" points="354.55,-178.5 364.55,-175 354.55,-171.5 354.55,-178.5"/>
</g>
<!-- PageModule -->
<g id="node3" class="node">
<title>PageModule</title>
<polygon fill="#8dd3c7" stroke="black" points="684.26,-122 681.26,-126 660.26,-126 657.26,-122 597.74,-122 597.74,-86 684.26,-86 684.26,-122"/>
<text text-anchor="middle" x="641" y="-99.8" font-family="Times,serif" font-size="14.00">PageModule</text>
</g>
<!-- PageModule&#45;&gt;ViewerModule -->
<g id="edge2" class="edge">
<title>PageModule&#45;&gt;ViewerModule</title>
<path fill="none" stroke="black" d="M641,-122.28C641,-143.32 641,-175 641,-175 641,-175 475.44,-175 475.44,-175"/>
<polygon fill="black" stroke="black" points="475.44,-171.5 465.44,-175 475.44,-178.5 475.44,-171.5"/>
</g>
<!-- ProfileModule -->
<g id="node4" class="node">
<title>ProfileModule</title>
<polygon fill="#8dd3c7" stroke="black" points="579.65,-122 576.65,-126 555.65,-126 552.65,-122 482.35,-122 482.35,-86 579.65,-86 579.65,-122"/>
<text text-anchor="middle" x="531" y="-99.8" font-family="Times,serif" font-size="14.00">ProfileModule</text>
</g>
<!-- ProfileModule&#45;&gt;ViewerModule -->
<g id="edge3" class="edge">
<title>ProfileModule&#45;&gt;ViewerModule</title>
<path fill="none" stroke="black" d="M531,-122.02C531,-139.37 531,-163 531,-163 531,-163 475.54,-163 475.54,-163"/>
<polygon fill="black" stroke="black" points="475.54,-159.5 465.54,-163 475.54,-166.5 475.54,-159.5"/>
</g>
<!-- ThemeModule -->
<g id="node5" class="node">
<title>ThemeModule</title>
<polygon fill="#8dd3c7" stroke="black" points="464.42,-122 461.42,-126 440.42,-126 437.42,-122 365.58,-122 365.58,-86 464.42,-86 464.42,-122"/>
<text text-anchor="middle" x="415" y="-99.8" font-family="Times,serif" font-size="14.00">ThemeModule</text>
</g>
<!-- ThemeModule&#45;&gt;ViewerModule -->
<g id="edge4" class="edge">
<title>ThemeModule&#45;&gt;ViewerModule</title>
<path fill="none" stroke="black" d="M415,-122.11C415,-122.11 415,-140.99 415,-140.99"/>
<polygon fill="black" stroke="black" points="411.5,-140.99 415,-150.99 418.5,-140.99 411.5,-140.99"/>
</g>
<!-- ViewerRoutingModule -->
<g id="node6" class="node">
<title>ViewerRoutingModule</title>
<polygon fill="#8dd3c7" stroke="black" points="347.86,-122 344.86,-126 323.86,-126 320.86,-122 202.14,-122 202.14,-86 347.86,-86 347.86,-122"/>
<text text-anchor="middle" x="275" y="-99.8" font-family="Times,serif" font-size="14.00">ViewerRoutingModule</text>
</g>
<!-- ViewerRoutingModule&#45;&gt;ViewerModule -->
<g id="edge5" class="edge">
<title>ViewerRoutingModule&#45;&gt;ViewerModule</title>
<path fill="none" stroke="black" d="M275,-122.02C275,-139.37 275,-163 275,-163 275,-163 354.46,-163 354.46,-163"/>
<polygon fill="black" stroke="black" points="354.46,-166.5 364.46,-163 354.46,-159.5 354.46,-166.5"/>
</g>
</g>
</svg>
