<?xml version="1.0" encoding="UTF-8" standalone="no"?>
<!DOCTYPE svg PUBLIC "-//W3C//DTD SVG 1.1//EN"
 "http://www.w3.org/Graphics/SVG/1.1/DTD/svg11.dtd">
<!-- Generated by graphviz version 2.47.0 (20210316.0004)
 -->
<!-- Title: dependencies Pages: 1 -->
<svg width="2998pt" height="284pt"
 viewBox="0.00 0.00 2998.00 284.00" xmlns="http://www.w3.org/2000/svg" xmlns:xlink="http://www.w3.org/1999/xlink">
<g id="graph0" class="graph" transform="scale(1 1) rotate(0) translate(4 280)">
<title>dependencies</title>
<polygon fill="white" stroke="transparent" points="-4,4 -4,-280 2994,-280 2994,4 -4,4"/>
<text text-anchor="start" x="1474.01" y="-42.4" font-family="sans-serif" font-weight="bold" font-size="14.00">Legend</text>
<polygon fill="#ffffb3" stroke="transparent" points="1261,-10 1261,-30 1281,-30 1281,-10 1261,-10"/>
<text text-anchor="start" x="1284.63" y="-15.4" font-family="sans-serif" font-size="14.00"> &#160;Declarations</text>
<polygon fill="#8dd3c7" stroke="transparent" points="1374,-10 1374,-30 1394,-30 1394,-10 1374,-10"/>
<text text-anchor="start" x="1397.73" y="-15.4" font-family="sans-serif" font-size="14.00"> &#160;Module</text>
<polygon fill="#80b1d3" stroke="transparent" points="1460,-10 1460,-30 1480,-30 1480,-10 1460,-10"/>
<text text-anchor="start" x="1483.78" y="-15.4" font-family="sans-serif" font-size="14.00"> &#160;Bootstrap</text>
<polygon fill="#fdb462" stroke="transparent" points="1557,-10 1557,-30 1577,-30 1577,-10 1557,-10"/>
<text text-anchor="start" x="1580.67" y="-15.4" font-family="sans-serif" font-size="14.00"> &#160;Providers</text>
<polygon fill="#fb8072" stroke="transparent" points="1653,-10 1653,-30 1673,-30 1673,-10 1653,-10"/>
<text text-anchor="start" x="1676.73" y="-15.4" font-family="sans-serif" font-size="14.00"> &#160;Exports</text>
<g id="clust1" class="cluster">
<title>cluster_DwBusinessModule</title>
<polygon fill="none" stroke="black" stroke-dasharray="1,5" points="8,-70 8,-268 2982,-268 2982,-70 8,-70"/>
</g>
<g id="clust17" class="cluster">
<title>cluster_DwBusinessModule_providers</title>
<polygon fill="none" stroke="black" points="2756,-78 2756,-130 2974,-130 2974,-78 2756,-78"/>
</g>
<g id="clust2" class="cluster">
<title>cluster_DwBusinessModule_declarations</title>
<polygon fill="none" stroke="black" points="192,-78 192,-130 2748,-130 2748,-78 192,-78"/>
</g>
<g id="clust15" class="cluster">
<title>cluster_DwBusinessModule_exports</title>
<polygon fill="none" stroke="black" points="173,-208 173,-260 2765,-260 2765,-208 173,-208"/>
</g>
<g id="clust14" class="cluster">
<title>cluster_DwBusinessModule_imports</title>
<polygon fill="none" stroke="black" points="16,-78 16,-130 184,-130 184,-78 16,-78"/>
</g>
<!-- DwBusinessComponent -->
<g id="node1" class="node">
<title>DwBusinessComponent</title>
<polygon fill="#ffffb3" stroke="black" points="2739.82,-122 2588.18,-122 2588.18,-86 2739.82,-86 2739.82,-122"/>
<text text-anchor="middle" x="2664" y="-99.8" font-family="Times,serif" font-size="14.00">DwBusinessComponent</text>
</g>
<!-- DwBusinessModule -->
<g id="node12" class="node">
<title>DwBusinessModule</title>
<polygon fill="#8dd3c7" stroke="black" points="1578.54,-187 1575.54,-191 1554.54,-191 1551.54,-187 1449.46,-187 1449.46,-151 1578.54,-151 1578.54,-187"/>
<text text-anchor="middle" x="1514" y="-164.8" font-family="Times,serif" font-size="14.00">DwBusinessModule</text>
</g>
<!-- DwBusinessComponent&#45;&gt;DwBusinessModule -->
<g id="edge1" class="edge">
<title>DwBusinessComponent&#45;&gt;DwBusinessModule</title>
<path fill="none" stroke="black" d="M2595.46,-122.27C2595.46,-140.56 2595.46,-166 2595.46,-166 2595.46,-166 1588.81,-166 1588.81,-166"/>
<polygon fill="black" stroke="black" points="1588.81,-162.5 1578.81,-166 1588.81,-169.5 1588.81,-162.5"/>
</g>
<!-- DwBusinessContentRouterComponent -->
<g id="node2" class="node">
<title>DwBusinessContentRouterComponent</title>
<polygon fill="#ffffb3" stroke="black" points="2569.76,-122 2336.24,-122 2336.24,-86 2569.76,-86 2569.76,-122"/>
<text text-anchor="middle" x="2453" y="-99.8" font-family="Times,serif" font-size="14.00">DwBusinessContentRouterComponent</text>
</g>
<!-- DwBusinessContentRouterComponent&#45;&gt;DwBusinessModule -->
<g id="edge2" class="edge">
<title>DwBusinessContentRouterComponent&#45;&gt;DwBusinessModule</title>
<path fill="none" stroke="black" d="M2341.75,-122.02C2341.75,-139.37 2341.75,-163 2341.75,-163 2341.75,-163 1588.61,-163 1588.61,-163"/>
<polygon fill="black" stroke="black" points="1588.61,-159.5 1578.61,-163 1588.61,-166.5 1588.61,-159.5"/>
</g>
<!-- DwBusinessJobsComponent -->
<g id="node3" class="node">
<title>DwBusinessJobsComponent</title>
<polygon fill="#ffffb3" stroke="black" points="2318.21,-122 2141.79,-122 2141.79,-86 2318.21,-86 2318.21,-122"/>
<text text-anchor="middle" x="2230" y="-99.8" font-family="Times,serif" font-size="14.00">DwBusinessJobsComponent</text>
</g>
<!-- DwBusinessJobsComponent&#45;&gt;DwBusinessModule -->
<g id="edge3" class="edge">
<title>DwBusinessJobsComponent&#45;&gt;DwBusinessModule</title>
<path fill="none" stroke="black" d="M2146.02,-122.03C2146.02,-138.4 2146.02,-160 2146.02,-160 2146.02,-160 1588.67,-160 1588.67,-160"/>
<polygon fill="black" stroke="black" points="1588.67,-156.5 1578.67,-160 1588.67,-163.5 1588.67,-156.5"/>
</g>
<!-- DwBusinessTopMenuWidgetComponent -->
<g id="node4" class="node">
<title>DwBusinessTopMenuWidgetComponent</title>
<polygon fill="#ffffb3" stroke="black" points="2123.74,-122 1876.26,-122 1876.26,-86 2123.74,-86 2123.74,-122"/>
<text text-anchor="middle" x="2000" y="-99.8" font-family="Times,serif" font-size="14.00">DwBusinessTopMenuWidgetComponent</text>
</g>
<!-- DwBusinessTopMenuWidgetComponent&#45;&gt;DwBusinessModule -->
<g id="edge4" class="edge">
<title>DwBusinessTopMenuWidgetComponent&#45;&gt;DwBusinessModule</title>
<path fill="none" stroke="black" d="M2043.04,-122.24C2043.04,-137.57 2043.04,-157 2043.04,-157 2043.04,-157 1588.61,-157 1588.61,-157"/>
<polygon fill="black" stroke="black" points="1588.61,-153.5 1578.61,-157 1588.61,-160.5 1588.61,-153.5"/>
</g>
<!-- DwBussinesJobsWidgetComponent -->
<g id="node5" class="node">
<title>DwBussinesJobsWidgetComponent</title>
<polygon fill="#ffffb3" stroke="black" points="1857.92,-122 1640.08,-122 1640.08,-86 1857.92,-86 1857.92,-122"/>
<text text-anchor="middle" x="1749" y="-99.8" font-family="Times,serif" font-size="14.00">DwBussinesJobsWidgetComponent</text>
</g>
<!-- DwBussinesJobsWidgetComponent&#45;&gt;DwBusinessModule -->
<g id="edge5" class="edge">
<title>DwBussinesJobsWidgetComponent&#45;&gt;DwBusinessModule</title>
<path fill="none" stroke="black" d="M1785.99,-122.05C1785.99,-136.37 1785.99,-154 1785.99,-154 1785.99,-154 1588.8,-154 1588.8,-154"/>
<polygon fill="black" stroke="black" points="1588.8,-150.5 1578.8,-154 1588.8,-157.5 1588.8,-150.5"/>
</g>
<!-- DwBussinessDashboardComponent -->
<g id="node6" class="node">
<title>DwBussinessDashboardComponent</title>
<polygon fill="#ffffb3" stroke="black" points="1622.91,-122 1405.09,-122 1405.09,-86 1622.91,-86 1622.91,-122"/>
<text text-anchor="middle" x="1514" y="-99.8" font-family="Times,serif" font-size="14.00">DwBussinessDashboardComponent</text>
</g>
<!-- DwBussinessDashboardComponent&#45;&gt;DwBusinessModule -->
<g id="edge6" class="edge">
<title>DwBussinessDashboardComponent&#45;&gt;DwBusinessModule</title>
<path fill="none" stroke="black" d="M1514,-122.11C1514,-122.11 1514,-140.99 1514,-140.99"/>
<polygon fill="black" stroke="black" points="1510.5,-140.99 1514,-150.99 1517.5,-140.99 1510.5,-140.99"/>
</g>
<!-- DwCreateBusinessJobComponent -->
<g id="node7" class="node">
<title>DwCreateBusinessJobComponent</title>
<polygon fill="#ffffb3" stroke="black" points="1387.8,-122 1180.2,-122 1180.2,-86 1387.8,-86 1387.8,-122"/>
<text text-anchor="middle" x="1284" y="-99.8" font-family="Times,serif" font-size="14.00">DwCreateBusinessJobComponent</text>
</g>
<!-- DwCreateBusinessJobComponent&#45;&gt;DwBusinessModule -->
<g id="edge7" class="edge">
<title>DwCreateBusinessJobComponent&#45;&gt;DwBusinessModule</title>
<path fill="none" stroke="black" d="M1317.05,-122.05C1317.05,-136.37 1317.05,-154 1317.05,-154 1317.05,-154 1439.24,-154 1439.24,-154"/>
<polygon fill="black" stroke="black" points="1439.24,-157.5 1449.24,-154 1439.24,-150.5 1439.24,-157.5"/>
</g>
<!-- DwEditBusinessJobComponent -->
<g id="node8" class="node">
<title>DwEditBusinessJobComponent</title>
<polygon fill="#ffffb3" stroke="black" points="1162.1,-122 967.9,-122 967.9,-86 1162.1,-86 1162.1,-122"/>
<text text-anchor="middle" x="1065" y="-99.8" font-family="Times,serif" font-size="14.00">DwEditBusinessJobComponent</text>
</g>
<!-- DwEditBusinessJobComponent&#45;&gt;DwBusinessModule -->
<g id="edge8" class="edge">
<title>DwEditBusinessJobComponent&#45;&gt;DwBusinessModule</title>
<path fill="none" stroke="black" d="M1093.85,-122.24C1093.85,-137.57 1093.85,-157 1093.85,-157 1093.85,-157 1439.27,-157 1439.27,-157"/>
<polygon fill="black" stroke="black" points="1439.27,-160.5 1449.27,-157 1439.27,-153.5 1439.27,-160.5"/>
</g>
<!-- DwPageManagerContentContainerComponent -->
<g id="node9" class="node">
<title>DwPageManagerContentContainerComponent</title>
<polygon fill="#ffffb3" stroke="black" points="950.05,-122 671.95,-122 671.95,-86 950.05,-86 950.05,-122"/>
<text text-anchor="middle" x="811" y="-99.8" font-family="Times,serif" font-size="14.00">DwPageManagerContentContainerComponent</text>
</g>
<!-- DwPageManagerContentContainerComponent&#45;&gt;DwBusinessModule -->
<g id="edge9" class="edge">
<title>DwPageManagerContentContainerComponent&#45;&gt;DwBusinessModule</title>
<path fill="none" stroke="black" d="M945.4,-122.03C945.4,-138.4 945.4,-160 945.4,-160 945.4,-160 1439.33,-160 1439.33,-160"/>
<polygon fill="black" stroke="black" points="1439.33,-163.5 1449.33,-160 1439.33,-156.5 1439.33,-163.5"/>
</g>
<!-- DwPageManagerLeftMenuComponent -->
<g id="node10" class="node">
<title>DwPageManagerLeftMenuComponent</title>
<polygon fill="#ffffb3" stroke="black" points="654.48,-122 419.52,-122 419.52,-86 654.48,-86 654.48,-122"/>
<text text-anchor="middle" x="537" y="-99.8" font-family="Times,serif" font-size="14.00">DwPageManagerLeftMenuComponent</text>
</g>
<!-- DwPageManagerLeftMenuComponent&#45;&gt;DwBusinessModule -->
<g id="edge10" class="edge">
<title>DwPageManagerLeftMenuComponent&#45;&gt;DwBusinessModule</title>
<path fill="none" stroke="black" d="M647.62,-122.02C647.62,-139.37 647.62,-163 647.62,-163 647.62,-163 1439.23,-163 1439.23,-163"/>
<polygon fill="black" stroke="black" points="1439.23,-166.5 1449.23,-163 1439.23,-159.5 1439.23,-166.5"/>
</g>
<!-- DwViewBusinessJobComponent -->
<g id="node11" class="node">
<title>DwViewBusinessJobComponent</title>
<polygon fill="#ffffb3" stroke="black" points="401.58,-122 200.42,-122 200.42,-86 401.58,-86 401.58,-122"/>
<text text-anchor="middle" x="301" y="-99.8" font-family="Times,serif" font-size="14.00">DwViewBusinessJobComponent</text>
</g>
<!-- DwViewBusinessJobComponent&#45;&gt;DwBusinessModule -->
<g id="edge11" class="edge">
<title>DwViewBusinessJobComponent&#45;&gt;DwBusinessModule</title>
<path fill="none" stroke="black" d="M393.42,-122.27C393.42,-140.56 393.42,-166 393.42,-166 393.42,-166 1439.32,-166 1439.32,-166"/>
<polygon fill="black" stroke="black" points="1439.32,-169.5 1449.32,-166 1439.32,-162.5 1439.32,-169.5"/>
</g>
<!-- DwBusinessComponent  -->
<g id="node14" class="node">
<title>DwBusinessComponent </title>
<polygon fill="#fb8072" stroke="black" points="2757.32,-252 2602.68,-252 2602.68,-216 2757.32,-216 2757.32,-252"/>
<text text-anchor="middle" x="2680" y="-229.8" font-family="Times,serif" font-size="14.00">DwBusinessComponent </text>
</g>
<!-- DwBusinessModule&#45;&gt;DwBusinessComponent  -->
<g id="edge13" class="edge">
<title>DwBusinessModule&#45;&gt;DwBusinessComponent </title>
<path fill="none" stroke="black" stroke-dasharray="5,2" d="M1578.69,-172C1822.38,-172 2671.12,-172 2671.12,-172 2671.12,-172 2671.12,-205.73 2671.12,-205.73"/>
<polygon fill="black" stroke="black" points="2667.63,-205.73 2671.12,-215.73 2674.63,-205.73 2667.63,-205.73"/>
</g>
<!-- DwBusinessContentRouterComponent  -->
<g id="node15" class="node">
<title>DwBusinessContentRouterComponent </title>
<polygon fill="#fb8072" stroke="black" points="2584.76,-252 2347.24,-252 2347.24,-216 2584.76,-216 2584.76,-252"/>
<text text-anchor="middle" x="2466" y="-229.8" font-family="Times,serif" font-size="14.00">DwBusinessContentRouterComponent </text>
</g>
<!-- DwBusinessModule&#45;&gt;DwBusinessContentRouterComponent  -->
<g id="edge14" class="edge">
<title>DwBusinessModule&#45;&gt;DwBusinessContentRouterComponent </title>
<path fill="none" stroke="black" stroke-dasharray="5,2" d="M1578.56,-175C1791.57,-175 2458.62,-175 2458.62,-175 2458.62,-175 2458.62,-205.98 2458.62,-205.98"/>
<polygon fill="black" stroke="black" points="2455.13,-205.98 2458.62,-215.98 2462.13,-205.98 2455.13,-205.98"/>
</g>
<!-- DwBusinessJobsComponent  -->
<g id="node16" class="node">
<title>DwBusinessJobsComponent </title>
<polygon fill="#fb8072" stroke="black" points="2329.71,-252 2150.29,-252 2150.29,-216 2329.71,-216 2329.71,-252"/>
<text text-anchor="middle" x="2240" y="-229.8" font-family="Times,serif" font-size="14.00">DwBusinessJobsComponent </text>
</g>
<!-- DwBusinessModule&#45;&gt;DwBusinessJobsComponent  -->
<g id="edge15" class="edge">
<title>DwBusinessModule&#45;&gt;DwBusinessJobsComponent </title>
<path fill="none" stroke="black" stroke-dasharray="5,2" d="M1578.54,-178C1755.3,-178 2234.12,-178 2234.12,-178 2234.12,-178 2234.12,-205.97 2234.12,-205.97"/>
<polygon fill="black" stroke="black" points="2230.63,-205.97 2234.12,-215.97 2237.63,-205.97 2230.63,-205.97"/>
</g>
<!-- DwBusinessTopMenuWidgetComponent  -->
<g id="node17" class="node">
<title>DwBusinessTopMenuWidgetComponent </title>
<polygon fill="#fb8072" stroke="black" points="2132.74,-252 1881.26,-252 1881.26,-216 2132.74,-216 2132.74,-252"/>
<text text-anchor="middle" x="2007" y="-229.8" font-family="Times,serif" font-size="14.00">DwBusinessTopMenuWidgetComponent </text>
</g>
<!-- DwBusinessModule&#45;&gt;DwBusinessTopMenuWidgetComponent  -->
<g id="edge16" class="edge">
<title>DwBusinessModule&#45;&gt;DwBusinessTopMenuWidgetComponent </title>
<path fill="none" stroke="black" stroke-dasharray="5,2" d="M1578.69,-181C1702.82,-181 1962.21,-181 1962.21,-181 1962.21,-181 1962.21,-205.76 1962.21,-205.76"/>
<polygon fill="black" stroke="black" points="1958.71,-205.76 1962.21,-215.76 1965.71,-205.76 1958.71,-205.76"/>
</g>
<!-- DwBussinesJobsWidgetComponent  -->
<g id="node18" class="node">
<title>DwBussinesJobsWidgetComponent </title>
<polygon fill="#fb8072" stroke="black" points="1863.42,-252 1642.58,-252 1642.58,-216 1863.42,-216 1863.42,-252"/>
<text text-anchor="middle" x="1753" y="-229.8" font-family="Times,serif" font-size="14.00">DwBussinesJobsWidgetComponent </text>
</g>
<!-- DwBusinessModule&#45;&gt;DwBussinesJobsWidgetComponent  -->
<g id="edge17" class="edge">
<title>DwBusinessModule&#45;&gt;DwBussinesJobsWidgetComponent </title>
<path fill="none" stroke="black" stroke-dasharray="5,2" d="M1578.74,-184C1637.25,-184 1714.26,-184 1714.26,-184 1714.26,-184 1714.26,-205.95 1714.26,-205.95"/>
<polygon fill="black" stroke="black" points="1710.76,-205.95 1714.26,-215.95 1717.76,-205.95 1710.76,-205.95"/>
</g>
<!-- DwBussinessDashboardComponent  -->
<g id="node19" class="node">
<title>DwBussinessDashboardComponent </title>
<polygon fill="#fb8072" stroke="black" points="1624.41,-252 1403.59,-252 1403.59,-216 1624.41,-216 1624.41,-252"/>
<text text-anchor="middle" x="1514" y="-229.8" font-family="Times,serif" font-size="14.00">DwBussinessDashboardComponent </text>
</g>
<!-- DwBusinessModule&#45;&gt;DwBussinessDashboardComponent  -->
<g id="edge18" class="edge">
<title>DwBusinessModule&#45;&gt;DwBussinessDashboardComponent </title>
<path fill="none" stroke="black" stroke-dasharray="5,2" d="M1514,-187.11C1514,-187.11 1514,-205.99 1514,-205.99"/>
<polygon fill="black" stroke="black" points="1510.5,-205.99 1514,-215.99 1517.5,-205.99 1510.5,-205.99"/>
</g>
<!-- DwCreateBusinessJobComponent  -->
<g id="node20" class="node">
<title>DwCreateBusinessJobComponent </title>
<polygon fill="#fb8072" stroke="black" points="1385.3,-252 1174.7,-252 1174.7,-216 1385.3,-216 1385.3,-252"/>
<text text-anchor="middle" x="1280" y="-229.8" font-family="Times,serif" font-size="14.00">DwCreateBusinessJobComponent </text>
</g>
<!-- DwBusinessModule&#45;&gt;DwCreateBusinessJobComponent  -->
<g id="edge19" class="edge">
<title>DwBusinessModule&#45;&gt;DwCreateBusinessJobComponent </title>
<path fill="none" stroke="black" stroke-dasharray="5,2" d="M1449.44,-184C1370.91,-184 1248.7,-184 1248.7,-184 1248.7,-184 1248.7,-205.95 1248.7,-205.95"/>
<polygon fill="black" stroke="black" points="1245.2,-205.95 1248.7,-215.95 1252.2,-205.95 1245.2,-205.95"/>
</g>
<!-- DwEditBusinessJobComponent  -->
<g id="node21" class="node">
<title>DwEditBusinessJobComponent </title>
<polygon fill="#fb8072" stroke="black" points="1156.6,-252 959.4,-252 959.4,-216 1156.6,-216 1156.6,-252"/>
<text text-anchor="middle" x="1058" y="-229.8" font-family="Times,serif" font-size="14.00">DwEditBusinessJobComponent </text>
</g>
<!-- DwBusinessModule&#45;&gt;DwEditBusinessJobComponent  -->
<g id="edge20" class="edge">
<title>DwBusinessModule&#45;&gt;DwEditBusinessJobComponent </title>
<path fill="none" stroke="black" stroke-dasharray="5,2" d="M1449.35,-181C1317.71,-181 1030.9,-181 1030.9,-181 1030.9,-181 1030.9,-205.76 1030.9,-205.76"/>
<polygon fill="black" stroke="black" points="1027.4,-205.76 1030.9,-215.76 1034.4,-205.76 1027.4,-205.76"/>
</g>
<!-- DwPageManagerContentContainerComponent  -->
<g id="node22" class="node">
<title>DwPageManagerContentContainerComponent </title>
<polygon fill="#fb8072" stroke="black" points="940.55,-252 659.45,-252 659.45,-216 940.55,-216 940.55,-252"/>
<text text-anchor="middle" x="800" y="-229.8" font-family="Times,serif" font-size="14.00">DwPageManagerContentContainerComponent </text>
</g>
<!-- DwBusinessModule&#45;&gt;DwPageManagerContentContainerComponent  -->
<g id="edge21" class="edge">
<title>DwBusinessModule&#45;&gt;DwPageManagerContentContainerComponent </title>
<path fill="none" stroke="black" stroke-dasharray="5,2" d="M1449.33,-178C1274.64,-178 806.38,-178 806.38,-178 806.38,-178 806.38,-205.97 806.38,-205.97"/>
<polygon fill="black" stroke="black" points="802.88,-205.97 806.38,-215.97 809.88,-205.97 802.88,-205.97"/>
</g>
<!-- DwPageManagerLeftMenuComponent  -->
<g id="node23" class="node">
<title>DwPageManagerLeftMenuComponent </title>
<polygon fill="#fb8072" stroke="black" points="640.98,-252 403.02,-252 403.02,-216 640.98,-216 640.98,-252"/>
<text text-anchor="middle" x="522" y="-229.8" font-family="Times,serif" font-size="14.00">DwPageManagerLeftMenuComponent </text>
</g>
<!-- DwBusinessModule&#45;&gt;DwPageManagerLeftMenuComponent  -->
<g id="edge22" class="edge">
<title>DwBusinessModule&#45;&gt;DwPageManagerLeftMenuComponent </title>
<path fill="none" stroke="black" stroke-dasharray="5,2" d="M1449.08,-175C1229.82,-175 530.38,-175 530.38,-175 530.38,-175 530.38,-205.98 530.38,-205.98"/>
<polygon fill="black" stroke="black" points="526.88,-205.98 530.38,-215.98 533.88,-205.98 526.88,-205.98"/>
</g>
<!-- DwViewBusinessJobComponent  -->
<g id="node24" class="node">
<title>DwViewBusinessJobComponent </title>
<polygon fill="#fb8072" stroke="black" points="385.08,-252 180.92,-252 180.92,-216 385.08,-216 385.08,-252"/>
<text text-anchor="middle" x="283" y="-229.8" font-family="Times,serif" font-size="14.00">DwViewBusinessJobComponent </text>
</g>
<!-- DwBusinessModule&#45;&gt;DwViewBusinessJobComponent  -->
<g id="edge23" class="edge">
<title>DwBusinessModule&#45;&gt;DwViewBusinessJobComponent </title>
<path fill="none" stroke="black" stroke-dasharray="5,2" d="M1449.21,-172C1196.76,-172 292.88,-172 292.88,-172 292.88,-172 292.88,-205.73 292.88,-205.73"/>
<polygon fill="black" stroke="black" points="289.38,-205.73 292.88,-215.73 296.38,-205.73 289.38,-205.73"/>
</g>
<!-- DaywakaThemeModule -->
<g id="node13" class="node">
<title>DaywakaThemeModule</title>
<polygon fill="#8dd3c7" stroke="black" points="175.78,-122 172.78,-126 151.78,-126 148.78,-122 24.22,-122 24.22,-86 175.78,-86 175.78,-122"/>
<text text-anchor="middle" x="100" y="-99.8" font-family="Times,serif" font-size="14.00">DaywakaThemeModule</text>
</g>
<!-- DaywakaThemeModule&#45;&gt;DwBusinessModule -->
<g id="edge12" class="edge">
<title>DaywakaThemeModule&#45;&gt;DwBusinessModule</title>
<path fill="none" stroke="black" d="M100,-122.11C100,-141.34 100,-169 100,-169 100,-169 1439.1,-169 1439.1,-169"/>
<polygon fill="black" stroke="black" points="1439.1,-172.5 1449.1,-169 1439.1,-165.5 1439.1,-172.5"/>
</g>
<!-- DwPageViewerService -->
<g id="node25" class="node">
<title>DwPageViewerService</title>
<ellipse fill="#fdb462" stroke="black" cx="2865" cy="-104" rx="101.24" ry="18"/>
<text text-anchor="middle" x="2865" y="-99.8" font-family="Times,serif" font-size="14.00">DwPageViewerService</text>
</g>
<!-- DwPageViewerService&#45;&gt;DwBusinessModule -->
<g id="edge24" class="edge">
<title>DwPageViewerService&#45;&gt;DwBusinessModule</title>
<path fill="none" stroke="black" d="M2865,-122.11C2865,-141.34 2865,-169 2865,-169 2865,-169 1588.71,-169 1588.71,-169"/>
<polygon fill="black" stroke="black" points="1588.71,-165.5 1578.71,-169 1588.71,-172.5 1588.71,-165.5"/>
</g>
</g>
</svg>
