<?xml version="1.0" encoding="UTF-8" standalone="no"?>
<!DOCTYPE svg PUBLIC "-//W3C//DTD SVG 1.1//EN"
 "http://www.w3.org/Graphics/SVG/1.1/DTD/svg11.dtd">
<!-- Generated by graphviz version 2.47.0 (20210316.0004)
 -->
<!-- Title: dependencies Pages: 1 -->
<svg width="786pt" height="211pt"
 viewBox="0.00 0.00 786.00 211.00" xmlns="http://www.w3.org/2000/svg" xmlns:xlink="http://www.w3.org/1999/xlink">
<g id="graph0" class="graph" transform="scale(1 1) rotate(0) translate(4 207)">
<title>dependencies</title>
<polygon fill="white" stroke="transparent" points="-4,4 -4,-207 782,-207 782,4 -4,4"/>
<text text-anchor="start" x="368.01" y="-42.4" font-family="sans-serif" font-weight="bold" font-size="14.00">Legend</text>
<polygon fill="#ffffb3" stroke="transparent" points="155,-10 155,-30 175,-30 175,-10 155,-10"/>
<text text-anchor="start" x="178.63" y="-15.4" font-family="sans-serif" font-size="14.00"> &#160;Declarations</text>
<polygon fill="#8dd3c7" stroke="transparent" points="268,-10 268,-30 288,-30 288,-10 268,-10"/>
<text text-anchor="start" x="291.73" y="-15.4" font-family="sans-serif" font-size="14.00"> &#160;Module</text>
<polygon fill="#80b1d3" stroke="transparent" points="354,-10 354,-30 374,-30 374,-10 354,-10"/>
<text text-anchor="start" x="377.78" y="-15.4" font-family="sans-serif" font-size="14.00"> &#160;Bootstrap</text>
<polygon fill="#fdb462" stroke="transparent" points="451,-10 451,-30 471,-30 471,-10 451,-10"/>
<text text-anchor="start" x="474.67" y="-15.4" font-family="sans-serif" font-size="14.00"> &#160;Providers</text>
<polygon fill="#fb8072" stroke="transparent" points="547,-10 547,-30 567,-30 567,-10 547,-10"/>
<text text-anchor="start" x="570.73" y="-15.4" font-family="sans-serif" font-size="14.00"> &#160;Exports</text>
<g id="clust1" class="cluster">
<title>cluster_ContactsModule</title>
<polygon fill="none" stroke="black" stroke-dasharray="1,5" points="8,-70 8,-195 770,-195 770,-70 8,-70"/>
</g>
<g id="clust2" class="cluster">
<title>cluster_ContactsModule_declarations</title>
<polygon fill="none" stroke="black" points="592,-78 592,-130 762,-130 762,-78 592,-78"/>
</g>
<g id="clust4" class="cluster">
<title>cluster_ContactsModule_imports</title>
<polygon fill="none" stroke="black" points="16,-78 16,-130 584,-130 584,-78 16,-78"/>
</g>
<!-- AdsManagerComponent -->
<g id="node1" class="node">
<title>AdsManagerComponent</title>
<polygon fill="#ffffb3" stroke="black" points="753.63,-122 600.37,-122 600.37,-86 753.63,-86 753.63,-122"/>
<text text-anchor="middle" x="677" y="-99.8" font-family="Times,serif" font-size="14.00">AdsManagerComponent</text>
</g>
<!-- ContactsModule -->
<g id="node2" class="node">
<title>ContactsModule</title>
<polygon fill="#8dd3c7" stroke="black" points="409.04,-187 406.04,-191 385.04,-191 382.04,-187 300.96,-187 300.96,-151 409.04,-151 409.04,-187"/>
<text text-anchor="middle" x="355" y="-164.8" font-family="Times,serif" font-size="14.00">ContactsModule</text>
</g>
<!-- AdsManagerComponent&#45;&gt;ContactsModule -->
<g id="edge1" class="edge">
<title>AdsManagerComponent&#45;&gt;ContactsModule</title>
<path fill="none" stroke="black" d="M677,-122.28C677,-143.32 677,-175 677,-175 677,-175 419.26,-175 419.26,-175"/>
<polygon fill="black" stroke="black" points="419.26,-171.5 409.26,-175 419.26,-178.5 419.26,-171.5"/>
</g>
<!-- ContactsRoutingModule -->
<g id="node3" class="node">
<title>ContactsRoutingModule</title>
<polygon fill="#8dd3c7" stroke="black" points="575.66,-122 572.66,-126 551.66,-126 548.66,-122 422.34,-122 422.34,-86 575.66,-86 575.66,-122"/>
<text text-anchor="middle" x="499" y="-99.8" font-family="Times,serif" font-size="14.00">ContactsRoutingModule</text>
</g>
<!-- ContactsRoutingModule&#45;&gt;ContactsModule -->
<g id="edge2" class="edge">
<title>ContactsRoutingModule&#45;&gt;ContactsModule</title>
<path fill="none" stroke="black" d="M499,-122.02C499,-139.37 499,-163 499,-163 499,-163 419.44,-163 419.44,-163"/>
<polygon fill="black" stroke="black" points="419.44,-159.5 409.44,-163 419.44,-166.5 419.44,-159.5"/>
</g>
<!-- ThemeModule -->
<g id="node4" class="node">
<title>ThemeModule</title>
<polygon fill="#8dd3c7" stroke="black" points="404.42,-122 401.42,-126 380.42,-126 377.42,-122 305.58,-122 305.58,-86 404.42,-86 404.42,-122"/>
<text text-anchor="middle" x="355" y="-99.8" font-family="Times,serif" font-size="14.00">ThemeModule</text>
</g>
<!-- ThemeModule&#45;&gt;ContactsModule -->
<g id="edge3" class="edge">
<title>ThemeModule&#45;&gt;ContactsModule</title>
<path fill="none" stroke="black" d="M355,-122.11C355,-122.11 355,-140.99 355,-140.99"/>
<polygon fill="black" stroke="black" points="351.5,-140.99 355,-150.99 358.5,-140.99 351.5,-140.99"/>
</g>
<!-- WfHoverCardModule -->
<g id="node5" class="node">
<title>WfHoverCardModule</title>
<polygon fill="#8dd3c7" stroke="black" points="287.62,-122 284.62,-126 263.62,-126 260.62,-122 148.38,-122 148.38,-86 287.62,-86 287.62,-122"/>
<text text-anchor="middle" x="218" y="-99.8" font-family="Times,serif" font-size="14.00">WfHoverCardModule</text>
</g>
<!-- WfHoverCardModule&#45;&gt;ContactsModule -->
<g id="edge4" class="edge">
<title>WfHoverCardModule&#45;&gt;ContactsModule</title>
<path fill="none" stroke="black" d="M218,-122.02C218,-139.37 218,-163 218,-163 218,-163 290.85,-163 290.85,-163"/>
<polygon fill="black" stroke="black" points="290.85,-166.5 300.85,-163 290.85,-159.5 290.85,-166.5"/>
</g>
<!-- WidgetsModule -->
<g id="node6" class="node">
<title>WidgetsModule</title>
<polygon fill="#8dd3c7" stroke="black" points="130.2,-122 127.2,-126 106.2,-126 103.2,-122 23.8,-122 23.8,-86 130.2,-86 130.2,-122"/>
<text text-anchor="middle" x="77" y="-99.8" font-family="Times,serif" font-size="14.00">WidgetsModule</text>
</g>
<!-- WidgetsModule&#45;&gt;ContactsModule -->
<g id="edge5" class="edge">
<title>WidgetsModule&#45;&gt;ContactsModule</title>
<path fill="none" stroke="black" d="M77,-122.28C77,-143.32 77,-175 77,-175 77,-175 290.74,-175 290.74,-175"/>
<polygon fill="black" stroke="black" points="290.74,-178.5 300.74,-175 290.74,-171.5 290.74,-178.5"/>
</g>
</g>
</svg>
