<?xml version="1.0" encoding="UTF-8" standalone="no"?>
<!DOCTYPE svg PUBLIC "-//W3C//DTD SVG 1.1//EN"
 "http://www.w3.org/Graphics/SVG/1.1/DTD/svg11.dtd">
<!-- Generated by graphviz version 2.47.0 (20210316.0004)
 -->
<!-- Title: dependencies Pages: 1 -->
<svg width="1352pt" height="284pt"
 viewBox="0.00 0.00 1352.00 284.00" xmlns="http://www.w3.org/2000/svg" xmlns:xlink="http://www.w3.org/1999/xlink">
<g id="graph0" class="graph" transform="scale(1 1) rotate(0) translate(4 280)">
<title>dependencies</title>
<polygon fill="white" stroke="transparent" points="-4,4 -4,-280 1348,-280 1348,4 -4,4"/>
<text text-anchor="start" x="651.01" y="-42.4" font-family="sans-serif" font-weight="bold" font-size="14.00">Legend</text>
<polygon fill="#ffffb3" stroke="transparent" points="438,-10 438,-30 458,-30 458,-10 438,-10"/>
<text text-anchor="start" x="461.63" y="-15.4" font-family="sans-serif" font-size="14.00"> &#160;Declarations</text>
<polygon fill="#8dd3c7" stroke="transparent" points="551,-10 551,-30 571,-30 571,-10 551,-10"/>
<text text-anchor="start" x="574.73" y="-15.4" font-family="sans-serif" font-size="14.00"> &#160;Module</text>
<polygon fill="#80b1d3" stroke="transparent" points="637,-10 637,-30 657,-30 657,-10 637,-10"/>
<text text-anchor="start" x="660.78" y="-15.4" font-family="sans-serif" font-size="14.00"> &#160;Bootstrap</text>
<polygon fill="#fdb462" stroke="transparent" points="734,-10 734,-30 754,-30 754,-10 734,-10"/>
<text text-anchor="start" x="757.67" y="-15.4" font-family="sans-serif" font-size="14.00"> &#160;Providers</text>
<polygon fill="#fb8072" stroke="transparent" points="830,-10 830,-30 850,-30 850,-10 830,-10"/>
<text text-anchor="start" x="853.73" y="-15.4" font-family="sans-serif" font-size="14.00"> &#160;Exports</text>
<g id="clust1" class="cluster">
<title>cluster_AuthModule</title>
<polygon fill="none" stroke="black" stroke-dasharray="1,5" points="8,-70 8,-268 1336,-268 1336,-70 8,-70"/>
</g>
<g id="clust2" class="cluster">
<title>cluster_AuthModule_declarations</title>
<polygon fill="none" stroke="black" points="16,-78 16,-130 1328,-130 1328,-78 16,-78"/>
</g>
<g id="clust11" class="cluster">
<title>cluster_AuthModule_exports</title>
<polygon fill="none" stroke="black" points="80,-208 80,-260 1265,-260 1265,-208 80,-208"/>
</g>
<!-- AuthChangePasswordComponent -->
<g id="node1" class="node">
<title>AuthChangePasswordComponent</title>
<polygon fill="#ffffb3" stroke="black" points="1319.75,-122 1114.25,-122 1114.25,-86 1319.75,-86 1319.75,-122"/>
<text text-anchor="middle" x="1217" y="-99.8" font-family="Times,serif" font-size="14.00">AuthChangePasswordComponent</text>
</g>
<!-- AuthModule -->
<g id="node8" class="node">
<title>AuthModule</title>
<polygon fill="#8dd3c7" stroke="black" points="733.55,-187 730.55,-191 709.55,-191 706.55,-187 646.45,-187 646.45,-151 733.55,-151 733.55,-187"/>
<text text-anchor="middle" x="690" y="-164.8" font-family="Times,serif" font-size="14.00">AuthModule</text>
</g>
<!-- AuthChangePasswordComponent&#45;&gt;AuthModule -->
<g id="edge1" class="edge">
<title>AuthChangePasswordComponent&#45;&gt;AuthModule</title>
<path fill="none" stroke="black" d="M1185.38,-122.11C1185.38,-141.34 1185.38,-169 1185.38,-169 1185.38,-169 743.96,-169 743.96,-169"/>
<polygon fill="black" stroke="black" points="743.96,-165.5 733.96,-169 743.96,-172.5 743.96,-165.5"/>
</g>
<!-- AuthLoginComponent -->
<g id="node2" class="node">
<title>AuthLoginComponent</title>
<polygon fill="#ffffb3" stroke="black" points="1096.27,-122 953.73,-122 953.73,-86 1096.27,-86 1096.27,-122"/>
<text text-anchor="middle" x="1025" y="-99.8" font-family="Times,serif" font-size="14.00">AuthLoginComponent</text>
</g>
<!-- AuthLoginComponent&#45;&gt;AuthModule -->
<g id="edge2" class="edge">
<title>AuthLoginComponent&#45;&gt;AuthModule</title>
<path fill="none" stroke="black" d="M991.38,-122.02C991.38,-139.37 991.38,-163 991.38,-163 991.38,-163 743.82,-163 743.82,-163"/>
<polygon fill="black" stroke="black" points="743.82,-159.5 733.82,-163 743.82,-166.5 743.82,-159.5"/>
</g>
<!-- AuthLogoutComponent -->
<g id="node3" class="node">
<title>AuthLogoutComponent</title>
<polygon fill="#ffffb3" stroke="black" points="935.77,-122 786.23,-122 786.23,-86 935.77,-86 935.77,-122"/>
<text text-anchor="middle" x="861" y="-99.8" font-family="Times,serif" font-size="14.00">AuthLogoutComponent</text>
</g>
<!-- AuthLogoutComponent&#45;&gt;AuthModule -->
<g id="edge3" class="edge">
<title>AuthLogoutComponent&#45;&gt;AuthModule</title>
<path fill="none" stroke="black" d="M825.38,-122.24C825.38,-137.57 825.38,-157 825.38,-157 825.38,-157 743.58,-157 743.58,-157"/>
<polygon fill="black" stroke="black" points="743.58,-153.5 733.58,-157 743.58,-160.5 743.58,-153.5"/>
</g>
<!-- AuthRegisterComponent -->
<g id="node4" class="node">
<title>AuthRegisterComponent</title>
<polygon fill="#ffffb3" stroke="black" points="767.98,-122 612.02,-122 612.02,-86 767.98,-86 767.98,-122"/>
<text text-anchor="middle" x="690" y="-99.8" font-family="Times,serif" font-size="14.00">AuthRegisterComponent</text>
</g>
<!-- AuthRegisterComponent&#45;&gt;AuthModule -->
<g id="edge4" class="edge">
<title>AuthRegisterComponent&#45;&gt;AuthModule</title>
<path fill="none" stroke="black" d="M690,-122.11C690,-122.11 690,-140.99 690,-140.99"/>
<polygon fill="black" stroke="black" points="686.5,-140.99 690,-150.99 693.5,-140.99 686.5,-140.99"/>
</g>
<!-- AuthRequestPasswordComponent -->
<g id="node5" class="node">
<title>AuthRequestPasswordComponent</title>
<polygon fill="#ffffb3" stroke="black" points="594.08,-122 385.92,-122 385.92,-86 594.08,-86 594.08,-122"/>
<text text-anchor="middle" x="490" y="-99.8" font-family="Times,serif" font-size="14.00">AuthRequestPasswordComponent</text>
</g>
<!-- AuthRequestPasswordComponent&#45;&gt;AuthModule -->
<g id="edge5" class="edge">
<title>AuthRequestPasswordComponent&#45;&gt;AuthModule</title>
<path fill="none" stroke="black" d="M564.15,-122.24C564.15,-137.57 564.15,-157 564.15,-157 564.15,-157 636.34,-157 636.34,-157"/>
<polygon fill="black" stroke="black" points="636.34,-160.5 646.34,-157 636.34,-153.5 636.34,-160.5"/>
</g>
<!-- AuthResetPasswordComponent -->
<g id="node6" class="node">
<title>AuthResetPasswordComponent</title>
<polygon fill="#ffffb3" stroke="black" points="368.08,-122 173.92,-122 173.92,-86 368.08,-86 368.08,-122"/>
<text text-anchor="middle" x="271" y="-99.8" font-family="Times,serif" font-size="14.00">AuthResetPasswordComponent</text>
</g>
<!-- AuthResetPasswordComponent&#45;&gt;AuthModule -->
<g id="edge6" class="edge">
<title>AuthResetPasswordComponent&#45;&gt;AuthModule</title>
<path fill="none" stroke="black" d="M336.12,-122.02C336.12,-139.37 336.12,-163 336.12,-163 336.12,-163 636.25,-163 636.25,-163"/>
<polygon fill="black" stroke="black" points="636.25,-166.5 646.25,-163 636.25,-159.5 636.25,-166.5"/>
</g>
<!-- MustMatchDirective -->
<g id="node7" class="node">
<title>MustMatchDirective</title>
<polygon fill="#ffffb3" stroke="black" points="156.13,-122 23.87,-122 23.87,-86 156.13,-86 156.13,-122"/>
<text text-anchor="middle" x="90" y="-99.8" font-family="Times,serif" font-size="14.00">MustMatchDirective</text>
</g>
<!-- MustMatchDirective&#45;&gt;AuthModule -->
<g id="edge7" class="edge">
<title>MustMatchDirective&#45;&gt;AuthModule</title>
<path fill="none" stroke="black" d="M122.26,-122.11C122.26,-141.34 122.26,-169 122.26,-169 122.26,-169 636.39,-169 636.39,-169"/>
<polygon fill="black" stroke="black" points="636.39,-172.5 646.39,-169 636.39,-165.5 636.39,-172.5"/>
</g>
<!-- AuthChangePasswordComponent  -->
<g id="node9" class="node">
<title>AuthChangePasswordComponent </title>
<polygon fill="#fb8072" stroke="black" points="1256.75,-252 1047.25,-252 1047.25,-216 1256.75,-216 1256.75,-252"/>
<text text-anchor="middle" x="1152" y="-229.8" font-family="Times,serif" font-size="14.00">AuthChangePasswordComponent </text>
</g>
<!-- AuthModule&#45;&gt;AuthChangePasswordComponent  -->
<g id="edge8" class="edge">
<title>AuthModule&#45;&gt;AuthChangePasswordComponent </title>
<path fill="none" stroke="black" stroke-dasharray="5,2" d="M733.81,-175C834.11,-175 1071.88,-175 1071.88,-175 1071.88,-175 1071.88,-205.98 1071.88,-205.98"/>
<polygon fill="black" stroke="black" points="1068.38,-205.98 1071.88,-215.98 1075.38,-205.98 1068.38,-205.98"/>
</g>
<!-- AuthLoginComponent  -->
<g id="node10" class="node">
<title>AuthLoginComponent </title>
<polygon fill="#fb8072" stroke="black" points="1029.27,-252 882.73,-252 882.73,-216 1029.27,-216 1029.27,-252"/>
<text text-anchor="middle" x="956" y="-229.8" font-family="Times,serif" font-size="14.00">AuthLoginComponent </text>
</g>
<!-- AuthModule&#45;&gt;AuthLoginComponent  -->
<g id="edge9" class="edge">
<title>AuthModule&#45;&gt;AuthLoginComponent </title>
<path fill="none" stroke="black" stroke-dasharray="5,2" d="M733.6,-181C797.58,-181 909.38,-181 909.38,-181 909.38,-181 909.38,-205.76 909.38,-205.76"/>
<polygon fill="black" stroke="black" points="905.88,-205.76 909.38,-215.76 912.88,-205.76 905.88,-205.76"/>
</g>
<!-- AuthLogoutComponent  -->
<g id="node11" class="node">
<title>AuthLogoutComponent </title>
<polygon fill="#fb8072" stroke="black" points="864.77,-252 711.23,-252 711.23,-216 864.77,-216 864.77,-252"/>
<text text-anchor="middle" x="788" y="-229.8" font-family="Times,serif" font-size="14.00">AuthLogoutComponent </text>
</g>
<!-- AuthModule&#45;&gt;AuthLogoutComponent  -->
<g id="edge10" class="edge">
<title>AuthModule&#45;&gt;AuthLogoutComponent </title>
<path fill="none" stroke="black" stroke-dasharray="5,2" d="M722.57,-187.11C722.57,-187.11 722.57,-205.99 722.57,-205.99"/>
<polygon fill="black" stroke="black" points="719.07,-205.99 722.57,-215.99 726.07,-205.99 719.07,-205.99"/>
</g>
<!-- AuthRegisterComponent  -->
<g id="node12" class="node">
<title>AuthRegisterComponent </title>
<polygon fill="#fb8072" stroke="black" points="693.98,-252 534.02,-252 534.02,-216 693.98,-216 693.98,-252"/>
<text text-anchor="middle" x="614" y="-229.8" font-family="Times,serif" font-size="14.00">AuthRegisterComponent </text>
</g>
<!-- AuthModule&#45;&gt;AuthRegisterComponent  -->
<g id="edge11" class="edge">
<title>AuthModule&#45;&gt;AuthRegisterComponent </title>
<path fill="none" stroke="black" stroke-dasharray="5,2" d="M669.98,-187.11C669.98,-187.11 669.98,-205.99 669.98,-205.99"/>
<polygon fill="black" stroke="black" points="666.48,-205.99 669.98,-215.99 673.48,-205.99 666.48,-205.99"/>
</g>
<!-- AuthRequestPasswordComponent  -->
<g id="node13" class="node">
<title>AuthRequestPasswordComponent </title>
<polygon fill="#fb8072" stroke="black" points="515.58,-252 304.42,-252 304.42,-216 515.58,-216 515.58,-252"/>
<text text-anchor="middle" x="410" y="-229.8" font-family="Times,serif" font-size="14.00">AuthRequestPasswordComponent </text>
</g>
<!-- AuthModule&#45;&gt;AuthRequestPasswordComponent  -->
<g id="edge12" class="edge">
<title>AuthModule&#45;&gt;AuthRequestPasswordComponent </title>
<path fill="none" stroke="black" stroke-dasharray="5,2" d="M646.42,-181C577.45,-181 450.88,-181 450.88,-181 450.88,-181 450.88,-205.76 450.88,-205.76"/>
<polygon fill="black" stroke="black" points="447.38,-205.76 450.88,-215.76 454.38,-205.76 447.38,-205.76"/>
</g>
<!-- AuthResetPasswordComponent  -->
<g id="node14" class="node">
<title>AuthResetPasswordComponent </title>
<polygon fill="#fb8072" stroke="black" points="285.58,-252 88.42,-252 88.42,-216 285.58,-216 285.58,-252"/>
<text text-anchor="middle" x="187" y="-229.8" font-family="Times,serif" font-size="14.00">AuthResetPasswordComponent </text>
</g>
<!-- AuthModule&#45;&gt;AuthResetPasswordComponent  -->
<g id="edge13" class="edge">
<title>AuthModule&#45;&gt;AuthResetPasswordComponent </title>
<path fill="none" stroke="black" stroke-dasharray="5,2" d="M646.3,-175C531.44,-175 229.88,-175 229.88,-175 229.88,-175 229.88,-205.98 229.88,-205.98"/>
<polygon fill="black" stroke="black" points="226.38,-205.98 229.88,-215.98 233.38,-205.98 226.38,-205.98"/>
</g>
</g>
</svg>
