<?xml version="1.0" encoding="UTF-8" standalone="no"?>
<!DOCTYPE svg PUBLIC "-//W3C//DTD SVG 1.1//EN"
 "http://www.w3.org/Graphics/SVG/1.1/DTD/svg11.dtd">
<!-- Generated by graphviz version 2.47.0 (20210316.0004)
 -->
<!-- Title: dependencies Pages: 1 -->
<svg width="4223pt" height="284pt"
 viewBox="0.00 0.00 4223.00 284.00" xmlns="http://www.w3.org/2000/svg" xmlns:xlink="http://www.w3.org/1999/xlink">
<g id="graph0" class="graph" transform="scale(1 1) rotate(0) translate(4 280)">
<title>dependencies</title>
<polygon fill="white" stroke="transparent" points="-4,4 -4,-280 4219,-280 4219,4 -4,4"/>
<text text-anchor="start" x="2086.51" y="-42.4" font-family="sans-serif" font-weight="bold" font-size="14.00">Legend</text>
<polygon fill="#ffffb3" stroke="transparent" points="1873.5,-10 1873.5,-30 1893.5,-30 1893.5,-10 1873.5,-10"/>
<text text-anchor="start" x="1897.13" y="-15.4" font-family="sans-serif" font-size="14.00"> &#160;Declarations</text>
<polygon fill="#8dd3c7" stroke="transparent" points="1986.5,-10 1986.5,-30 2006.5,-30 2006.5,-10 1986.5,-10"/>
<text text-anchor="start" x="2010.23" y="-15.4" font-family="sans-serif" font-size="14.00"> &#160;Module</text>
<polygon fill="#80b1d3" stroke="transparent" points="2072.5,-10 2072.5,-30 2092.5,-30 2092.5,-10 2072.5,-10"/>
<text text-anchor="start" x="2096.28" y="-15.4" font-family="sans-serif" font-size="14.00"> &#160;Bootstrap</text>
<polygon fill="#fdb462" stroke="transparent" points="2169.5,-10 2169.5,-30 2189.5,-30 2189.5,-10 2169.5,-10"/>
<text text-anchor="start" x="2193.17" y="-15.4" font-family="sans-serif" font-size="14.00"> &#160;Providers</text>
<polygon fill="#fb8072" stroke="transparent" points="2265.5,-10 2265.5,-30 2285.5,-30 2285.5,-10 2265.5,-10"/>
<text text-anchor="start" x="2289.23" y="-15.4" font-family="sans-serif" font-size="14.00"> &#160;Exports</text>
<g id="clust1" class="cluster">
<title>cluster_MessagesModule</title>
<polygon fill="none" stroke="black" stroke-dasharray="1,5" points="8,-70 8,-268 4207,-268 4207,-70 8,-70"/>
</g>
<g id="clust2" class="cluster">
<title>cluster_MessagesModule_declarations</title>
<polygon fill="none" stroke="black" points="622,-78 622,-130 4199,-130 4199,-78 622,-78"/>
</g>
<g id="clust19" class="cluster">
<title>cluster_MessagesModule_exports</title>
<polygon fill="none" stroke="black" points="667,-208 667,-260 3331,-260 3331,-208 667,-208"/>
</g>
<g id="clust18" class="cluster">
<title>cluster_MessagesModule_imports</title>
<polygon fill="none" stroke="black" points="16,-78 16,-130 614,-130 614,-78 16,-78"/>
</g>
<!-- AdsManagerComponent -->
<g id="node1" class="node">
<title>AdsManagerComponent</title>
<polygon fill="#ffffb3" stroke="black" points="4190.63,-122 4037.37,-122 4037.37,-86 4190.63,-86 4190.63,-122"/>
<text text-anchor="middle" x="4114" y="-99.8" font-family="Times,serif" font-size="14.00">AdsManagerComponent</text>
</g>
<!-- MessagesModule -->
<g id="node16" class="node">
<title>MessagesModule</title>
<polygon fill="#8dd3c7" stroke="black" points="2068.97,-187 2065.97,-191 2044.97,-191 2041.97,-187 1955.03,-187 1955.03,-151 2068.97,-151 2068.97,-187"/>
<text text-anchor="middle" x="2012" y="-164.8" font-family="Times,serif" font-size="14.00">MessagesModule</text>
</g>
<!-- AdsManagerComponent&#45;&gt;MessagesModule -->
<g id="edge1" class="edge">
<title>AdsManagerComponent&#45;&gt;MessagesModule</title>
<path fill="none" stroke="black" d="M4114,-122.13C4114,-142.57 4114,-173 4114,-173 4114,-173 2079.04,-173 2079.04,-173"/>
<polygon fill="black" stroke="black" points="2079.04,-169.5 2069.04,-173 2079.04,-176.5 2079.04,-169.5"/>
</g>
<!-- ChatFormWidgetComponent -->
<g id="node2" class="node">
<title>ChatFormWidgetComponent</title>
<polygon fill="#ffffb3" stroke="black" points="4019.82,-122 3840.18,-122 3840.18,-86 4019.82,-86 4019.82,-122"/>
<text text-anchor="middle" x="3930" y="-99.8" font-family="Times,serif" font-size="14.00">ChatFormWidgetComponent</text>
</g>
<!-- ChatFormWidgetComponent&#45;&gt;MessagesModule -->
<g id="edge2" class="edge">
<title>ChatFormWidgetComponent&#45;&gt;MessagesModule</title>
<path fill="none" stroke="black" d="M3930,-122.31C3930,-142.15 3930,-171 3930,-171 3930,-171 2079.14,-171 2079.14,-171"/>
<polygon fill="black" stroke="black" points="2079.14,-167.5 2069.14,-171 2079.14,-174.5 2079.14,-167.5"/>
</g>
<!-- ChatRoomsMobileHeadWidgetComponent -->
<g id="node3" class="node">
<title>ChatRoomsMobileHeadWidgetComponent</title>
<polygon fill="#ffffb3" stroke="black" points="3822.13,-122 3563.87,-122 3563.87,-86 3822.13,-86 3822.13,-122"/>
<text text-anchor="middle" x="3693" y="-99.8" font-family="Times,serif" font-size="14.00">ChatRoomsMobileHeadWidgetComponent</text>
</g>
<!-- ChatRoomsMobileHeadWidgetComponent&#45;&gt;MessagesModule -->
<g id="edge3" class="edge">
<title>ChatRoomsMobileHeadWidgetComponent&#45;&gt;MessagesModule</title>
<path fill="none" stroke="black" d="M3693,-122.17C3693,-141.09 3693,-168 3693,-168 3693,-168 2079.38,-168 2079.38,-168"/>
<polygon fill="black" stroke="black" points="2079.38,-164.5 2069.38,-168 2079.38,-171.5 2079.38,-164.5"/>
</g>
<!-- ChatRoomsRoomWidgetComponent -->
<g id="node4" class="node">
<title>ChatRoomsRoomWidgetComponent</title>
<polygon fill="#ffffb3" stroke="black" points="3545.38,-122 3322.62,-122 3322.62,-86 3545.38,-86 3545.38,-122"/>
<text text-anchor="middle" x="3434" y="-99.8" font-family="Times,serif" font-size="14.00">ChatRoomsRoomWidgetComponent</text>
</g>
<!-- ChatRoomsRoomWidgetComponent&#45;&gt;MessagesModule -->
<g id="edge4" class="edge">
<title>ChatRoomsRoomWidgetComponent&#45;&gt;MessagesModule</title>
<path fill="none" stroke="black" d="M3434.43,-122.27C3434.43,-140.56 3434.43,-166 3434.43,-166 3434.43,-166 2079.08,-166 2079.08,-166"/>
<polygon fill="black" stroke="black" points="2079.08,-162.5 2069.08,-166 2079.08,-169.5 2079.08,-162.5"/>
</g>
<!-- ChatRoomsWidgetComponent -->
<g id="node5" class="node">
<title>ChatRoomsWidgetComponent</title>
<polygon fill="#ffffb3" stroke="black" points="3304.16,-122 3115.84,-122 3115.84,-86 3304.16,-86 3304.16,-122"/>
<text text-anchor="middle" x="3210" y="-99.8" font-family="Times,serif" font-size="14.00">ChatRoomsWidgetComponent</text>
</g>
<!-- ChatRoomsWidgetComponent&#45;&gt;MessagesModule -->
<g id="edge5" class="edge">
<title>ChatRoomsWidgetComponent&#45;&gt;MessagesModule</title>
<path fill="none" stroke="black" d="M3119.37,-122.02C3119.37,-139.37 3119.37,-163 3119.37,-163 3119.37,-163 2079.21,-163 2079.21,-163"/>
<polygon fill="black" stroke="black" points="2079.21,-159.5 2069.21,-163 2079.21,-166.5 2079.21,-159.5"/>
</g>
<!-- ChatSearchPeopleWidgetComponent -->
<g id="node6" class="node">
<title>ChatSearchPeopleWidgetComponent</title>
<polygon fill="#ffffb3" stroke="black" points="3097.67,-122 2872.33,-122 2872.33,-86 3097.67,-86 3097.67,-122"/>
<text text-anchor="middle" x="2985" y="-99.8" font-family="Times,serif" font-size="14.00">ChatSearchPeopleWidgetComponent</text>
</g>
<!-- ChatSearchPeopleWidgetComponent&#45;&gt;MessagesModule -->
<g id="edge6" class="edge">
<title>ChatSearchPeopleWidgetComponent&#45;&gt;MessagesModule</title>
<path fill="none" stroke="black" d="M2985,-122.04C2985,-138.73 2985,-161 2985,-161 2985,-161 2079.23,-161 2079.23,-161"/>
<polygon fill="black" stroke="black" points="2079.23,-157.5 2069.23,-161 2079.23,-164.5 2079.23,-157.5"/>
</g>
<!-- ChatThreadHeadWidgetComponent -->
<g id="node7" class="node">
<title>ChatThreadHeadWidgetComponent</title>
<polygon fill="#ffffb3" stroke="black" points="2854.16,-122 2635.84,-122 2635.84,-86 2854.16,-86 2854.16,-122"/>
<text text-anchor="middle" x="2745" y="-99.8" font-family="Times,serif" font-size="14.00">ChatThreadHeadWidgetComponent</text>
</g>
<!-- ChatThreadHeadWidgetComponent&#45;&gt;MessagesModule -->
<g id="edge7" class="edge">
<title>ChatThreadHeadWidgetComponent&#45;&gt;MessagesModule</title>
<path fill="none" stroke="black" d="M2739.56,-122.01C2739.56,-138.05 2739.56,-159 2739.56,-159 2739.56,-159 2079.09,-159 2079.09,-159"/>
<polygon fill="black" stroke="black" points="2079.09,-155.5 2069.09,-159 2079.09,-162.5 2079.09,-155.5"/>
</g>
<!-- ChatThreadMobileHeadWidgetComponent -->
<g id="node8" class="node">
<title>ChatThreadMobileHeadWidgetComponent</title>
<polygon fill="#ffffb3" stroke="black" points="2618.1,-122 2359.9,-122 2359.9,-86 2618.1,-86 2618.1,-122"/>
<text text-anchor="middle" x="2489" y="-99.8" font-family="Times,serif" font-size="14.00">ChatThreadMobileHeadWidgetComponent</text>
</g>
<!-- ChatThreadMobileHeadWidgetComponent&#45;&gt;MessagesModule -->
<g id="edge8" class="edge">
<title>ChatThreadMobileHeadWidgetComponent&#45;&gt;MessagesModule</title>
<path fill="none" stroke="black" d="M2374.52,-122.19C2374.52,-137.18 2374.52,-156 2374.52,-156 2374.52,-156 2079.04,-156 2079.04,-156"/>
<polygon fill="black" stroke="black" points="2079.04,-152.5 2069.04,-156 2079.04,-159.5 2079.04,-152.5"/>
</g>
<!-- ChatThreadWidgetComponent -->
<g id="node9" class="node">
<title>ChatThreadWidgetComponent</title>
<polygon fill="#ffffb3" stroke="black" points="2341.13,-122 2152.87,-122 2152.87,-86 2341.13,-86 2341.13,-122"/>
<text text-anchor="middle" x="2247" y="-99.8" font-family="Times,serif" font-size="14.00">ChatThreadWidgetComponent</text>
</g>
<!-- ChatThreadWidgetComponent&#45;&gt;MessagesModule -->
<g id="edge9" class="edge">
<title>ChatThreadWidgetComponent&#45;&gt;MessagesModule</title>
<path fill="none" stroke="black" d="M2156.67,-122.05C2156.67,-136.37 2156.67,-154 2156.67,-154 2156.67,-154 2079.18,-154 2079.18,-154"/>
<polygon fill="black" stroke="black" points="2079.18,-150.5 2069.18,-154 2079.18,-157.5 2079.18,-150.5"/>
</g>
<!-- ConfirmDeleteContentModalComponent -->
<g id="node10" class="node">
<title>ConfirmDeleteContentModalComponent</title>
<polygon fill="#ffffb3" stroke="black" points="2135.19,-122 1888.81,-122 1888.81,-86 2135.19,-86 2135.19,-122"/>
<text text-anchor="middle" x="2012" y="-99.8" font-family="Times,serif" font-size="14.00">ConfirmDeleteContentModalComponent</text>
</g>
<!-- ConfirmDeleteContentModalComponent&#45;&gt;MessagesModule -->
<g id="edge10" class="edge">
<title>ConfirmDeleteContentModalComponent&#45;&gt;MessagesModule</title>
<path fill="none" stroke="black" d="M2012,-122.11C2012,-122.11 2012,-140.99 2012,-140.99"/>
<polygon fill="black" stroke="black" points="2008.5,-140.99 2012,-150.99 2015.5,-140.99 2008.5,-140.99"/>
</g>
<!-- MessageImageModalViewComponent -->
<g id="node11" class="node">
<title>MessageImageModalViewComponent</title>
<polygon fill="#ffffb3" stroke="black" points="1871.16,-122 1638.84,-122 1638.84,-86 1871.16,-86 1871.16,-122"/>
<text text-anchor="middle" x="1755" y="-99.8" font-family="Times,serif" font-size="14.00">MessageImageModalViewComponent</text>
</g>
<!-- MessageImageModalViewComponent&#45;&gt;MessagesModule -->
<g id="edge11" class="edge">
<title>MessageImageModalViewComponent&#45;&gt;MessagesModule</title>
<path fill="none" stroke="black" d="M1867.07,-122.05C1867.07,-136.37 1867.07,-154 1867.07,-154 1867.07,-154 1944.72,-154 1944.72,-154"/>
<polygon fill="black" stroke="black" points="1944.72,-157.5 1954.72,-154 1944.72,-150.5 1944.72,-157.5"/>
</g>
<!-- MessageImageViewWidgetComponent -->
<g id="node12" class="node">
<title>MessageImageViewWidgetComponent</title>
<polygon fill="#ffffb3" stroke="black" points="1621.32,-122 1384.68,-122 1384.68,-86 1621.32,-86 1621.32,-122"/>
<text text-anchor="middle" x="1503" y="-99.8" font-family="Times,serif" font-size="14.00">MessageImageViewWidgetComponent</text>
</g>
<!-- MessageImageViewWidgetComponent&#45;&gt;MessagesModule -->
<g id="edge12" class="edge">
<title>MessageImageViewWidgetComponent&#45;&gt;MessagesModule</title>
<path fill="none" stroke="black" d="M1519.29,-122.19C1519.29,-137.18 1519.29,-156 1519.29,-156 1519.29,-156 1945,-156 1945,-156"/>
<polygon fill="black" stroke="black" points="1945,-159.5 1955,-156 1945,-152.5 1945,-159.5"/>
</g>
<!-- MessageImagesWidgetComponent -->
<g id="node13" class="node">
<title>MessageImagesWidgetComponent</title>
<polygon fill="#ffffb3" stroke="black" points="1366.95,-122 1155.05,-122 1155.05,-86 1366.95,-86 1366.95,-122"/>
<text text-anchor="middle" x="1261" y="-99.8" font-family="Times,serif" font-size="14.00">MessageImagesWidgetComponent</text>
</g>
<!-- MessageImagesWidgetComponent&#45;&gt;MessagesModule -->
<g id="edge13" class="edge">
<title>MessageImagesWidgetComponent&#45;&gt;MessagesModule</title>
<path fill="none" stroke="black" d="M1262.91,-122.01C1262.91,-138.05 1262.91,-159 1262.91,-159 1262.91,-159 1944.77,-159 1944.77,-159"/>
<polygon fill="black" stroke="black" points="1944.77,-162.5 1954.77,-159 1944.77,-155.5 1944.77,-162.5"/>
</g>
<!-- MessageLinkViewWidgetComponent -->
<g id="node14" class="node">
<title>MessageLinkViewWidgetComponent</title>
<polygon fill="#ffffb3" stroke="black" points="1137.28,-122 908.72,-122 908.72,-86 1137.28,-86 1137.28,-122"/>
<text text-anchor="middle" x="1023" y="-99.8" font-family="Times,serif" font-size="14.00">MessageLinkViewWidgetComponent</text>
</g>
<!-- MessageLinkViewWidgetComponent&#45;&gt;MessagesModule -->
<g id="edge14" class="edge">
<title>MessageLinkViewWidgetComponent&#45;&gt;MessagesModule</title>
<path fill="none" stroke="black" d="M995.9,-122.04C995.9,-138.73 995.9,-161 995.9,-161 995.9,-161 1944.83,-161 1944.83,-161"/>
<polygon fill="black" stroke="black" points="1944.83,-164.5 1954.83,-161 1944.83,-157.5 1944.83,-164.5"/>
</g>
<!-- ReportMessengerContentModalComponent -->
<g id="node15" class="node">
<title>ReportMessengerContentModalComponent</title>
<polygon fill="#ffffb3" stroke="black" points="890.46,-122 629.54,-122 629.54,-86 890.46,-86 890.46,-122"/>
<text text-anchor="middle" x="760" y="-99.8" font-family="Times,serif" font-size="14.00">ReportMessengerContentModalComponent</text>
</g>
<!-- ReportMessengerContentModalComponent&#45;&gt;MessagesModule -->
<g id="edge15" class="edge">
<title>ReportMessengerContentModalComponent&#45;&gt;MessagesModule</title>
<path fill="none" stroke="black" d="M782.79,-122.02C782.79,-139.37 782.79,-163 782.79,-163 782.79,-163 1944.77,-163 1944.77,-163"/>
<polygon fill="black" stroke="black" points="1944.77,-166.5 1954.77,-163 1944.77,-159.5 1944.77,-166.5"/>
</g>
<!-- ChatFormWidgetComponent  -->
<g id="node21" class="node">
<title>ChatFormWidgetComponent </title>
<polygon fill="#fb8072" stroke="black" points="3323.32,-252 3140.68,-252 3140.68,-216 3323.32,-216 3323.32,-252"/>
<text text-anchor="middle" x="3232" y="-229.8" font-family="Times,serif" font-size="14.00">ChatFormWidgetComponent </text>
</g>
<!-- MessagesModule&#45;&gt;ChatFormWidgetComponent  -->
<g id="edge20" class="edge">
<title>MessagesModule&#45;&gt;ChatFormWidgetComponent </title>
<path fill="none" stroke="black" stroke-dasharray="5,2" d="M2069.16,-175C2309.1,-175 3222.46,-175 3222.46,-175 3222.46,-175 3222.46,-205.98 3222.46,-205.98"/>
<polygon fill="black" stroke="black" points="3218.96,-205.98 3222.46,-215.98 3225.96,-205.98 3218.96,-205.98"/>
</g>
<!-- ChatRoomsMobileHeadWidgetComponent  -->
<g id="node22" class="node">
<title>ChatRoomsMobileHeadWidgetComponent </title>
<polygon fill="#fb8072" stroke="black" points="3123.13,-252 2860.87,-252 2860.87,-216 3123.13,-216 3123.13,-252"/>
<text text-anchor="middle" x="2992" y="-229.8" font-family="Times,serif" font-size="14.00">ChatRoomsMobileHeadWidgetComponent </text>
</g>
<!-- MessagesModule&#45;&gt;ChatRoomsMobileHeadWidgetComponent  -->
<g id="edge21" class="edge">
<title>MessagesModule&#45;&gt;ChatRoomsMobileHeadWidgetComponent </title>
<path fill="none" stroke="black" stroke-dasharray="5,2" d="M2069.07,-178C2260.33,-178 2866.67,-178 2866.67,-178 2866.67,-178 2866.67,-205.97 2866.67,-205.97"/>
<polygon fill="black" stroke="black" points="2863.17,-205.97 2866.67,-215.97 2870.17,-205.97 2863.17,-205.97"/>
</g>
<!-- ChatRoomsRoomWidgetComponent  -->
<g id="node23" class="node">
<title>ChatRoomsRoomWidgetComponent </title>
<polygon fill="#fb8072" stroke="black" points="2843.38,-252 2616.62,-252 2616.62,-216 2843.38,-216 2843.38,-252"/>
<text text-anchor="middle" x="2730" y="-229.8" font-family="Times,serif" font-size="14.00">ChatRoomsRoomWidgetComponent </text>
</g>
<!-- MessagesModule&#45;&gt;ChatRoomsRoomWidgetComponent  -->
<g id="edge22" class="edge">
<title>MessagesModule&#45;&gt;ChatRoomsRoomWidgetComponent </title>
<path fill="none" stroke="black" stroke-dasharray="5,2" d="M2069.04,-180C2221.53,-180 2627.11,-180 2627.11,-180 2627.11,-180 2627.11,-205.72 2627.11,-205.72"/>
<polygon fill="black" stroke="black" points="2623.61,-205.72 2627.11,-215.72 2630.61,-205.72 2623.61,-205.72"/>
</g>
<!-- ChatRoomsWidgetComponent  -->
<g id="node24" class="node">
<title>ChatRoomsWidgetComponent </title>
<polygon fill="#fb8072" stroke="black" points="2599.16,-252 2406.84,-252 2406.84,-216 2599.16,-216 2599.16,-252"/>
<text text-anchor="middle" x="2503" y="-229.8" font-family="Times,serif" font-size="14.00">ChatRoomsWidgetComponent </text>
</g>
<!-- MessagesModule&#45;&gt;ChatRoomsWidgetComponent  -->
<g id="edge23" class="edge">
<title>MessagesModule&#45;&gt;ChatRoomsWidgetComponent </title>
<path fill="none" stroke="black" stroke-dasharray="5,2" d="M2069.28,-183C2198.81,-183 2503,-183 2503,-183 2503,-183 2503,-205.88 2503,-205.88"/>
<polygon fill="black" stroke="black" points="2499.5,-205.88 2503,-215.88 2506.5,-205.88 2499.5,-205.88"/>
</g>
<!-- ChatSearchPeopleWidgetComponent  -->
<g id="node25" class="node">
<title>ChatSearchPeopleWidgetComponent </title>
<polygon fill="#fb8072" stroke="black" points="2389.17,-252 2160.83,-252 2160.83,-216 2389.17,-216 2389.17,-252"/>
<text text-anchor="middle" x="2275" y="-229.8" font-family="Times,serif" font-size="14.00">ChatSearchPeopleWidgetComponent </text>
</g>
<!-- MessagesModule&#45;&gt;ChatSearchPeopleWidgetComponent  -->
<g id="edge24" class="edge">
<title>MessagesModule&#45;&gt;ChatSearchPeopleWidgetComponent </title>
<path fill="none" stroke="black" stroke-dasharray="5,2" d="M2069.24,-185C2139.95,-185 2250.99,-185 2250.99,-185 2250.99,-185 2250.99,-205.75 2250.99,-205.75"/>
<polygon fill="black" stroke="black" points="2247.49,-205.75 2250.99,-215.75 2254.49,-205.75 2247.49,-205.75"/>
</g>
<!-- ChatThreadMobileHeadWidgetComponent  -->
<g id="node26" class="node">
<title>ChatThreadMobileHeadWidgetComponent </title>
<polygon fill="#fb8072" stroke="black" points="2143.1,-252 1880.9,-252 1880.9,-216 2143.1,-216 2143.1,-252"/>
<text text-anchor="middle" x="2012" y="-229.8" font-family="Times,serif" font-size="14.00">ChatThreadMobileHeadWidgetComponent </text>
</g>
<!-- MessagesModule&#45;&gt;ChatThreadMobileHeadWidgetComponent  -->
<g id="edge25" class="edge">
<title>MessagesModule&#45;&gt;ChatThreadMobileHeadWidgetComponent </title>
<path fill="none" stroke="black" stroke-dasharray="5,2" d="M2012,-187.11C2012,-187.11 2012,-205.99 2012,-205.99"/>
<polygon fill="black" stroke="black" points="2008.5,-205.99 2012,-215.99 2015.5,-205.99 2008.5,-205.99"/>
</g>
<!-- ChatThreadWidgetComponent  -->
<g id="node27" class="node">
<title>ChatThreadWidgetComponent </title>
<polygon fill="#fb8072" stroke="black" points="1863.13,-252 1670.87,-252 1670.87,-216 1863.13,-216 1863.13,-252"/>
<text text-anchor="middle" x="1767" y="-229.8" font-family="Times,serif" font-size="14.00">ChatThreadWidgetComponent </text>
</g>
<!-- MessagesModule&#45;&gt;ChatThreadWidgetComponent  -->
<g id="edge26" class="edge">
<title>MessagesModule&#45;&gt;ChatThreadWidgetComponent </title>
<path fill="none" stroke="black" stroke-dasharray="5,2" d="M1954.87,-185C1882.47,-185 1767,-185 1767,-185 1767,-185 1767,-205.75 1767,-205.75"/>
<polygon fill="black" stroke="black" points="1763.5,-205.75 1767,-215.75 1770.5,-205.75 1763.5,-205.75"/>
</g>
<!-- MessageImageModalViewComponent  -->
<g id="node28" class="node">
<title>MessageImageModalViewComponent </title>
<polygon fill="#fb8072" stroke="black" points="1652.66,-252 1417.34,-252 1417.34,-216 1652.66,-216 1652.66,-252"/>
<text text-anchor="middle" x="1535" y="-229.8" font-family="Times,serif" font-size="14.00">MessageImageModalViewComponent </text>
</g>
<!-- MessagesModule&#45;&gt;MessageImageModalViewComponent  -->
<g id="edge27" class="edge">
<title>MessagesModule&#45;&gt;MessageImageModalViewComponent </title>
<path fill="none" stroke="black" stroke-dasharray="5,2" d="M1954.79,-183C1851.82,-183 1645.88,-183 1645.88,-183 1645.88,-183 1645.88,-205.88 1645.88,-205.88"/>
<polygon fill="black" stroke="black" points="1642.38,-205.88 1645.88,-215.88 1649.38,-205.88 1642.38,-205.88"/>
</g>
<!-- MessageImageViewWidgetComponent  -->
<g id="node29" class="node">
<title>MessageImageViewWidgetComponent </title>
<polygon fill="#fb8072" stroke="black" points="1399.32,-252 1158.68,-252 1158.68,-216 1399.32,-216 1399.32,-252"/>
<text text-anchor="middle" x="1279" y="-229.8" font-family="Times,serif" font-size="14.00">MessageImageViewWidgetComponent </text>
</g>
<!-- MessagesModule&#45;&gt;MessageImageViewWidgetComponent  -->
<g id="edge28" class="edge">
<title>MessagesModule&#45;&gt;MessageImageViewWidgetComponent </title>
<path fill="none" stroke="black" stroke-dasharray="5,2" d="M1954.77,-180C1801.25,-180 1391.88,-180 1391.88,-180 1391.88,-180 1391.88,-205.72 1391.88,-205.72"/>
<polygon fill="black" stroke="black" points="1388.38,-205.72 1391.88,-215.72 1395.38,-205.72 1388.38,-205.72"/>
</g>
<!-- MessageImagesWidgetComponent  -->
<g id="node30" class="node">
<title>MessageImagesWidgetComponent </title>
<polygon fill="#fb8072" stroke="black" points="1140.95,-252 925.05,-252 925.05,-216 1140.95,-216 1140.95,-252"/>
<text text-anchor="middle" x="1033" y="-229.8" font-family="Times,serif" font-size="14.00">MessageImagesWidgetComponent </text>
</g>
<!-- MessagesModule&#45;&gt;MessageImagesWidgetComponent  -->
<g id="edge29" class="edge">
<title>MessagesModule&#45;&gt;MessageImagesWidgetComponent </title>
<path fill="none" stroke="black" stroke-dasharray="5,2" d="M1954.99,-178C1750.57,-178 1066.52,-178 1066.52,-178 1066.52,-178 1066.52,-205.97 1066.52,-205.97"/>
<polygon fill="black" stroke="black" points="1063.02,-205.97 1066.52,-215.97 1070.02,-205.97 1063.02,-205.97"/>
</g>
<!-- MessageLinkViewWidgetComponent  -->
<g id="node31" class="node">
<title>MessageLinkViewWidgetComponent </title>
<polygon fill="#fb8072" stroke="black" points="906.78,-252 675.22,-252 675.22,-216 906.78,-216 906.78,-252"/>
<text text-anchor="middle" x="791" y="-229.8" font-family="Times,serif" font-size="14.00">MessageLinkViewWidgetComponent </text>
</g>
<!-- MessagesModule&#45;&gt;MessageLinkViewWidgetComponent  -->
<g id="edge30" class="edge">
<title>MessagesModule&#45;&gt;MessageLinkViewWidgetComponent </title>
<path fill="none" stroke="black" stroke-dasharray="5,2" d="M1954.87,-175C1727.45,-175 898.68,-175 898.68,-175 898.68,-175 898.68,-205.98 898.68,-205.98"/>
<polygon fill="black" stroke="black" points="895.18,-205.98 898.68,-215.98 902.18,-205.98 895.18,-205.98"/>
</g>
<!-- MessagesRoutingModule -->
<g id="node17" class="node">
<title>MessagesRoutingModule</title>
<polygon fill="#8dd3c7" stroke="black" points="605.59,-122 602.59,-126 581.59,-126 578.59,-122 446.41,-122 446.41,-86 605.59,-86 605.59,-122"/>
<text text-anchor="middle" x="526" y="-99.8" font-family="Times,serif" font-size="14.00">MessagesRoutingModule</text>
</g>
<!-- MessagesRoutingModule&#45;&gt;MessagesModule -->
<g id="edge16" class="edge">
<title>MessagesRoutingModule&#45;&gt;MessagesModule</title>
<path fill="none" stroke="black" d="M526,-122.27C526,-140.56 526,-166 526,-166 526,-166 1944.66,-166 1944.66,-166"/>
<polygon fill="black" stroke="black" points="1944.66,-169.5 1954.66,-166 1944.66,-162.5 1944.66,-169.5"/>
</g>
<!-- ThemeModule -->
<g id="node18" class="node">
<title>ThemeModule</title>
<polygon fill="#8dd3c7" stroke="black" points="428.42,-122 425.42,-126 404.42,-126 401.42,-122 329.58,-122 329.58,-86 428.42,-86 428.42,-122"/>
<text text-anchor="middle" x="379" y="-99.8" font-family="Times,serif" font-size="14.00">ThemeModule</text>
</g>
<!-- ThemeModule&#45;&gt;MessagesModule -->
<g id="edge17" class="edge">
<title>ThemeModule&#45;&gt;MessagesModule</title>
<path fill="none" stroke="black" d="M379,-122.17C379,-141.09 379,-168 379,-168 379,-168 1944.84,-168 1944.84,-168"/>
<polygon fill="black" stroke="black" points="1944.84,-171.5 1954.84,-168 1944.84,-164.5 1944.84,-171.5"/>
</g>
<!-- WfLinkPreviewModule -->
<g id="node19" class="node">
<title>WfLinkPreviewModule</title>
<polygon fill="#8dd3c7" stroke="black" points="311.74,-122 308.74,-126 287.74,-126 284.74,-122 162.26,-122 162.26,-86 311.74,-86 311.74,-122"/>
<text text-anchor="middle" x="237" y="-99.8" font-family="Times,serif" font-size="14.00">WfLinkPreviewModule</text>
</g>
<!-- WfLinkPreviewModule&#45;&gt;MessagesModule -->
<g id="edge18" class="edge">
<title>WfLinkPreviewModule&#45;&gt;MessagesModule</title>
<path fill="none" stroke="black" d="M237,-122.31C237,-142.15 237,-171 237,-171 237,-171 1944.95,-171 1944.95,-171"/>
<polygon fill="black" stroke="black" points="1944.95,-174.5 1954.95,-171 1944.95,-167.5 1944.95,-174.5"/>
</g>
<!-- WfLinkifyModule -->
<g id="node20" class="node">
<title>WfLinkifyModule</title>
<polygon fill="#8dd3c7" stroke="black" points="143.92,-122 140.92,-126 119.92,-126 116.92,-122 24.08,-122 24.08,-86 143.92,-86 143.92,-122"/>
<text text-anchor="middle" x="84" y="-99.8" font-family="Times,serif" font-size="14.00">WfLinkifyModule</text>
</g>
<!-- WfLinkifyModule&#45;&gt;MessagesModule -->
<g id="edge19" class="edge">
<title>WfLinkifyModule&#45;&gt;MessagesModule</title>
<path fill="none" stroke="black" d="M84,-122.13C84,-142.57 84,-173 84,-173 84,-173 1944.82,-173 1944.82,-173"/>
<polygon fill="black" stroke="black" points="1944.82,-176.5 1954.82,-173 1944.82,-169.5 1944.82,-176.5"/>
</g>
</g>
</svg>
