<?xml version="1.0" encoding="UTF-8" standalone="no"?>
<!DOCTYPE svg PUBLIC "-//W3C//DTD SVG 1.1//EN"
 "http://www.w3.org/Graphics/SVG/1.1/DTD/svg11.dtd">
<!-- Generated by graphviz version 2.47.0 (20210316.0004)
 -->
<!-- Title: dependencies Pages: 1 -->
<svg width="504pt" height="284pt"
 viewBox="0.00 0.00 504.00 284.00" xmlns="http://www.w3.org/2000/svg" xmlns:xlink="http://www.w3.org/1999/xlink">
<g id="graph0" class="graph" transform="scale(1 1) rotate(0) translate(4 280)">
<title>dependencies</title>
<polygon fill="white" stroke="transparent" points="-4,4 -4,-280 500,-280 500,4 -4,4"/>
<text text-anchor="start" x="227.01" y="-42.4" font-family="sans-serif" font-weight="bold" font-size="14.00">Legend</text>
<polygon fill="#ffffb3" stroke="transparent" points="14,-10 14,-30 34,-30 34,-10 14,-10"/>
<text text-anchor="start" x="37.63" y="-15.4" font-family="sans-serif" font-size="14.00"> &#160;Declarations</text>
<polygon fill="#8dd3c7" stroke="transparent" points="127,-10 127,-30 147,-30 147,-10 127,-10"/>
<text text-anchor="start" x="150.73" y="-15.4" font-family="sans-serif" font-size="14.00"> &#160;Module</text>
<polygon fill="#80b1d3" stroke="transparent" points="213,-10 213,-30 233,-30 233,-10 213,-10"/>
<text text-anchor="start" x="236.78" y="-15.4" font-family="sans-serif" font-size="14.00"> &#160;Bootstrap</text>
<polygon fill="#fdb462" stroke="transparent" points="310,-10 310,-30 330,-30 330,-10 310,-10"/>
<text text-anchor="start" x="333.67" y="-15.4" font-family="sans-serif" font-size="14.00"> &#160;Providers</text>
<polygon fill="#fb8072" stroke="transparent" points="406,-10 406,-30 426,-30 426,-10 406,-10"/>
<text text-anchor="start" x="429.73" y="-15.4" font-family="sans-serif" font-size="14.00"> &#160;Exports</text>
<g id="clust1" class="cluster">
<title>cluster_WbGoogleMapsModule</title>
<polygon fill="none" stroke="black" stroke-dasharray="1,5" points="13,-70 13,-268 483,-268 483,-70 13,-70"/>
</g>
<g id="clust2" class="cluster">
<title>cluster_WbGoogleMapsModule_declarations</title>
<polygon fill="none" stroke="black" points="25,-78 25,-130 472,-130 472,-78 25,-78"/>
</g>
<g id="clust6" class="cluster">
<title>cluster_WbGoogleMapsModule_exports</title>
<polygon fill="none" stroke="black" points="21,-208 21,-260 475,-260 475,-208 21,-208"/>
</g>
<!-- WbMarkGoogleMapComponent -->
<g id="node1" class="node">
<title>WbMarkGoogleMapComponent</title>
<polygon fill="#ffffb3" stroke="black" points="464.24,-122 265.76,-122 265.76,-86 464.24,-86 464.24,-122"/>
<text text-anchor="middle" x="365" y="-99.8" font-family="Times,serif" font-size="14.00">WbMarkGoogleMapComponent</text>
</g>
<!-- WbGoogleMapsModule -->
<g id="node3" class="node">
<title>WbGoogleMapsModule</title>
<polygon fill="#8dd3c7" stroke="black" points="217.08,-187 214.08,-191 193.08,-191 190.08,-187 64.92,-187 64.92,-151 217.08,-151 217.08,-187"/>
<text text-anchor="middle" x="141" y="-164.8" font-family="Times,serif" font-size="14.00">WbGoogleMapsModule</text>
</g>
<!-- WbMarkGoogleMapComponent&#45;&gt;WbGoogleMapsModule -->
<g id="edge1" class="edge">
<title>WbMarkGoogleMapComponent&#45;&gt;WbGoogleMapsModule</title>
<path fill="none" stroke="black" d="M398.12,-122.02C398.12,-139.37 398.12,-163 398.12,-163 398.12,-163 227.1,-163 227.1,-163"/>
<polygon fill="black" stroke="black" points="227.1,-159.5 217.1,-163 227.1,-166.5 227.1,-159.5"/>
</g>
<!-- WbShowonGoogleMapComponent -->
<g id="node2" class="node">
<title>WbShowonGoogleMapComponent</title>
<polygon fill="#ffffb3" stroke="black" points="247.31,-122 32.69,-122 32.69,-86 247.31,-86 247.31,-122"/>
<text text-anchor="middle" x="140" y="-99.8" font-family="Times,serif" font-size="14.00">WbShowonGoogleMapComponent</text>
</g>
<!-- WbShowonGoogleMapComponent&#45;&gt;WbGoogleMapsModule -->
<g id="edge2" class="edge">
<title>WbShowonGoogleMapComponent&#45;&gt;WbGoogleMapsModule</title>
<path fill="none" stroke="black" d="M141,-122.11C141,-122.11 141,-140.99 141,-140.99"/>
<polygon fill="black" stroke="black" points="137.5,-140.99 141,-150.99 144.5,-140.99 137.5,-140.99"/>
</g>
<!-- WbMarkGoogleMapComponent  -->
<g id="node4" class="node">
<title>WbMarkGoogleMapComponent </title>
<polygon fill="#fb8072" stroke="black" points="467.24,-252 264.76,-252 264.76,-216 467.24,-216 467.24,-252"/>
<text text-anchor="middle" x="366" y="-229.8" font-family="Times,serif" font-size="14.00">WbMarkGoogleMapComponent </text>
</g>
<!-- WbGoogleMapsModule&#45;&gt;WbMarkGoogleMapComponent  -->
<g id="edge3" class="edge">
<title>WbGoogleMapsModule&#45;&gt;WbMarkGoogleMapComponent </title>
<path fill="none" stroke="black" stroke-dasharray="5,2" d="M217.26,-175C270.43,-175 331.88,-175 331.88,-175 331.88,-175 331.88,-205.98 331.88,-205.98"/>
<polygon fill="black" stroke="black" points="328.38,-205.98 331.88,-215.98 335.38,-205.98 328.38,-205.98"/>
</g>
<!-- WbShowonGoogleMapComponent  -->
<g id="node5" class="node">
<title>WbShowonGoogleMapComponent </title>
<polygon fill="#fb8072" stroke="black" points="246.81,-252 29.19,-252 29.19,-216 246.81,-216 246.81,-252"/>
<text text-anchor="middle" x="138" y="-229.8" font-family="Times,serif" font-size="14.00">WbShowonGoogleMapComponent </text>
</g>
<!-- WbGoogleMapsModule&#45;&gt;WbShowonGoogleMapComponent  -->
<g id="edge4" class="edge">
<title>WbGoogleMapsModule&#45;&gt;WbShowonGoogleMapComponent </title>
<path fill="none" stroke="black" stroke-dasharray="5,2" d="M141,-187.11C141,-187.11 141,-205.99 141,-205.99"/>
<polygon fill="black" stroke="black" points="137.5,-205.99 141,-215.99 144.5,-205.99 137.5,-205.99"/>
</g>
</g>
</svg>
