<?xml version="1.0" encoding="UTF-8" standalone="no"?>
<!DOCTYPE svg PUBLIC "-//W3C//DTD SVG 1.1//EN"
 "http://www.w3.org/Graphics/SVG/1.1/DTD/svg11.dtd">
<!-- Generated by graphviz version 2.47.0 (20210316.0004)
 -->
<!-- Title: dependencies Pages: 1 -->
<svg width="617pt" height="211pt"
 viewBox="0.00 0.00 617.00 211.00" xmlns="http://www.w3.org/2000/svg" xmlns:xlink="http://www.w3.org/1999/xlink">
<g id="graph0" class="graph" transform="scale(1 1) rotate(0) translate(4 207)">
<title>dependencies</title>
<polygon fill="white" stroke="transparent" points="-4,4 -4,-207 613,-207 613,4 -4,4"/>
<text text-anchor="start" x="283.51" y="-42.4" font-family="sans-serif" font-weight="bold" font-size="14.00">Legend</text>
<polygon fill="#ffffb3" stroke="transparent" points="70.5,-10 70.5,-30 90.5,-30 90.5,-10 70.5,-10"/>
<text text-anchor="start" x="94.13" y="-15.4" font-family="sans-serif" font-size="14.00"> &#160;Declarations</text>
<polygon fill="#8dd3c7" stroke="transparent" points="183.5,-10 183.5,-30 203.5,-30 203.5,-10 183.5,-10"/>
<text text-anchor="start" x="207.23" y="-15.4" font-family="sans-serif" font-size="14.00"> &#160;Module</text>
<polygon fill="#80b1d3" stroke="transparent" points="269.5,-10 269.5,-30 289.5,-30 289.5,-10 269.5,-10"/>
<text text-anchor="start" x="293.28" y="-15.4" font-family="sans-serif" font-size="14.00"> &#160;Bootstrap</text>
<polygon fill="#fdb462" stroke="transparent" points="366.5,-10 366.5,-30 386.5,-30 386.5,-10 366.5,-10"/>
<text text-anchor="start" x="390.17" y="-15.4" font-family="sans-serif" font-size="14.00"> &#160;Providers</text>
<polygon fill="#fb8072" stroke="transparent" points="462.5,-10 462.5,-30 482.5,-30 482.5,-10 462.5,-10"/>
<text text-anchor="start" x="486.23" y="-15.4" font-family="sans-serif" font-size="14.00"> &#160;Exports</text>
<g id="clust1" class="cluster">
<title>cluster_SearchModule</title>
<polygon fill="none" stroke="black" stroke-dasharray="1,5" points="8,-70 8,-195 601,-195 601,-70 8,-70"/>
</g>
<g id="clust2" class="cluster">
<title>cluster_SearchModule_declarations</title>
<polygon fill="none" stroke="black" points="423,-78 423,-130 593,-130 593,-78 423,-78"/>
</g>
<g id="clust4" class="cluster">
<title>cluster_SearchModule_imports</title>
<polygon fill="none" stroke="black" points="16,-78 16,-130 415,-130 415,-78 16,-78"/>
</g>
<!-- AdsManagerComponent -->
<g id="node1" class="node">
<title>AdsManagerComponent</title>
<polygon fill="#ffffb3" stroke="black" points="584.63,-122 431.37,-122 431.37,-86 584.63,-86 584.63,-122"/>
<text text-anchor="middle" x="508" y="-99.8" font-family="Times,serif" font-size="14.00">AdsManagerComponent</text>
</g>
<!-- SearchModule -->
<g id="node2" class="node">
<title>SearchModule</title>
<polygon fill="#8dd3c7" stroke="black" points="314.64,-187 311.64,-191 290.64,-191 287.64,-187 217.36,-187 217.36,-151 314.64,-151 314.64,-187"/>
<text text-anchor="middle" x="266" y="-164.8" font-family="Times,serif" font-size="14.00">SearchModule</text>
</g>
<!-- AdsManagerComponent&#45;&gt;SearchModule -->
<g id="edge1" class="edge">
<title>AdsManagerComponent&#45;&gt;SearchModule</title>
<path fill="none" stroke="black" d="M508,-122.11C508,-141.34 508,-169 508,-169 508,-169 324.68,-169 324.68,-169"/>
<polygon fill="black" stroke="black" points="324.68,-165.5 314.68,-169 324.68,-172.5 324.68,-165.5"/>
</g>
<!-- SearchRoutingModule -->
<g id="node3" class="node">
<title>SearchRoutingModule</title>
<polygon fill="#8dd3c7" stroke="black" points="407.25,-122 404.25,-126 383.25,-126 380.25,-122 264.75,-122 264.75,-86 407.25,-86 407.25,-122"/>
<text text-anchor="middle" x="336" y="-99.8" font-family="Times,serif" font-size="14.00">SearchRoutingModule</text>
</g>
<!-- SearchRoutingModule&#45;&gt;SearchModule -->
<g id="edge2" class="edge">
<title>SearchRoutingModule&#45;&gt;SearchModule</title>
<path fill="none" stroke="black" d="M289.72,-122.11C289.72,-122.11 289.72,-140.99 289.72,-140.99"/>
<polygon fill="black" stroke="black" points="286.22,-140.99 289.72,-150.99 293.22,-140.99 286.22,-140.99"/>
</g>
<!-- ThemeModule -->
<g id="node4" class="node">
<title>ThemeModule</title>
<polygon fill="#8dd3c7" stroke="black" points="246.42,-122 243.42,-126 222.42,-126 219.42,-122 147.58,-122 147.58,-86 246.42,-86 246.42,-122"/>
<text text-anchor="middle" x="197" y="-99.8" font-family="Times,serif" font-size="14.00">ThemeModule</text>
</g>
<!-- ThemeModule&#45;&gt;SearchModule -->
<g id="edge3" class="edge">
<title>ThemeModule&#45;&gt;SearchModule</title>
<path fill="none" stroke="black" d="M231.7,-122.11C231.7,-122.11 231.7,-140.99 231.7,-140.99"/>
<polygon fill="black" stroke="black" points="228.2,-140.99 231.7,-150.99 235.2,-140.99 228.2,-140.99"/>
</g>
<!-- WidgetsModule -->
<g id="node5" class="node">
<title>WidgetsModule</title>
<polygon fill="#8dd3c7" stroke="black" points="130.2,-122 127.2,-126 106.2,-126 103.2,-122 23.8,-122 23.8,-86 130.2,-86 130.2,-122"/>
<text text-anchor="middle" x="77" y="-99.8" font-family="Times,serif" font-size="14.00">WidgetsModule</text>
</g>
<!-- WidgetsModule&#45;&gt;SearchModule -->
<g id="edge4" class="edge">
<title>WidgetsModule&#45;&gt;SearchModule</title>
<path fill="none" stroke="black" d="M77,-122.11C77,-141.34 77,-169 77,-169 77,-169 207.33,-169 207.33,-169"/>
<polygon fill="black" stroke="black" points="207.33,-172.5 217.33,-169 207.33,-165.5 207.33,-172.5"/>
</g>
</g>
</svg>
