<?xml version="1.0" encoding="UTF-8" standalone="no"?>
<!DOCTYPE svg PUBLIC "-//W3C//DTD SVG 1.1//EN"
 "http://www.w3.org/Graphics/SVG/1.1/DTD/svg11.dtd">
<!-- Generated by graphviz version 2.47.0 (20210316.0004)
 -->
<!-- Title: dependencies Pages: 1 -->
<svg width="658pt" height="284pt"
 viewBox="0.00 0.00 658.00 284.00" xmlns="http://www.w3.org/2000/svg" xmlns:xlink="http://www.w3.org/1999/xlink">
<g id="graph0" class="graph" transform="scale(1 1) rotate(0) translate(4 280)">
<title>dependencies</title>
<polygon fill="white" stroke="transparent" points="-4,4 -4,-280 654,-280 654,4 -4,4"/>
<text text-anchor="start" x="304.01" y="-42.4" font-family="sans-serif" font-weight="bold" font-size="14.00">Legend</text>
<polygon fill="#ffffb3" stroke="transparent" points="91,-10 91,-30 111,-30 111,-10 91,-10"/>
<text text-anchor="start" x="114.63" y="-15.4" font-family="sans-serif" font-size="14.00"> &#160;Declarations</text>
<polygon fill="#8dd3c7" stroke="transparent" points="204,-10 204,-30 224,-30 224,-10 204,-10"/>
<text text-anchor="start" x="227.73" y="-15.4" font-family="sans-serif" font-size="14.00"> &#160;Module</text>
<polygon fill="#80b1d3" stroke="transparent" points="290,-10 290,-30 310,-30 310,-10 290,-10"/>
<text text-anchor="start" x="313.78" y="-15.4" font-family="sans-serif" font-size="14.00"> &#160;Bootstrap</text>
<polygon fill="#fdb462" stroke="transparent" points="387,-10 387,-30 407,-30 407,-10 387,-10"/>
<text text-anchor="start" x="410.67" y="-15.4" font-family="sans-serif" font-size="14.00"> &#160;Providers</text>
<polygon fill="#fb8072" stroke="transparent" points="483,-10 483,-30 503,-30 503,-10 483,-10"/>
<text text-anchor="start" x="506.73" y="-15.4" font-family="sans-serif" font-size="14.00"> &#160;Exports</text>
<g id="clust1" class="cluster">
<title>cluster_WidgetsModule</title>
<polygon fill="none" stroke="black" stroke-dasharray="1,5" points="8,-70 8,-268 642,-268 642,-70 8,-70"/>
</g>
<g id="clust7" class="cluster">
<title>cluster_WidgetsModule_exports</title>
<polygon fill="none" stroke="black" points="16,-208 16,-260 634,-260 634,-208 16,-208"/>
</g>
<g id="clust2" class="cluster">
<title>cluster_WidgetsModule_declarations</title>
<polygon fill="none" stroke="black" points="21,-78 21,-130 628,-130 628,-78 21,-78"/>
</g>
<!-- ContactWidgetComponent -->
<g id="node1" class="node">
<title>ContactWidgetComponent</title>
<polygon fill="#ffffb3" stroke="black" points="620.09,-122 453.91,-122 453.91,-86 620.09,-86 620.09,-122"/>
<text text-anchor="middle" x="537" y="-99.8" font-family="Times,serif" font-size="14.00">ContactWidgetComponent</text>
</g>
<!-- WidgetsModule -->
<g id="node4" class="node">
<title>WidgetsModule</title>
<polygon fill="#8dd3c7" stroke="black" points="392.2,-187 389.2,-191 368.2,-191 365.2,-187 285.8,-187 285.8,-151 392.2,-151 392.2,-187"/>
<text text-anchor="middle" x="339" y="-164.8" font-family="Times,serif" font-size="14.00">WidgetsModule</text>
</g>
<!-- ContactWidgetComponent&#45;&gt;WidgetsModule -->
<g id="edge1" class="edge">
<title>ContactWidgetComponent&#45;&gt;WidgetsModule</title>
<path fill="none" stroke="black" d="M565.43,-122.02C565.43,-139.37 565.43,-163 565.43,-163 565.43,-163 402.37,-163 402.37,-163"/>
<polygon fill="black" stroke="black" points="402.37,-159.5 392.37,-163 402.37,-166.5 402.37,-159.5"/>
</g>
<!-- NetworkLeftWidgetComponent -->
<g id="node2" class="node">
<title>NetworkLeftWidgetComponent</title>
<polygon fill="#ffffb3" stroke="black" points="436.34,-122 241.66,-122 241.66,-86 436.34,-86 436.34,-122"/>
<text text-anchor="middle" x="339" y="-99.8" font-family="Times,serif" font-size="14.00">NetworkLeftWidgetComponent</text>
</g>
<!-- NetworkLeftWidgetComponent&#45;&gt;WidgetsModule -->
<g id="edge2" class="edge">
<title>NetworkLeftWidgetComponent&#45;&gt;WidgetsModule</title>
<path fill="none" stroke="black" d="M339,-122.11C339,-122.11 339,-140.99 339,-140.99"/>
<polygon fill="black" stroke="black" points="335.5,-140.99 339,-150.99 342.5,-140.99 335.5,-140.99"/>
</g>
<!-- NetworkNavWidgetComponent -->
<g id="node3" class="node">
<title>NetworkNavWidgetComponent</title>
<polygon fill="#ffffb3" stroke="black" points="223.34,-122 28.66,-122 28.66,-86 223.34,-86 223.34,-122"/>
<text text-anchor="middle" x="126" y="-99.8" font-family="Times,serif" font-size="14.00">NetworkNavWidgetComponent</text>
</g>
<!-- NetworkNavWidgetComponent&#45;&gt;WidgetsModule -->
<g id="edge3" class="edge">
<title>NetworkNavWidgetComponent&#45;&gt;WidgetsModule</title>
<path fill="none" stroke="black" d="M157.64,-122.02C157.64,-139.37 157.64,-163 157.64,-163 157.64,-163 275.57,-163 275.57,-163"/>
<polygon fill="black" stroke="black" points="275.57,-166.5 285.57,-163 275.57,-159.5 275.57,-166.5"/>
</g>
<!-- ContactWidgetComponent  -->
<g id="node5" class="node">
<title>ContactWidgetComponent </title>
<polygon fill="#fb8072" stroke="black" points="625.59,-252 456.41,-252 456.41,-216 625.59,-216 625.59,-252"/>
<text text-anchor="middle" x="541" y="-229.8" font-family="Times,serif" font-size="14.00">ContactWidgetComponent </text>
</g>
<!-- WidgetsModule&#45;&gt;ContactWidgetComponent  -->
<g id="edge4" class="edge">
<title>WidgetsModule&#45;&gt;ContactWidgetComponent </title>
<path fill="none" stroke="black" stroke-dasharray="5,2" d="M392.42,-175C442.86,-175 510.82,-175 510.82,-175 510.82,-175 510.82,-205.98 510.82,-205.98"/>
<polygon fill="black" stroke="black" points="507.32,-205.98 510.82,-215.98 514.32,-205.98 507.32,-205.98"/>
</g>
<!-- NetworkLeftWidgetComponent  -->
<g id="node6" class="node">
<title>NetworkLeftWidgetComponent </title>
<polygon fill="#fb8072" stroke="black" points="438.34,-252 239.66,-252 239.66,-216 438.34,-216 438.34,-252"/>
<text text-anchor="middle" x="339" y="-229.8" font-family="Times,serif" font-size="14.00">NetworkLeftWidgetComponent </text>
</g>
<!-- WidgetsModule&#45;&gt;NetworkLeftWidgetComponent  -->
<g id="edge5" class="edge">
<title>WidgetsModule&#45;&gt;NetworkLeftWidgetComponent </title>
<path fill="none" stroke="black" stroke-dasharray="5,2" d="M339,-187.11C339,-187.11 339,-205.99 339,-205.99"/>
<polygon fill="black" stroke="black" points="335.5,-205.99 339,-215.99 342.5,-205.99 335.5,-205.99"/>
</g>
<!-- NetworkNavWidgetComponent  -->
<g id="node7" class="node">
<title>NetworkNavWidgetComponent </title>
<polygon fill="#fb8072" stroke="black" points="222.34,-252 23.66,-252 23.66,-216 222.34,-216 222.34,-252"/>
<text text-anchor="middle" x="123" y="-229.8" font-family="Times,serif" font-size="14.00">NetworkNavWidgetComponent </text>
</g>
<!-- WidgetsModule&#45;&gt;NetworkNavWidgetComponent  -->
<g id="edge6" class="edge">
<title>WidgetsModule&#45;&gt;NetworkNavWidgetComponent </title>
<path fill="none" stroke="black" stroke-dasharray="5,2" d="M285.65,-175C213.33,-175 93.11,-175 93.11,-175 93.11,-175 93.11,-205.98 93.11,-205.98"/>
<polygon fill="black" stroke="black" points="89.61,-205.98 93.11,-215.98 96.61,-205.98 89.61,-205.98"/>
</g>
</g>
</svg>
