<?xml version="1.0" encoding="UTF-8" standalone="no"?>
<!DOCTYPE svg PUBLIC "-//W3C//DTD SVG 1.1//EN"
 "http://www.w3.org/Graphics/SVG/1.1/DTD/svg11.dtd">
<!-- Generated by graphviz version 2.47.0 (20210316.0004)
 -->
<!-- Title: dependencies Pages: 1 -->
<svg width="834pt" height="211pt"
 viewBox="0.00 0.00 834.00 211.00" xmlns="http://www.w3.org/2000/svg" xmlns:xlink="http://www.w3.org/1999/xlink">
<g id="graph0" class="graph" transform="scale(1 1) rotate(0) translate(4 207)">
<title>dependencies</title>
<polygon fill="white" stroke="transparent" points="-4,4 -4,-207 830,-207 830,4 -4,4"/>
<text text-anchor="start" x="392.01" y="-42.4" font-family="sans-serif" font-weight="bold" font-size="14.00">Legend</text>
<polygon fill="#ffffb3" stroke="transparent" points="179,-10 179,-30 199,-30 199,-10 179,-10"/>
<text text-anchor="start" x="202.63" y="-15.4" font-family="sans-serif" font-size="14.00"> &#160;Declarations</text>
<polygon fill="#8dd3c7" stroke="transparent" points="292,-10 292,-30 312,-30 312,-10 292,-10"/>
<text text-anchor="start" x="315.73" y="-15.4" font-family="sans-serif" font-size="14.00"> &#160;Module</text>
<polygon fill="#80b1d3" stroke="transparent" points="378,-10 378,-30 398,-30 398,-10 378,-10"/>
<text text-anchor="start" x="401.78" y="-15.4" font-family="sans-serif" font-size="14.00"> &#160;Bootstrap</text>
<polygon fill="#fdb462" stroke="transparent" points="475,-10 475,-30 495,-30 495,-10 475,-10"/>
<text text-anchor="start" x="498.67" y="-15.4" font-family="sans-serif" font-size="14.00"> &#160;Providers</text>
<polygon fill="#fb8072" stroke="transparent" points="571,-10 571,-30 591,-30 591,-10 571,-10"/>
<text text-anchor="start" x="594.73" y="-15.4" font-family="sans-serif" font-size="14.00"> &#160;Exports</text>
<g id="clust1" class="cluster">
<title>cluster_InvitationsModule</title>
<polygon fill="none" stroke="black" stroke-dasharray="1,5" points="8,-70 8,-195 818,-195 818,-70 8,-70"/>
</g>
<g id="clust2" class="cluster">
<title>cluster_InvitationsModule_declarations</title>
<polygon fill="none" stroke="black" points="444,-78 444,-130 810,-130 810,-78 444,-78"/>
</g>
<g id="clust5" class="cluster">
<title>cluster_InvitationsModule_imports</title>
<polygon fill="none" stroke="black" points="16,-78 16,-130 436,-130 436,-78 16,-78"/>
</g>
<!-- AdsManagerComponent -->
<g id="node1" class="node">
<title>AdsManagerComponent</title>
<polygon fill="#ffffb3" stroke="black" points="801.63,-122 648.37,-122 648.37,-86 801.63,-86 801.63,-122"/>
<text text-anchor="middle" x="725" y="-99.8" font-family="Times,serif" font-size="14.00">AdsManagerComponent</text>
</g>
<!-- InvitationsModule -->
<g id="node3" class="node">
<title>InvitationsModule</title>
<polygon fill="#8dd3c7" stroke="black" points="405.93,-187 402.93,-191 381.93,-191 378.93,-187 286.07,-187 286.07,-151 405.93,-151 405.93,-187"/>
<text text-anchor="middle" x="346" y="-164.8" font-family="Times,serif" font-size="14.00">InvitationsModule</text>
</g>
<!-- AdsManagerComponent&#45;&gt;InvitationsModule -->
<g id="edge1" class="edge">
<title>AdsManagerComponent&#45;&gt;InvitationsModule</title>
<path fill="none" stroke="black" d="M725,-122.28C725,-143.32 725,-175 725,-175 725,-175 416.05,-175 416.05,-175"/>
<polygon fill="black" stroke="black" points="416.05,-171.5 406.05,-175 416.05,-178.5 416.05,-171.5"/>
</g>
<!-- InviteNavWidgetComponent -->
<g id="node2" class="node">
<title>InviteNavWidgetComponent</title>
<polygon fill="#ffffb3" stroke="black" points="630.02,-122 451.98,-122 451.98,-86 630.02,-86 630.02,-122"/>
<text text-anchor="middle" x="541" y="-99.8" font-family="Times,serif" font-size="14.00">InviteNavWidgetComponent</text>
</g>
<!-- InviteNavWidgetComponent&#45;&gt;InvitationsModule -->
<g id="edge2" class="edge">
<title>InviteNavWidgetComponent&#45;&gt;InvitationsModule</title>
<path fill="none" stroke="black" d="M541,-122.02C541,-139.37 541,-163 541,-163 541,-163 415.83,-163 415.83,-163"/>
<polygon fill="black" stroke="black" points="415.83,-159.5 405.83,-163 415.83,-166.5 415.83,-159.5"/>
</g>
<!-- InvitationsRoutingModule -->
<g id="node4" class="node">
<title>InvitationsRoutingModule</title>
<polygon fill="#8dd3c7" stroke="black" points="428.05,-122 425.05,-126 404.05,-126 401.05,-122 263.95,-122 263.95,-86 428.05,-86 428.05,-122"/>
<text text-anchor="middle" x="346" y="-99.8" font-family="Times,serif" font-size="14.00">InvitationsRoutingModule</text>
</g>
<!-- InvitationsRoutingModule&#45;&gt;InvitationsModule -->
<g id="edge3" class="edge">
<title>InvitationsRoutingModule&#45;&gt;InvitationsModule</title>
<path fill="none" stroke="black" d="M346,-122.11C346,-122.11 346,-140.99 346,-140.99"/>
<polygon fill="black" stroke="black" points="342.5,-140.99 346,-150.99 349.5,-140.99 342.5,-140.99"/>
</g>
<!-- ThemeModule -->
<g id="node5" class="node">
<title>ThemeModule</title>
<polygon fill="#8dd3c7" stroke="black" points="246.42,-122 243.42,-126 222.42,-126 219.42,-122 147.58,-122 147.58,-86 246.42,-86 246.42,-122"/>
<text text-anchor="middle" x="197" y="-99.8" font-family="Times,serif" font-size="14.00">ThemeModule</text>
</g>
<!-- ThemeModule&#45;&gt;InvitationsModule -->
<g id="edge4" class="edge">
<title>ThemeModule&#45;&gt;InvitationsModule</title>
<path fill="none" stroke="black" d="M197,-122.02C197,-139.37 197,-163 197,-163 197,-163 276.25,-163 276.25,-163"/>
<polygon fill="black" stroke="black" points="276.25,-166.5 286.25,-163 276.25,-159.5 276.25,-166.5"/>
</g>
<!-- WidgetsModule -->
<g id="node6" class="node">
<title>WidgetsModule</title>
<polygon fill="#8dd3c7" stroke="black" points="130.2,-122 127.2,-126 106.2,-126 103.2,-122 23.8,-122 23.8,-86 130.2,-86 130.2,-122"/>
<text text-anchor="middle" x="77" y="-99.8" font-family="Times,serif" font-size="14.00">WidgetsModule</text>
</g>
<!-- WidgetsModule&#45;&gt;InvitationsModule -->
<g id="edge5" class="edge">
<title>WidgetsModule&#45;&gt;InvitationsModule</title>
<path fill="none" stroke="black" d="M77,-122.28C77,-143.32 77,-175 77,-175 77,-175 275.97,-175 275.97,-175"/>
<polygon fill="black" stroke="black" points="275.97,-178.5 285.97,-175 275.97,-171.5 275.97,-178.5"/>
</g>
</g>
</svg>
