<?xml version="1.0" encoding="UTF-8" standalone="no"?>
<!DOCTYPE svg PUBLIC "-//W3C//DTD SVG 1.1//EN"
 "http://www.w3.org/Graphics/SVG/1.1/DTD/svg11.dtd">
<!-- Generated by graphviz version 2.47.0 (20210316.0004)
 -->
<!-- Title: dependencies Pages: 1 -->
<svg width="896pt" height="211pt"
 viewBox="0.00 0.00 896.00 211.00" xmlns="http://www.w3.org/2000/svg" xmlns:xlink="http://www.w3.org/1999/xlink">
<g id="graph0" class="graph" transform="scale(1 1) rotate(0) translate(4 207)">
<title>dependencies</title>
<polygon fill="white" stroke="transparent" points="-4,4 -4,-207 892,-207 892,4 -4,4"/>
<text text-anchor="start" x="423.01" y="-42.4" font-family="sans-serif" font-weight="bold" font-size="14.00">Legend</text>
<polygon fill="#ffffb3" stroke="transparent" points="210,-10 210,-30 230,-30 230,-10 210,-10"/>
<text text-anchor="start" x="233.63" y="-15.4" font-family="sans-serif" font-size="14.00"> &#160;Declarations</text>
<polygon fill="#8dd3c7" stroke="transparent" points="323,-10 323,-30 343,-30 343,-10 323,-10"/>
<text text-anchor="start" x="346.73" y="-15.4" font-family="sans-serif" font-size="14.00"> &#160;Module</text>
<polygon fill="#80b1d3" stroke="transparent" points="409,-10 409,-30 429,-30 429,-10 409,-10"/>
<text text-anchor="start" x="432.78" y="-15.4" font-family="sans-serif" font-size="14.00"> &#160;Bootstrap</text>
<polygon fill="#fdb462" stroke="transparent" points="506,-10 506,-30 526,-30 526,-10 506,-10"/>
<text text-anchor="start" x="529.67" y="-15.4" font-family="sans-serif" font-size="14.00"> &#160;Providers</text>
<polygon fill="#fb8072" stroke="transparent" points="602,-10 602,-30 622,-30 622,-10 602,-10"/>
<text text-anchor="start" x="625.73" y="-15.4" font-family="sans-serif" font-size="14.00"> &#160;Exports</text>
<g id="clust1" class="cluster">
<title>cluster_SettingsModule</title>
<polygon fill="none" stroke="black" stroke-dasharray="1,5" points="8,-70 8,-195 880,-195 880,-70 8,-70"/>
</g>
<g id="clust2" class="cluster">
<title>cluster_SettingsModule_declarations</title>
<polygon fill="none" stroke="black" points="702,-78 702,-130 872,-130 872,-78 702,-78"/>
</g>
<g id="clust7" class="cluster">
<title>cluster_SettingsModule_providers</title>
<polygon fill="none" stroke="black" points="536,-78 536,-130 694,-130 694,-78 536,-78"/>
</g>
<g id="clust4" class="cluster">
<title>cluster_SettingsModule_imports</title>
<polygon fill="none" stroke="black" points="16,-78 16,-130 528,-130 528,-78 16,-78"/>
</g>
<!-- AdsManagerComponent -->
<g id="node1" class="node">
<title>AdsManagerComponent</title>
<polygon fill="#ffffb3" stroke="black" points="863.63,-122 710.37,-122 710.37,-86 863.63,-86 863.63,-122"/>
<text text-anchor="middle" x="787" y="-99.8" font-family="Times,serif" font-size="14.00">AdsManagerComponent</text>
</g>
<!-- SettingsModule -->
<g id="node2" class="node">
<title>SettingsModule</title>
<polygon fill="#8dd3c7" stroke="black" points="459.16,-187 456.16,-191 435.16,-191 432.16,-187 354.84,-187 354.84,-151 459.16,-151 459.16,-187"/>
<text text-anchor="middle" x="407" y="-164.8" font-family="Times,serif" font-size="14.00">SettingsModule</text>
</g>
<!-- AdsManagerComponent&#45;&gt;SettingsModule -->
<g id="edge1" class="edge">
<title>AdsManagerComponent&#45;&gt;SettingsModule</title>
<path fill="none" stroke="black" d="M787,-122.28C787,-143.32 787,-175 787,-175 787,-175 469.44,-175 469.44,-175"/>
<polygon fill="black" stroke="black" points="469.44,-171.5 459.44,-175 469.44,-178.5 469.44,-171.5"/>
</g>
<!-- AuthModule -->
<g id="node3" class="node">
<title>AuthModule</title>
<polygon fill="#8dd3c7" stroke="black" points="519.55,-122 516.55,-126 495.55,-126 492.55,-122 432.45,-122 432.45,-86 519.55,-86 519.55,-122"/>
<text text-anchor="middle" x="476" y="-99.8" font-family="Times,serif" font-size="14.00">AuthModule</text>
</g>
<!-- AuthModule&#45;&gt;SettingsModule -->
<g id="edge2" class="edge">
<title>AuthModule&#45;&gt;SettingsModule</title>
<path fill="none" stroke="black" d="M445.78,-122.11C445.78,-122.11 445.78,-140.99 445.78,-140.99"/>
<polygon fill="black" stroke="black" points="442.28,-140.99 445.78,-150.99 449.28,-140.99 442.28,-140.99"/>
</g>
<!-- SettingsRoutingModule -->
<g id="node4" class="node">
<title>SettingsRoutingModule</title>
<polygon fill="#8dd3c7" stroke="black" points="413.78,-122 410.78,-126 389.78,-126 386.78,-122 264.22,-122 264.22,-86 413.78,-86 413.78,-122"/>
<text text-anchor="middle" x="339" y="-99.8" font-family="Times,serif" font-size="14.00">SettingsRoutingModule</text>
</g>
<!-- SettingsRoutingModule&#45;&gt;SettingsModule -->
<g id="edge3" class="edge">
<title>SettingsRoutingModule&#45;&gt;SettingsModule</title>
<path fill="none" stroke="black" d="M384.28,-122.11C384.28,-122.11 384.28,-140.99 384.28,-140.99"/>
<polygon fill="black" stroke="black" points="380.78,-140.99 384.28,-150.99 387.78,-140.99 380.78,-140.99"/>
</g>
<!-- ThemeModule -->
<g id="node5" class="node">
<title>ThemeModule</title>
<polygon fill="#8dd3c7" stroke="black" points="246.42,-122 243.42,-126 222.42,-126 219.42,-122 147.58,-122 147.58,-86 246.42,-86 246.42,-122"/>
<text text-anchor="middle" x="197" y="-99.8" font-family="Times,serif" font-size="14.00">ThemeModule</text>
</g>
<!-- ThemeModule&#45;&gt;SettingsModule -->
<g id="edge4" class="edge">
<title>ThemeModule&#45;&gt;SettingsModule</title>
<path fill="none" stroke="black" d="M197,-122.02C197,-139.37 197,-163 197,-163 197,-163 344.82,-163 344.82,-163"/>
<polygon fill="black" stroke="black" points="344.82,-166.5 354.82,-163 344.82,-159.5 344.82,-166.5"/>
</g>
<!-- WidgetsModule -->
<g id="node6" class="node">
<title>WidgetsModule</title>
<polygon fill="#8dd3c7" stroke="black" points="130.2,-122 127.2,-126 106.2,-126 103.2,-122 23.8,-122 23.8,-86 130.2,-86 130.2,-122"/>
<text text-anchor="middle" x="77" y="-99.8" font-family="Times,serif" font-size="14.00">WidgetsModule</text>
</g>
<!-- WidgetsModule&#45;&gt;SettingsModule -->
<g id="edge5" class="edge">
<title>WidgetsModule&#45;&gt;SettingsModule</title>
<path fill="none" stroke="black" d="M77,-122.28C77,-143.32 77,-175 77,-175 77,-175 344.71,-175 344.71,-175"/>
<polygon fill="black" stroke="black" points="344.71,-178.5 354.71,-175 344.71,-171.5 344.71,-178.5"/>
</g>
<!-- SettingsService -->
<g id="node7" class="node">
<title>SettingsService</title>
<ellipse fill="#fdb462" stroke="black" cx="615" cy="-104" rx="71.22" ry="18"/>
<text text-anchor="middle" x="615" y="-99.8" font-family="Times,serif" font-size="14.00">SettingsService</text>
</g>
<!-- SettingsService&#45;&gt;SettingsModule -->
<g id="edge6" class="edge">
<title>SettingsService&#45;&gt;SettingsModule</title>
<path fill="none" stroke="black" d="M615,-122.02C615,-139.37 615,-163 615,-163 615,-163 469.22,-163 469.22,-163"/>
<polygon fill="black" stroke="black" points="469.22,-159.5 459.22,-163 469.22,-166.5 469.22,-159.5"/>
</g>
</g>
</svg>
