<?xml version="1.0" encoding="UTF-8" standalone="no"?>
<!DOCTYPE svg PUBLIC "-//W3C//DTD SVG 1.1//EN"
 "http://www.w3.org/Graphics/SVG/1.1/DTD/svg11.dtd">
<!-- Generated by graphviz version 2.47.0 (20210316.0004)
 -->
<!-- Title: dependencies Pages: 1 -->
<svg width="6940pt" height="284pt"
 viewBox="0.00 0.00 6940.00 284.00" xmlns="http://www.w3.org/2000/svg" xmlns:xlink="http://www.w3.org/1999/xlink">
<g id="graph0" class="graph" transform="scale(1 1) rotate(0) translate(4 280)">
<title>dependencies</title>
<polygon fill="white" stroke="transparent" points="-4,4 -4,-280 6936,-280 6936,4 -4,4"/>
<text text-anchor="start" x="3445.01" y="-42.4" font-family="sans-serif" font-weight="bold" font-size="14.00">Legend</text>
<polygon fill="#ffffb3" stroke="transparent" points="3232,-10 3232,-30 3252,-30 3252,-10 3232,-10"/>
<text text-anchor="start" x="3255.63" y="-15.4" font-family="sans-serif" font-size="14.00"> &#160;Declarations</text>
<polygon fill="#8dd3c7" stroke="transparent" points="3345,-10 3345,-30 3365,-30 3365,-10 3345,-10"/>
<text text-anchor="start" x="3368.73" y="-15.4" font-family="sans-serif" font-size="14.00"> &#160;Module</text>
<polygon fill="#80b1d3" stroke="transparent" points="3431,-10 3431,-30 3451,-30 3451,-10 3431,-10"/>
<text text-anchor="start" x="3454.78" y="-15.4" font-family="sans-serif" font-size="14.00"> &#160;Bootstrap</text>
<polygon fill="#fdb462" stroke="transparent" points="3528,-10 3528,-30 3548,-30 3548,-10 3528,-10"/>
<text text-anchor="start" x="3551.67" y="-15.4" font-family="sans-serif" font-size="14.00"> &#160;Providers</text>
<polygon fill="#fb8072" stroke="transparent" points="3624,-10 3624,-30 3644,-30 3644,-10 3624,-10"/>
<text text-anchor="start" x="3647.73" y="-15.4" font-family="sans-serif" font-size="14.00"> &#160;Exports</text>
<g id="clust1" class="cluster">
<title>cluster_AppModule</title>
<polygon fill="none" stroke="black" stroke-dasharray="1,5" points="8,-70 8,-268 6924,-268 6924,-70 8,-70"/>
</g>
<g id="clust2" class="cluster">
<title>cluster_AppModule_declarations</title>
<polygon fill="none" stroke="black" points="5312,-78 5312,-130 6916,-130 6916,-78 5312,-78"/>
</g>
<g id="clust17" class="cluster">
<title>cluster_AppModule_providers</title>
<polygon fill="none" stroke="black" points="935,-78 935,-130 5304,-130 5304,-78 935,-78"/>
</g>
<g id="clust14" class="cluster">
<title>cluster_AppModule_imports</title>
<polygon fill="none" stroke="black" points="16,-78 16,-130 927,-130 927,-78 16,-78"/>
</g>
<g id="clust16" class="cluster">
<title>cluster_AppModule_bootstrap</title>
<polygon fill="none" stroke="black" points="3407,-208 3407,-260 3531,-260 3531,-208 3407,-208"/>
</g>
<!-- AppComponent -->
<g id="node1" class="node">
<title>AppComponent</title>
<polygon fill="#ffffb3" stroke="black" points="6907.94,-122 6802.06,-122 6802.06,-86 6907.94,-86 6907.94,-122"/>
<text text-anchor="middle" x="6855" y="-99.8" font-family="Times,serif" font-size="14.00">AppComponent</text>
</g>
<!-- AppModule -->
<g id="node12" class="node">
<title>AppModule</title>
<polygon fill="#8dd3c7" stroke="black" points="3510.66,-187 3507.66,-191 3486.66,-191 3483.66,-187 3427.34,-187 3427.34,-151 3510.66,-151 3510.66,-187"/>
<text text-anchor="middle" x="3469" y="-164.8" font-family="Times,serif" font-size="14.00">AppModule</text>
</g>
<!-- AppComponent&#45;&gt;AppModule -->
<g id="edge1" class="edge">
<title>AppComponent&#45;&gt;AppModule</title>
<path fill="none" stroke="black" d="M6855,-122.2C6855,-146.36 6855,-186 6855,-186 6855,-186 3520.89,-186 3520.89,-186"/>
<polygon fill="black" stroke="black" points="3520.89,-182.5 3510.89,-186 3520.89,-189.5 3520.89,-182.5"/>
</g>
<!-- FeedComponent -->
<g id="node2" class="node">
<title>FeedComponent</title>
<polygon fill="#ffffb3" stroke="black" points="6784.05,-122 6675.95,-122 6675.95,-86 6784.05,-86 6784.05,-122"/>
<text text-anchor="middle" x="6730" y="-99.8" font-family="Times,serif" font-size="14.00">FeedComponent</text>
</g>
<!-- FeedComponent&#45;&gt;AppModule -->
<g id="edge2" class="edge">
<title>FeedComponent&#45;&gt;AppModule</title>
<path fill="none" stroke="black" d="M6730,-122.15C6730,-145.76 6730,-184 6730,-184 6730,-184 3520.83,-184 3520.83,-184"/>
<polygon fill="black" stroke="black" points="3520.83,-180.5 3510.83,-184 3520.83,-187.5 3520.83,-180.5"/>
</g>
<!-- JoinComponent -->
<g id="node3" class="node">
<title>JoinComponent</title>
<polygon fill="#ffffb3" stroke="black" points="6657.17,-122 6552.83,-122 6552.83,-86 6657.17,-86 6657.17,-122"/>
<text text-anchor="middle" x="6605" y="-99.8" font-family="Times,serif" font-size="14.00">JoinComponent</text>
</g>
<!-- JoinComponent&#45;&gt;AppModule -->
<g id="edge3" class="edge">
<title>JoinComponent&#45;&gt;AppModule</title>
<path fill="none" stroke="black" d="M6605,-122.09C6605,-145.13 6605,-182 6605,-182 6605,-182 3520.67,-182 3520.67,-182"/>
<polygon fill="black" stroke="black" points="3520.67,-178.5 3510.67,-182 3520.67,-185.5 3520.67,-178.5"/>
</g>
<!-- LoginComponent -->
<g id="node4" class="node">
<title>LoginComponent</title>
<polygon fill="#ffffb3" stroke="black" points="6534.28,-122 6419.72,-122 6419.72,-86 6534.28,-86 6534.28,-122"/>
<text text-anchor="middle" x="6477" y="-99.8" font-family="Times,serif" font-size="14.00">LoginComponent</text>
</g>
<!-- LoginComponent&#45;&gt;AppModule -->
<g id="edge4" class="edge">
<title>LoginComponent&#45;&gt;AppModule</title>
<path fill="none" stroke="black" d="M6477,-122.25C6477,-145.02 6477,-181 6477,-181 6477,-181 3520.66,-181 3520.66,-181"/>
<polygon fill="black" stroke="black" points="3520.66,-177.5 3510.66,-181 3520.66,-184.5 3520.66,-177.5"/>
</g>
<!-- LogoutComponent -->
<g id="node5" class="node">
<title>LogoutComponent</title>
<polygon fill="#ffffb3" stroke="black" points="6401.78,-122 6280.22,-122 6280.22,-86 6401.78,-86 6401.78,-122"/>
<text text-anchor="middle" x="6341" y="-99.8" font-family="Times,serif" font-size="14.00">LogoutComponent</text>
</g>
<!-- LogoutComponent&#45;&gt;AppModule -->
<g id="edge5" class="edge">
<title>LogoutComponent&#45;&gt;AppModule</title>
<path fill="none" stroke="black" d="M6341,-122.16C6341,-144.35 6341,-179 6341,-179 6341,-179 3520.71,-179 3520.71,-179"/>
<polygon fill="black" stroke="black" points="3520.71,-175.5 3510.71,-179 3520.71,-182.5 3520.71,-175.5"/>
</g>
<!-- RequestPasswordResetComponent -->
<g id="node6" class="node">
<title>RequestPasswordResetComponent</title>
<polygon fill="#ffffb3" stroke="black" points="6262.69,-122 6051.31,-122 6051.31,-86 6262.69,-86 6262.69,-122"/>
<text text-anchor="middle" x="6157" y="-99.8" font-family="Times,serif" font-size="14.00">RequestPasswordResetComponent</text>
</g>
<!-- RequestPasswordResetComponent&#45;&gt;AppModule -->
<g id="edge6" class="edge">
<title>RequestPasswordResetComponent&#45;&gt;AppModule</title>
<path fill="none" stroke="black" d="M6157,-122.04C6157,-143.66 6157,-177 6157,-177 6157,-177 3520.68,-177 3520.68,-177"/>
<polygon fill="black" stroke="black" points="3520.68,-173.5 3510.68,-177 3520.68,-180.5 3520.68,-173.5"/>
</g>
<!-- ResetPasswordComponent -->
<g id="node7" class="node">
<title>ResetPasswordComponent</title>
<polygon fill="#ffffb3" stroke="black" points="6033.09,-122 5866.91,-122 5866.91,-86 6033.09,-86 6033.09,-122"/>
<text text-anchor="middle" x="5950" y="-99.8" font-family="Times,serif" font-size="14.00">ResetPasswordComponent</text>
</g>
<!-- ResetPasswordComponent&#45;&gt;AppModule -->
<g id="edge7" class="edge">
<title>ResetPasswordComponent&#45;&gt;AppModule</title>
<path fill="none" stroke="black" d="M5950,-122.28C5950,-143.32 5950,-175 5950,-175 5950,-175 3520.76,-175 3520.76,-175"/>
<polygon fill="black" stroke="black" points="3520.76,-171.5 3510.76,-175 3520.76,-178.5 3520.76,-171.5"/>
</g>
<!-- SideNavComponent -->
<g id="node8" class="node">
<title>SideNavComponent</title>
<polygon fill="#ffffb3" stroke="black" points="5848.54,-122 5719.46,-122 5719.46,-86 5848.54,-86 5848.54,-122"/>
<text text-anchor="middle" x="5784" y="-99.8" font-family="Times,serif" font-size="14.00">SideNavComponent</text>
</g>
<!-- SideNavComponent&#45;&gt;AppModule -->
<g id="edge8" class="edge">
<title>SideNavComponent&#45;&gt;AppModule</title>
<path fill="none" stroke="black" d="M5784,-122.03C5784,-142.77 5784,-174 5784,-174 5784,-174 3520.66,-174 3520.66,-174"/>
<polygon fill="black" stroke="black" points="3520.66,-170.5 3510.66,-174 3520.66,-177.5 3520.66,-170.5"/>
</g>
<!-- StartComponent -->
<g id="node9" class="node">
<title>StartComponent</title>
<polygon fill="#ffffb3" stroke="black" points="5700.77,-122 5593.23,-122 5593.23,-86 5700.77,-86 5700.77,-122"/>
<text text-anchor="middle" x="5647" y="-99.8" font-family="Times,serif" font-size="14.00">StartComponent</text>
</g>
<!-- StartComponent&#45;&gt;AppModule -->
<g id="edge9" class="edge">
<title>StartComponent&#45;&gt;AppModule</title>
<path fill="none" stroke="black" d="M5647,-122.22C5647,-142.37 5647,-172 5647,-172 5647,-172 3521.05,-172 3521.05,-172"/>
<polygon fill="black" stroke="black" points="3521.05,-168.5 3511.05,-172 3521.05,-175.5 3521.05,-168.5"/>
</g>
<!-- TosComponent -->
<g id="node10" class="node">
<title>TosComponent</title>
<polygon fill="#ffffb3" stroke="black" points="5575.33,-122 5472.67,-122 5472.67,-86 5575.33,-86 5575.33,-122"/>
<text text-anchor="middle" x="5524" y="-99.8" font-family="Times,serif" font-size="14.00">TosComponent</text>
</g>
<!-- TosComponent&#45;&gt;AppModule -->
<g id="edge10" class="edge">
<title>TosComponent&#45;&gt;AppModule</title>
<path fill="none" stroke="black" d="M5524,-122.03C5524,-141.58 5524,-170 5524,-170 5524,-170 3520.98,-170 3520.98,-170"/>
<polygon fill="black" stroke="black" points="3520.98,-166.5 3510.98,-170 3520.98,-173.5 3520.98,-166.5"/>
</g>
<!-- WelcomeComponent -->
<g id="node11" class="node">
<title>WelcomeComponent</title>
<polygon fill="#ffffb3" stroke="black" points="5454.47,-122 5319.53,-122 5319.53,-86 5454.47,-86 5454.47,-122"/>
<text text-anchor="middle" x="5387" y="-99.8" font-family="Times,serif" font-size="14.00">WelcomeComponent</text>
</g>
<!-- WelcomeComponent&#45;&gt;AppModule -->
<g id="edge11" class="edge">
<title>WelcomeComponent&#45;&gt;AppModule</title>
<path fill="none" stroke="black" d="M5387,-122.11C5387,-141.34 5387,-169 5387,-169 5387,-169 3520.84,-169 3520.84,-169"/>
<polygon fill="black" stroke="black" points="3520.84,-165.5 3510.84,-169 3520.84,-172.5 3520.84,-165.5"/>
</g>
<!-- AppComponent  -->
<g id="node20" class="node">
<title>AppComponent </title>
<polygon fill="#80b1d3" stroke="black" points="3523.44,-252 3414.56,-252 3414.56,-216 3523.44,-216 3523.44,-252"/>
<text text-anchor="middle" x="3469" y="-229.8" font-family="Times,serif" font-size="14.00">AppComponent </text>
</g>
<!-- AppModule&#45;&gt;AppComponent  -->
<g id="edge19" class="edge">
<title>AppModule&#45;&gt;AppComponent </title>
<path fill="none" stroke="black" stroke-dasharray="1,5" d="M3469,-187.11C3469,-187.11 3469,-205.99 3469,-205.99"/>
<polygon fill="black" stroke="black" points="3465.5,-205.99 3469,-215.99 3472.5,-205.99 3465.5,-205.99"/>
</g>
<!-- AppRoutingModule -->
<g id="node13" class="node">
<title>AppRoutingModule</title>
<polygon fill="#8dd3c7" stroke="black" points="919.27,-122 916.27,-126 895.27,-126 892.27,-122 790.73,-122 790.73,-86 919.27,-86 919.27,-122"/>
<text text-anchor="middle" x="855" y="-99.8" font-family="Times,serif" font-size="14.00">AppRoutingModule</text>
</g>
<!-- AppRoutingModule&#45;&gt;AppModule -->
<g id="edge12" class="edge">
<title>AppRoutingModule&#45;&gt;AppModule</title>
<path fill="none" stroke="black" d="M855,-122.28C855,-143.32 855,-175 855,-175 855,-175 3417.15,-175 3417.15,-175"/>
<polygon fill="black" stroke="black" points="3417.15,-178.5 3427.15,-175 3417.15,-171.5 3417.15,-178.5"/>
</g>
<!-- AuthModule -->
<g id="node14" class="node">
<title>AuthModule</title>
<polygon fill="#8dd3c7" stroke="black" points="772.55,-122 769.55,-126 748.55,-126 745.55,-122 685.45,-122 685.45,-86 772.55,-86 772.55,-122"/>
<text text-anchor="middle" x="729" y="-99.8" font-family="Times,serif" font-size="14.00">AuthModule</text>
</g>
<!-- AuthModule&#45;&gt;AppModule -->
<g id="edge13" class="edge">
<title>AuthModule&#45;&gt;AppModule</title>
<path fill="none" stroke="black" d="M729,-122.04C729,-143.66 729,-177 729,-177 729,-177 3417.33,-177 3417.33,-177"/>
<polygon fill="black" stroke="black" points="3417.33,-180.5 3427.33,-177 3417.33,-173.5 3417.33,-180.5"/>
</g>
<!-- CrudModule -->
<g id="node15" class="node">
<title>CrudModule</title>
<polygon fill="#8dd3c7" stroke="black" points="666.55,-122 663.55,-126 642.55,-126 639.55,-122 579.45,-122 579.45,-86 666.55,-86 666.55,-122"/>
<text text-anchor="middle" x="623" y="-99.8" font-family="Times,serif" font-size="14.00">CrudModule</text>
</g>
<!-- CrudModule&#45;&gt;AppModule -->
<g id="edge14" class="edge">
<title>CrudModule&#45;&gt;AppModule</title>
<path fill="none" stroke="black" d="M623,-122.16C623,-144.35 623,-179 623,-179 623,-179 3417.12,-179 3417.12,-179"/>
<polygon fill="black" stroke="black" points="3417.12,-182.5 3427.12,-179 3417.12,-175.5 3417.12,-182.5"/>
</g>
<!-- DeviceDetectorModule -->
<g id="node16" class="node">
<title>DeviceDetectorModule</title>
<polygon fill="#8dd3c7" stroke="black" points="561.88,-122 558.88,-126 537.88,-126 534.88,-122 414.12,-122 414.12,-86 561.88,-86 561.88,-122"/>
<text text-anchor="middle" x="488" y="-99.8" font-family="Times,serif" font-size="14.00">DeviceDetectorModule</text>
</g>
<!-- DeviceDetectorModule&#45;&gt;AppModule -->
<g id="edge15" class="edge">
<title>DeviceDetectorModule&#45;&gt;AppModule</title>
<path fill="none" stroke="black" d="M488,-122.25C488,-145.02 488,-181 488,-181 488,-181 3417.14,-181 3417.14,-181"/>
<polygon fill="black" stroke="black" points="3417.14,-184.5 3427.14,-181 3417.14,-177.5 3417.14,-184.5"/>
</g>
<!-- ProfileModule -->
<g id="node17" class="node">
<title>ProfileModule</title>
<polygon fill="#8dd3c7" stroke="black" points="395.65,-122 392.65,-126 371.65,-126 368.65,-122 298.35,-122 298.35,-86 395.65,-86 395.65,-122"/>
<text text-anchor="middle" x="347" y="-99.8" font-family="Times,serif" font-size="14.00">ProfileModule</text>
</g>
<!-- ProfileModule&#45;&gt;AppModule -->
<g id="edge16" class="edge">
<title>ProfileModule&#45;&gt;AppModule</title>
<path fill="none" stroke="black" d="M347,-122.09C347,-145.13 347,-182 347,-182 347,-182 3417.23,-182 3417.23,-182"/>
<polygon fill="black" stroke="black" points="3417.23,-185.5 3427.23,-182 3417.23,-178.5 3417.23,-185.5"/>
</g>
<!-- ThemeModule -->
<g id="node18" class="node">
<title>ThemeModule</title>
<polygon fill="#8dd3c7" stroke="black" points="280.42,-122 277.42,-126 256.42,-126 253.42,-122 181.58,-122 181.58,-86 280.42,-86 280.42,-122"/>
<text text-anchor="middle" x="231" y="-99.8" font-family="Times,serif" font-size="14.00">ThemeModule</text>
</g>
<!-- ThemeModule&#45;&gt;AppModule -->
<g id="edge17" class="edge">
<title>ThemeModule&#45;&gt;AppModule</title>
<path fill="none" stroke="black" d="M231,-122.15C231,-145.76 231,-184 231,-184 231,-184 3417.17,-184 3417.17,-184"/>
<polygon fill="black" stroke="black" points="3417.17,-187.5 3427.17,-184 3417.17,-180.5 3417.17,-187.5"/>
</g>
<!-- WfHoverCardModule -->
<g id="node19" class="node">
<title>WfHoverCardModule</title>
<polygon fill="#8dd3c7" stroke="black" points="163.62,-122 160.62,-126 139.62,-126 136.62,-122 24.38,-122 24.38,-86 163.62,-86 163.62,-122"/>
<text text-anchor="middle" x="94" y="-99.8" font-family="Times,serif" font-size="14.00">WfHoverCardModule</text>
</g>
<!-- WfHoverCardModule&#45;&gt;AppModule -->
<g id="edge18" class="edge">
<title>WfHoverCardModule&#45;&gt;AppModule</title>
<path fill="none" stroke="black" d="M94,-122.2C94,-146.36 94,-186 94,-186 94,-186 3417.24,-186 3417.24,-186"/>
<polygon fill="black" stroke="black" points="3417.24,-189.5 3427.24,-186 3417.24,-182.5 3417.24,-189.5"/>
</g>
<!-- AdsService -->
<g id="node21" class="node">
<title>AdsService</title>
<ellipse fill="#fdb462" stroke="black" cx="5240" cy="-104" rx="55.59" ry="18"/>
<text text-anchor="middle" x="5240" y="-99.8" font-family="Times,serif" font-size="14.00">AdsService</text>
</g>
<!-- AdsService&#45;&gt;AppModule -->
<g id="edge20" class="edge">
<title>AdsService&#45;&gt;AppModule</title>
<path fill="none" stroke="black" d="M5240,-122.22C5240,-140.83 5240,-167 5240,-167 5240,-167 3521.03,-167 3521.03,-167"/>
<polygon fill="black" stroke="black" points="3521.03,-163.5 3511.03,-167 3521.03,-170.5 3521.03,-163.5"/>
</g>
<!-- AppModalService -->
<g id="node22" class="node">
<title>AppModalService</title>
<ellipse fill="#fdb462" stroke="black" cx="5085" cy="-104" rx="81.66" ry="18"/>
<text text-anchor="middle" x="5085" y="-99.8" font-family="Times,serif" font-size="14.00">AppModalService</text>
</g>
<!-- AppModalService&#45;&gt;AppModule -->
<g id="edge21" class="edge">
<title>AppModalService&#45;&gt;AppModule</title>
<path fill="none" stroke="black" d="M5085,-122.3C5085,-140.27 5085,-165 5085,-165 5085,-165 3520.98,-165 3520.98,-165"/>
<polygon fill="black" stroke="black" points="3520.98,-161.5 3510.98,-165 3520.98,-168.5 3520.98,-161.5"/>
</g>
<!-- CommentsService -->
<g id="node23" class="node">
<title>CommentsService</title>
<ellipse fill="#fdb462" stroke="black" cx="4903" cy="-104" rx="81.68" ry="18"/>
<text text-anchor="middle" x="4903" y="-99.8" font-family="Times,serif" font-size="14.00">CommentsService</text>
</g>
<!-- CommentsService&#45;&gt;AppModule -->
<g id="edge22" class="edge">
<title>CommentsService&#45;&gt;AppModule</title>
<path fill="none" stroke="black" d="M4903,-122.02C4903,-139.37 4903,-163 4903,-163 4903,-163 3520.75,-163 3520.75,-163"/>
<polygon fill="black" stroke="black" points="3520.75,-159.5 3510.75,-163 3520.75,-166.5 3520.75,-159.5"/>
</g>
<!-- ConnectionsService -->
<g id="node24" class="node">
<title>ConnectionsService</title>
<ellipse fill="#fdb462" stroke="black" cx="4715" cy="-104" rx="88.04" ry="18"/>
<text text-anchor="middle" x="4715" y="-99.8" font-family="Times,serif" font-size="14.00">ConnectionsService</text>
</g>
<!-- ConnectionsService&#45;&gt;AppModule -->
<g id="edge23" class="edge">
<title>ConnectionsService&#45;&gt;AppModule</title>
<path fill="none" stroke="black" d="M4715,-122.03C4715,-139.06 4715,-162 4715,-162 4715,-162 3520.81,-162 3520.81,-162"/>
<polygon fill="black" stroke="black" points="3520.81,-158.5 3510.81,-162 3520.81,-165.5 3520.81,-158.5"/>
</g>
<!-- EditProfileService -->
<g id="node25" class="node">
<title>EditProfileService</title>
<ellipse fill="#fdb462" stroke="black" cx="4526" cy="-104" rx="82.24" ry="18"/>
<text text-anchor="middle" x="4526" y="-99.8" font-family="Times,serif" font-size="14.00">EditProfileService</text>
</g>
<!-- EditProfileService&#45;&gt;AppModule -->
<g id="edge24" class="edge">
<title>EditProfileService&#45;&gt;AppModule</title>
<path fill="none" stroke="black" d="M4526,-122.03C4526,-138.4 4526,-160 4526,-160 4526,-160 3520.76,-160 3520.76,-160"/>
<polygon fill="black" stroke="black" points="3520.76,-156.5 3510.76,-160 3520.76,-163.5 3520.76,-156.5"/>
</g>
<!-- FeedService -->
<g id="node26" class="node">
<title>FeedService</title>
<ellipse fill="#fdb462" stroke="black" cx="4367" cy="-104" rx="58.53" ry="18"/>
<text text-anchor="middle" x="4367" y="-99.8" font-family="Times,serif" font-size="14.00">FeedService</text>
</g>
<!-- FeedService&#45;&gt;AppModule -->
<g id="edge25" class="edge">
<title>FeedService&#45;&gt;AppModule</title>
<path fill="none" stroke="black" d="M4367,-122.28C4367,-137.95 4367,-158 4367,-158 4367,-158 3520.81,-158 3520.81,-158"/>
<polygon fill="black" stroke="black" points="3520.81,-154.5 3510.81,-158 3520.81,-161.5 3520.81,-154.5"/>
</g>
<!-- ImageIconsService -->
<g id="node27" class="node">
<title>ImageIconsService</title>
<ellipse fill="#fdb462" stroke="black" cx="4205" cy="-104" rx="85.07" ry="18"/>
<text text-anchor="middle" x="4205" y="-99.8" font-family="Times,serif" font-size="14.00">ImageIconsService</text>
</g>
<!-- ImageIconsService&#45;&gt;AppModule -->
<g id="edge26" class="edge">
<title>ImageIconsService&#45;&gt;AppModule</title>
<path fill="none" stroke="black" d="M4205,-122.24C4205,-137.57 4205,-157 4205,-157 4205,-157 3520.68,-157 3520.68,-157"/>
<polygon fill="black" stroke="black" points="3520.68,-153.5 3510.68,-157 3520.68,-160.5 3520.68,-153.5"/>
</g>
<!-- LinkProcessingService -->
<g id="node28" class="node">
<title>LinkProcessingService</title>
<ellipse fill="#fdb462" stroke="black" cx="4002" cy="-104" rx="100.14" ry="18"/>
<text text-anchor="middle" x="4002" y="-99.8" font-family="Times,serif" font-size="14.00">LinkProcessingService</text>
</g>
<!-- LinkProcessingService&#45;&gt;AppModule -->
<g id="edge27" class="edge">
<title>LinkProcessingService&#45;&gt;AppModule</title>
<path fill="none" stroke="black" d="M4002,-122.12C4002,-136.78 4002,-155 4002,-155 4002,-155 3520.82,-155 3520.82,-155"/>
<polygon fill="black" stroke="black" points="3520.82,-151.5 3510.82,-155 3520.82,-158.5 3520.82,-151.5"/>
</g>
<!-- LoadSubmitProgressService -->
<g id="node29" class="node">
<title>LoadSubmitProgressService</title>
<ellipse fill="#fdb462" stroke="black" cx="3763" cy="-104" rx="120.98" ry="18"/>
<text text-anchor="middle" x="3763" y="-99.8" font-family="Times,serif" font-size="14.00">LoadSubmitProgressService</text>
</g>
<!-- LoadSubmitProgressService&#45;&gt;AppModule -->
<g id="edge28" class="edge">
<title>LoadSubmitProgressService&#45;&gt;AppModule</title>
<path fill="none" stroke="black" d="M3763,-122.25C3763,-136.18 3763,-153 3763,-153 3763,-153 3520.81,-153 3520.81,-153"/>
<polygon fill="black" stroke="black" points="3520.81,-149.5 3510.81,-153 3520.81,-156.5 3520.81,-149.5"/>
</g>
<!-- MathService -->
<g id="node30" class="node">
<title>MathService</title>
<ellipse fill="#fdb462" stroke="black" cx="3564" cy="-104" rx="60.25" ry="18"/>
<text text-anchor="middle" x="3564" y="-99.8" font-family="Times,serif" font-size="14.00">MathService</text>
</g>
<!-- MathService&#45;&gt;AppModule -->
<g id="edge29" class="edge">
<title>MathService&#45;&gt;AppModule</title>
<path fill="none" stroke="black" d="M3507.23,-110.47C3507.23,-110.47 3507.23,-140.78 3507.23,-140.78"/>
<polygon fill="black" stroke="black" points="3503.73,-140.78 3507.23,-150.78 3510.73,-140.78 3503.73,-140.78"/>
</g>
<!-- MessengerModalsService -->
<g id="node31" class="node">
<title>MessengerModalsService</title>
<ellipse fill="#fdb462" stroke="black" cx="3375" cy="-104" rx="110.57" ry="18"/>
<text text-anchor="middle" x="3375" y="-99.8" font-family="Times,serif" font-size="14.00">MessengerModalsService</text>
</g>
<!-- MessengerModalsService&#45;&gt;AppModule -->
<g id="edge30" class="edge">
<title>MessengerModalsService&#45;&gt;AppModule</title>
<path fill="none" stroke="black" d="M3456.48,-116.23C3456.48,-116.23 3456.48,-140.68 3456.48,-140.68"/>
<polygon fill="black" stroke="black" points="3452.98,-140.68 3456.48,-150.68 3459.98,-140.68 3452.98,-140.68"/>
</g>
<!-- MessengerService -->
<g id="node32" class="node">
<title>MessengerService</title>
<ellipse fill="#fdb462" stroke="black" cx="3164" cy="-104" rx="81.64" ry="18"/>
<text text-anchor="middle" x="3164" y="-99.8" font-family="Times,serif" font-size="14.00">MessengerService</text>
</g>
<!-- MessengerService&#45;&gt;AppModule -->
<g id="edge31" class="edge">
<title>MessengerService&#45;&gt;AppModule</title>
<path fill="none" stroke="black" d="M3164,-122.25C3164,-136.18 3164,-153 3164,-153 3164,-153 3417.23,-153 3417.23,-153"/>
<polygon fill="black" stroke="black" points="3417.23,-156.5 3427.23,-153 3417.23,-149.5 3417.23,-156.5"/>
</g>
<!-- NavigationService -->
<g id="node33" class="node">
<title>NavigationService</title>
<ellipse fill="#fdb462" stroke="black" cx="2981" cy="-104" rx="82.8" ry="18"/>
<text text-anchor="middle" x="2981" y="-99.8" font-family="Times,serif" font-size="14.00">NavigationService</text>
</g>
<!-- NavigationService&#45;&gt;AppModule -->
<g id="edge32" class="edge">
<title>NavigationService&#45;&gt;AppModule</title>
<path fill="none" stroke="black" d="M2981,-122.12C2981,-136.78 2981,-155 2981,-155 2981,-155 3416.97,-155 3416.97,-155"/>
<polygon fill="black" stroke="black" points="3416.97,-158.5 3426.97,-155 3416.97,-151.5 3416.97,-158.5"/>
</g>
<!-- NotificationsService -->
<g id="node34" class="node">
<title>NotificationsService</title>
<ellipse fill="#fdb462" stroke="black" cx="2790" cy="-104" rx="90.32" ry="18"/>
<text text-anchor="middle" x="2790" y="-99.8" font-family="Times,serif" font-size="14.00">NotificationsService</text>
</g>
<!-- NotificationsService&#45;&gt;AppModule -->
<g id="edge33" class="edge">
<title>NotificationsService&#45;&gt;AppModule</title>
<path fill="none" stroke="black" d="M2790,-122.24C2790,-137.57 2790,-157 2790,-157 2790,-157 3417.29,-157 3417.29,-157"/>
<polygon fill="black" stroke="black" points="3417.29,-160.5 3427.29,-157 3417.29,-153.5 3417.29,-160.5"/>
</g>
<!-- PageFeedService -->
<g id="node35" class="node">
<title>PageFeedService</title>
<ellipse fill="#fdb462" stroke="black" cx="2604" cy="-104" rx="77.56" ry="18"/>
<text text-anchor="middle" x="2604" y="-99.8" font-family="Times,serif" font-size="14.00">PageFeedService</text>
</g>
<!-- PageFeedService&#45;&gt;AppModule -->
<g id="edge34" class="edge">
<title>PageFeedService&#45;&gt;AppModule</title>
<path fill="none" stroke="black" d="M2604,-122.28C2604,-137.95 2604,-158 2604,-158 2604,-158 3417.28,-158 3417.28,-158"/>
<polygon fill="black" stroke="black" points="3417.28,-161.5 3427.28,-158 3417.28,-154.5 3417.28,-161.5"/>
</g>
<!-- PageService -->
<g id="node36" class="node">
<title>PageService</title>
<ellipse fill="#fdb462" stroke="black" cx="2450" cy="-104" rx="58.53" ry="18"/>
<text text-anchor="middle" x="2450" y="-99.8" font-family="Times,serif" font-size="14.00">PageService</text>
</g>
<!-- PageService&#45;&gt;AppModule -->
<g id="edge35" class="edge">
<title>PageService&#45;&gt;AppModule</title>
<path fill="none" stroke="black" d="M2450,-122.03C2450,-138.4 2450,-160 2450,-160 2450,-160 3417.15,-160 3417.15,-160"/>
<polygon fill="black" stroke="black" points="3417.15,-163.5 3427.15,-160 3417.15,-156.5 3417.15,-163.5"/>
</g>
<!-- PostingService -->
<g id="node37" class="node">
<title>PostingService</title>
<ellipse fill="#fdb462" stroke="black" cx="2304" cy="-104" rx="68.94" ry="18"/>
<text text-anchor="middle" x="2304" y="-99.8" font-family="Times,serif" font-size="14.00">PostingService</text>
</g>
<!-- PostingService&#45;&gt;AppModule -->
<g id="edge36" class="edge">
<title>PostingService&#45;&gt;AppModule</title>
<path fill="none" stroke="black" d="M2304,-122.03C2304,-139.06 2304,-162 2304,-162 2304,-162 3417.19,-162 3417.19,-162"/>
<polygon fill="black" stroke="black" points="3417.19,-165.5 3427.19,-162 3417.19,-158.5 3417.19,-165.5"/>
</g>
<!-- ProfileConnectionsService -->
<g id="node38" class="node">
<title>ProfileConnectionsService</title>
<ellipse fill="#fdb462" stroke="black" cx="2102" cy="-104" rx="114.6" ry="18"/>
<text text-anchor="middle" x="2102" y="-99.8" font-family="Times,serif" font-size="14.00">ProfileConnectionsService</text>
</g>
<!-- ProfileConnectionsService&#45;&gt;AppModule -->
<g id="edge37" class="edge">
<title>ProfileConnectionsService&#45;&gt;AppModule</title>
<path fill="none" stroke="black" d="M2102,-122.02C2102,-139.37 2102,-163 2102,-163 2102,-163 3417.34,-163 3417.34,-163"/>
<polygon fill="black" stroke="black" points="3417.34,-166.5 3427.34,-163 3417.34,-159.5 3417.34,-166.5"/>
</g>
<!-- ProfileFeedService -->
<g id="node39" class="node">
<title>ProfileFeedService</title>
<ellipse fill="#fdb462" stroke="black" cx="1884" cy="-104" rx="85.09" ry="18"/>
<text text-anchor="middle" x="1884" y="-99.8" font-family="Times,serif" font-size="14.00">ProfileFeedService</text>
</g>
<!-- ProfileFeedService&#45;&gt;AppModule -->
<g id="edge38" class="edge">
<title>ProfileFeedService&#45;&gt;AppModule</title>
<path fill="none" stroke="black" d="M1884,-122.3C1884,-140.27 1884,-165 1884,-165 1884,-165 3417.01,-165 3417.01,-165"/>
<polygon fill="black" stroke="black" points="3417.01,-168.5 3427.01,-165 3417.01,-161.5 3417.01,-168.5"/>
</g>
<!-- ProfileService -->
<g id="node40" class="node">
<title>ProfileService</title>
<ellipse fill="#fdb462" stroke="black" cx="1715" cy="-104" rx="66.05" ry="18"/>
<text text-anchor="middle" x="1715" y="-99.8" font-family="Times,serif" font-size="14.00">ProfileService</text>
</g>
<!-- ProfileService&#45;&gt;AppModule -->
<g id="edge39" class="edge">
<title>ProfileService&#45;&gt;AppModule</title>
<path fill="none" stroke="black" d="M1715,-122.22C1715,-140.83 1715,-167 1715,-167 1715,-167 3416.94,-167 3416.94,-167"/>
<polygon fill="black" stroke="black" points="3416.94,-170.5 3426.94,-167 3416.94,-163.5 3416.94,-170.5"/>
</g>
<!-- ShowAdsService -->
<g id="node41" class="node">
<title>ShowAdsService</title>
<ellipse fill="#fdb462" stroke="black" cx="1553" cy="-104" rx="77.59" ry="18"/>
<text text-anchor="middle" x="1553" y="-99.8" font-family="Times,serif" font-size="14.00">ShowAdsService</text>
</g>
<!-- ShowAdsService&#45;&gt;AppModule -->
<g id="edge40" class="edge">
<title>ShowAdsService&#45;&gt;AppModule</title>
<path fill="none" stroke="black" d="M1553,-122.11C1553,-141.34 1553,-169 1553,-169 1553,-169 3417.2,-169 3417.2,-169"/>
<polygon fill="black" stroke="black" points="3417.2,-172.5 3427.2,-169 3417.2,-165.5 3417.2,-172.5"/>
</g>
<!-- UrlViewerService -->
<g id="node42" class="node">
<title>UrlViewerService</title>
<ellipse fill="#fdb462" stroke="black" cx="1376" cy="-104" rx="81.05" ry="18"/>
<text text-anchor="middle" x="1376" y="-99.8" font-family="Times,serif" font-size="14.00">UrlViewerService</text>
</g>
<!-- UrlViewerService&#45;&gt;AppModule -->
<g id="edge41" class="edge">
<title>UrlViewerService&#45;&gt;AppModule</title>
<path fill="none" stroke="black" d="M1376,-122.03C1376,-141.58 1376,-170 1376,-170 1376,-170 3417.19,-170 3417.19,-170"/>
<polygon fill="black" stroke="black" points="3417.19,-173.5 3427.19,-170 3417.19,-166.5 3417.19,-173.5"/>
</g>
<!-- UtilitiesService -->
<g id="node43" class="node">
<title>UtilitiesService</title>
<ellipse fill="#fdb462" stroke="black" cx="1206" cy="-104" rx="71.22" ry="18"/>
<text text-anchor="middle" x="1206" y="-99.8" font-family="Times,serif" font-size="14.00">UtilitiesService</text>
</g>
<!-- UtilitiesService&#45;&gt;AppModule -->
<g id="edge42" class="edge">
<title>UtilitiesService&#45;&gt;AppModule</title>
<path fill="none" stroke="black" d="M1206,-122.22C1206,-142.37 1206,-172 1206,-172 1206,-172 3417.3,-172 3417.3,-172"/>
<polygon fill="black" stroke="black" points="3417.3,-175.5 3427.3,-172 3417.3,-168.5 3417.3,-175.5"/>
</g>
<!-- WbWindowService -->
<g id="node44" class="node">
<title>WbWindowService</title>
<ellipse fill="#fdb462" stroke="black" cx="1030" cy="-104" rx="87.38" ry="18"/>
<text text-anchor="middle" x="1030" y="-99.8" font-family="Times,serif" font-size="14.00">WbWindowService</text>
</g>
<!-- WbWindowService&#45;&gt;AppModule -->
<g id="edge43" class="edge">
<title>WbWindowService&#45;&gt;AppModule</title>
<path fill="none" stroke="black" d="M1030,-122.03C1030,-142.77 1030,-174 1030,-174 1030,-174 3417.18,-174 3417.18,-174"/>
<polygon fill="black" stroke="black" points="3417.18,-177.5 3427.18,-174 3417.18,-170.5 3417.18,-177.5"/>
</g>
</g>
</svg>
