<?xml version="1.0" encoding="UTF-8" standalone="no"?>
<!DOCTYPE svg PUBLIC "-//W3C//DTD SVG 1.1//EN"
 "http://www.w3.org/Graphics/SVG/1.1/DTD/svg11.dtd">
<!-- Generated by graphviz version 2.47.0 (20210316.0004)
 -->
<!-- Title: dependencies Pages: 1 -->
<svg width="666pt" height="211pt"
 viewBox="0.00 0.00 666.00 211.00" xmlns="http://www.w3.org/2000/svg" xmlns:xlink="http://www.w3.org/1999/xlink">
<g id="graph0" class="graph" transform="scale(1 1) rotate(0) translate(4 207)">
<title>dependencies</title>
<polygon fill="white" stroke="transparent" points="-4,4 -4,-207 662,-207 662,4 -4,4"/>
<text text-anchor="start" x="308.01" y="-42.4" font-family="sans-serif" font-weight="bold" font-size="14.00">Legend</text>
<polygon fill="#ffffb3" stroke="transparent" points="95,-10 95,-30 115,-30 115,-10 95,-10"/>
<text text-anchor="start" x="118.63" y="-15.4" font-family="sans-serif" font-size="14.00"> &#160;Declarations</text>
<polygon fill="#8dd3c7" stroke="transparent" points="208,-10 208,-30 228,-30 228,-10 208,-10"/>
<text text-anchor="start" x="231.73" y="-15.4" font-family="sans-serif" font-size="14.00"> &#160;Module</text>
<polygon fill="#80b1d3" stroke="transparent" points="294,-10 294,-30 314,-30 314,-10 294,-10"/>
<text text-anchor="start" x="317.78" y="-15.4" font-family="sans-serif" font-size="14.00"> &#160;Bootstrap</text>
<polygon fill="#fdb462" stroke="transparent" points="391,-10 391,-30 411,-30 411,-10 391,-10"/>
<text text-anchor="start" x="414.67" y="-15.4" font-family="sans-serif" font-size="14.00"> &#160;Providers</text>
<polygon fill="#fb8072" stroke="transparent" points="487,-10 487,-30 507,-30 507,-10 487,-10"/>
<text text-anchor="start" x="510.73" y="-15.4" font-family="sans-serif" font-size="14.00"> &#160;Exports</text>
<g id="clust1" class="cluster">
<title>cluster_AdsManagerModule</title>
<polygon fill="none" stroke="black" stroke-dasharray="1,5" points="8,-70 8,-195 650,-195 650,-70 8,-70"/>
</g>
<g id="clust2" class="cluster">
<title>cluster_AdsManagerModule_declarations</title>
<polygon fill="none" stroke="black" points="472,-78 472,-130 642,-130 642,-78 472,-78"/>
</g>
<g id="clust4" class="cluster">
<title>cluster_AdsManagerModule_imports</title>
<polygon fill="none" stroke="black" points="16,-78 16,-130 464,-130 464,-78 16,-78"/>
</g>
<!-- AdsManagerComponent -->
<g id="node1" class="node">
<title>AdsManagerComponent</title>
<polygon fill="#ffffb3" stroke="black" points="633.63,-122 480.37,-122 480.37,-86 633.63,-86 633.63,-122"/>
<text text-anchor="middle" x="557" y="-99.8" font-family="Times,serif" font-size="14.00">AdsManagerComponent</text>
</g>
<!-- AdsManagerModule -->
<g id="node2" class="node">
<title>AdsManagerModule</title>
<polygon fill="#8dd3c7" stroke="black" points="349.85,-187 346.85,-191 325.85,-191 322.85,-187 218.15,-187 218.15,-151 349.85,-151 349.85,-187"/>
<text text-anchor="middle" x="284" y="-164.8" font-family="Times,serif" font-size="14.00">AdsManagerModule</text>
</g>
<!-- AdsManagerComponent&#45;&gt;AdsManagerModule -->
<g id="edge1" class="edge">
<title>AdsManagerComponent&#45;&gt;AdsManagerModule</title>
<path fill="none" stroke="black" d="M557,-122.11C557,-141.34 557,-169 557,-169 557,-169 360.09,-169 360.09,-169"/>
<polygon fill="black" stroke="black" points="360.09,-165.5 350.09,-169 360.09,-172.5 360.09,-165.5"/>
</g>
<!-- AdsManagerRoutingModule -->
<g id="node3" class="node">
<title>AdsManagerRoutingModule</title>
<polygon fill="#8dd3c7" stroke="black" points="456.47,-122 453.47,-126 432.47,-126 429.47,-122 279.53,-122 279.53,-86 456.47,-86 456.47,-122"/>
<text text-anchor="middle" x="368" y="-99.8" font-family="Times,serif" font-size="14.00">AdsManagerRoutingModule</text>
</g>
<!-- AdsManagerRoutingModule&#45;&gt;AdsManagerModule -->
<g id="edge2" class="edge">
<title>AdsManagerRoutingModule&#45;&gt;AdsManagerModule</title>
<path fill="none" stroke="black" d="M314.72,-122.11C314.72,-122.11 314.72,-140.99 314.72,-140.99"/>
<polygon fill="black" stroke="black" points="311.22,-140.99 314.72,-150.99 318.22,-140.99 311.22,-140.99"/>
</g>
<!-- AdsThemeModule -->
<g id="node4" class="node">
<title>AdsThemeModule</title>
<polygon fill="#8dd3c7" stroke="black" points="261.47,-122 258.47,-126 237.47,-126 234.47,-122 140.53,-122 140.53,-86 261.47,-86 261.47,-122"/>
<text text-anchor="middle" x="201" y="-99.8" font-family="Times,serif" font-size="14.00">AdsThemeModule</text>
</g>
<!-- AdsThemeModule&#45;&gt;AdsManagerModule -->
<g id="edge3" class="edge">
<title>AdsThemeModule&#45;&gt;AdsManagerModule</title>
<path fill="none" stroke="black" d="M239.78,-122.11C239.78,-122.11 239.78,-140.99 239.78,-140.99"/>
<polygon fill="black" stroke="black" points="236.28,-140.99 239.78,-150.99 243.28,-140.99 236.28,-140.99"/>
</g>
<!-- ThemeModule -->
<g id="node5" class="node">
<title>ThemeModule</title>
<polygon fill="#8dd3c7" stroke="black" points="122.42,-122 119.42,-126 98.42,-126 95.42,-122 23.58,-122 23.58,-86 122.42,-86 122.42,-122"/>
<text text-anchor="middle" x="73" y="-99.8" font-family="Times,serif" font-size="14.00">ThemeModule</text>
</g>
<!-- ThemeModule&#45;&gt;AdsManagerModule -->
<g id="edge4" class="edge">
<title>ThemeModule&#45;&gt;AdsManagerModule</title>
<path fill="none" stroke="black" d="M73,-122.11C73,-141.34 73,-169 73,-169 73,-169 208.11,-169 208.11,-169"/>
<polygon fill="black" stroke="black" points="208.11,-172.5 218.11,-169 208.11,-165.5 208.11,-172.5"/>
</g>
</g>
</svg>
