<?xml version="1.0" encoding="UTF-8" standalone="no"?>
<!DOCTYPE svg PUBLIC "-//W3C//DTD SVG 1.1//EN"
 "http://www.w3.org/Graphics/SVG/1.1/DTD/svg11.dtd">
<!-- Generated by graphviz version 2.47.0 (20210316.0004)
 -->
<!-- Title: dependencies Pages: 1 -->
<svg width="647pt" height="211pt"
 viewBox="0.00 0.00 647.00 211.00" xmlns="http://www.w3.org/2000/svg" xmlns:xlink="http://www.w3.org/1999/xlink">
<g id="graph0" class="graph" transform="scale(1 1) rotate(0) translate(4 207)">
<title>dependencies</title>
<polygon fill="white" stroke="transparent" points="-4,4 -4,-207 643,-207 643,4 -4,4"/>
<text text-anchor="start" x="298.51" y="-42.4" font-family="sans-serif" font-weight="bold" font-size="14.00">Legend</text>
<polygon fill="#ffffb3" stroke="transparent" points="85.5,-10 85.5,-30 105.5,-30 105.5,-10 85.5,-10"/>
<text text-anchor="start" x="109.13" y="-15.4" font-family="sans-serif" font-size="14.00"> &#160;Declarations</text>
<polygon fill="#8dd3c7" stroke="transparent" points="198.5,-10 198.5,-30 218.5,-30 218.5,-10 198.5,-10"/>
<text text-anchor="start" x="222.23" y="-15.4" font-family="sans-serif" font-size="14.00"> &#160;Module</text>
<polygon fill="#80b1d3" stroke="transparent" points="284.5,-10 284.5,-30 304.5,-30 304.5,-10 284.5,-10"/>
<text text-anchor="start" x="308.28" y="-15.4" font-family="sans-serif" font-size="14.00"> &#160;Bootstrap</text>
<polygon fill="#fdb462" stroke="transparent" points="381.5,-10 381.5,-30 401.5,-30 401.5,-10 381.5,-10"/>
<text text-anchor="start" x="405.17" y="-15.4" font-family="sans-serif" font-size="14.00"> &#160;Providers</text>
<polygon fill="#fb8072" stroke="transparent" points="477.5,-10 477.5,-30 497.5,-30 497.5,-10 477.5,-10"/>
<text text-anchor="start" x="501.23" y="-15.4" font-family="sans-serif" font-size="14.00"> &#160;Exports</text>
<g id="clust1" class="cluster">
<title>cluster_AccountsModule</title>
<polygon fill="none" stroke="black" stroke-dasharray="1,5" points="8,-70 8,-195 631,-195 631,-70 8,-70"/>
</g>
<g id="clust2" class="cluster">
<title>cluster_AccountsModule_declarations</title>
<polygon fill="none" stroke="black" points="453,-78 453,-130 623,-130 623,-78 453,-78"/>
</g>
<g id="clust4" class="cluster">
<title>cluster_AccountsModule_imports</title>
<polygon fill="none" stroke="black" points="16,-78 16,-130 445,-130 445,-78 16,-78"/>
</g>
<!-- AdsManagerComponent -->
<g id="node1" class="node">
<title>AdsManagerComponent</title>
<polygon fill="#ffffb3" stroke="black" points="614.63,-122 461.37,-122 461.37,-86 614.63,-86 614.63,-122"/>
<text text-anchor="middle" x="538" y="-99.8" font-family="Times,serif" font-size="14.00">AdsManagerComponent</text>
</g>
<!-- AccountsModule -->
<g id="node2" class="node">
<title>AccountsModule</title>
<polygon fill="#8dd3c7" stroke="black" points="335.42,-187 332.42,-191 311.42,-191 308.42,-187 222.58,-187 222.58,-151 335.42,-151 335.42,-187"/>
<text text-anchor="middle" x="279" y="-164.8" font-family="Times,serif" font-size="14.00">AccountsModule</text>
</g>
<!-- AdsManagerComponent&#45;&gt;AccountsModule -->
<g id="edge1" class="edge">
<title>AdsManagerComponent&#45;&gt;AccountsModule</title>
<path fill="none" stroke="black" d="M538,-122.11C538,-141.34 538,-169 538,-169 538,-169 345.52,-169 345.52,-169"/>
<polygon fill="black" stroke="black" points="345.52,-165.5 335.52,-169 345.52,-172.5 345.52,-165.5"/>
</g>
<!-- AccountsRoutingModule -->
<g id="node3" class="node">
<title>AccountsRoutingModule</title>
<polygon fill="#8dd3c7" stroke="black" points="436.54,-122 433.54,-126 412.54,-126 409.54,-122 279.46,-122 279.46,-86 436.54,-86 436.54,-122"/>
<text text-anchor="middle" x="358" y="-99.8" font-family="Times,serif" font-size="14.00">AccountsRoutingModule</text>
</g>
<!-- AccountsRoutingModule&#45;&gt;AccountsModule -->
<g id="edge2" class="edge">
<title>AccountsRoutingModule&#45;&gt;AccountsModule</title>
<path fill="none" stroke="black" d="M307.22,-122.11C307.22,-122.11 307.22,-140.99 307.22,-140.99"/>
<polygon fill="black" stroke="black" points="303.72,-140.99 307.22,-150.99 310.72,-140.99 303.72,-140.99"/>
</g>
<!-- AdsThemeModule -->
<g id="node4" class="node">
<title>AdsThemeModule</title>
<polygon fill="#8dd3c7" stroke="black" points="261.47,-122 258.47,-126 237.47,-126 234.47,-122 140.53,-122 140.53,-86 261.47,-86 261.47,-122"/>
<text text-anchor="middle" x="201" y="-99.8" font-family="Times,serif" font-size="14.00">AdsThemeModule</text>
</g>
<!-- AdsThemeModule&#45;&gt;AccountsModule -->
<g id="edge3" class="edge">
<title>AdsThemeModule&#45;&gt;AccountsModule</title>
<path fill="none" stroke="black" d="M242.14,-122.11C242.14,-122.11 242.14,-140.99 242.14,-140.99"/>
<polygon fill="black" stroke="black" points="238.64,-140.99 242.14,-150.99 245.64,-140.99 238.64,-140.99"/>
</g>
<!-- ThemeModule -->
<g id="node5" class="node">
<title>ThemeModule</title>
<polygon fill="#8dd3c7" stroke="black" points="122.42,-122 119.42,-126 98.42,-126 95.42,-122 23.58,-122 23.58,-86 122.42,-86 122.42,-122"/>
<text text-anchor="middle" x="73" y="-99.8" font-family="Times,serif" font-size="14.00">ThemeModule</text>
</g>
<!-- ThemeModule&#45;&gt;AccountsModule -->
<g id="edge4" class="edge">
<title>ThemeModule&#45;&gt;AccountsModule</title>
<path fill="none" stroke="black" d="M73,-122.11C73,-141.34 73,-169 73,-169 73,-169 212.71,-169 212.71,-169"/>
<polygon fill="black" stroke="black" points="212.71,-172.5 222.71,-169 212.71,-165.5 212.71,-172.5"/>
</g>
</g>
</svg>
