<?xml version="1.0" encoding="UTF-8" standalone="no"?>
<!DOCTYPE svg PUBLIC "-//W3C//DTD SVG 1.1//EN"
 "http://www.w3.org/Graphics/SVG/1.1/DTD/svg11.dtd">
<!-- Generated by graphviz version 2.47.0 (20210316.0004)
 -->
<!-- Title: dependencies Pages: 1 -->
<svg width="1196pt" height="211pt"
 viewBox="0.00 0.00 1196.00 211.00" xmlns="http://www.w3.org/2000/svg" xmlns:xlink="http://www.w3.org/1999/xlink">
<g id="graph0" class="graph" transform="scale(1 1) rotate(0) translate(4 207)">
<title>dependencies</title>
<polygon fill="white" stroke="transparent" points="-4,4 -4,-207 1192,-207 1192,4 -4,4"/>
<text text-anchor="start" x="573.01" y="-42.4" font-family="sans-serif" font-weight="bold" font-size="14.00">Legend</text>
<polygon fill="#ffffb3" stroke="transparent" points="360,-10 360,-30 380,-30 380,-10 360,-10"/>
<text text-anchor="start" x="383.63" y="-15.4" font-family="sans-serif" font-size="14.00"> &#160;Declarations</text>
<polygon fill="#8dd3c7" stroke="transparent" points="473,-10 473,-30 493,-30 493,-10 473,-10"/>
<text text-anchor="start" x="496.73" y="-15.4" font-family="sans-serif" font-size="14.00"> &#160;Module</text>
<polygon fill="#80b1d3" stroke="transparent" points="559,-10 559,-30 579,-30 579,-10 559,-10"/>
<text text-anchor="start" x="582.78" y="-15.4" font-family="sans-serif" font-size="14.00"> &#160;Bootstrap</text>
<polygon fill="#fdb462" stroke="transparent" points="656,-10 656,-30 676,-30 676,-10 656,-10"/>
<text text-anchor="start" x="679.67" y="-15.4" font-family="sans-serif" font-size="14.00"> &#160;Providers</text>
<polygon fill="#fb8072" stroke="transparent" points="752,-10 752,-30 772,-30 772,-10 752,-10"/>
<text text-anchor="start" x="775.73" y="-15.4" font-family="sans-serif" font-size="14.00"> &#160;Exports</text>
<g id="clust1" class="cluster">
<title>cluster_AdsModule</title>
<polygon fill="none" stroke="black" stroke-dasharray="1,5" points="8,-70 8,-195 1180,-195 1180,-70 8,-70"/>
</g>
<g id="clust2" class="cluster">
<title>cluster_AdsModule_declarations</title>
<polygon fill="none" stroke="black" points="638,-78 638,-130 1172,-130 1172,-78 638,-78"/>
</g>
<g id="clust6" class="cluster">
<title>cluster_AdsModule_imports</title>
<polygon fill="none" stroke="black" points="16,-78 16,-130 630,-130 630,-78 16,-78"/>
</g>
<!-- AdsManagerComponent -->
<g id="node1" class="node">
<title>AdsManagerComponent</title>
<polygon fill="#ffffb3" stroke="black" points="1163.63,-122 1010.37,-122 1010.37,-86 1163.63,-86 1163.63,-122"/>
<text text-anchor="middle" x="1087" y="-99.8" font-family="Times,serif" font-size="14.00">AdsManagerComponent</text>
</g>
<!-- AdsModule -->
<g id="node4" class="node">
<title>AdsModule</title>
<polygon fill="#8dd3c7" stroke="black" points="599.1,-187 596.1,-191 575.1,-191 572.1,-187 516.9,-187 516.9,-151 599.1,-151 599.1,-187"/>
<text text-anchor="middle" x="558" y="-164.8" font-family="Times,serif" font-size="14.00">AdsModule</text>
</g>
<!-- AdsManagerComponent&#45;&gt;AdsModule -->
<g id="edge1" class="edge">
<title>AdsManagerComponent&#45;&gt;AdsModule</title>
<path fill="none" stroke="black" d="M1087,-122.29C1087,-144.21 1087,-178 1087,-178 1087,-178 609.07,-178 609.07,-178"/>
<polygon fill="black" stroke="black" points="609.07,-174.5 599.07,-178 609.07,-181.5 609.07,-174.5"/>
</g>
<!-- EditCompaignLeftComponent -->
<g id="node2" class="node">
<title>EditCompaignLeftComponent</title>
<polygon fill="#ffffb3" stroke="black" points="992.32,-122 805.68,-122 805.68,-86 992.32,-86 992.32,-122"/>
<text text-anchor="middle" x="899" y="-99.8" font-family="Times,serif" font-size="14.00">EditCompaignLeftComponent</text>
</g>
<!-- EditCompaignLeftComponent&#45;&gt;AdsModule -->
<g id="edge2" class="edge">
<title>EditCompaignLeftComponent&#45;&gt;AdsModule</title>
<path fill="none" stroke="black" d="M899,-122.11C899,-141.34 899,-169 899,-169 899,-169 609.13,-169 609.13,-169"/>
<polygon fill="black" stroke="black" points="609.13,-165.5 599.13,-169 609.13,-172.5 609.13,-165.5"/>
</g>
<!-- ValidateDateDirective -->
<g id="node3" class="node">
<title>ValidateDateDirective</title>
<polygon fill="#ffffb3" stroke="black" points="787.93,-122 646.07,-122 646.07,-86 787.93,-86 787.93,-122"/>
<text text-anchor="middle" x="717" y="-99.8" font-family="Times,serif" font-size="14.00">ValidateDateDirective</text>
</g>
<!-- ValidateDateDirective&#45;&gt;AdsModule -->
<g id="edge3" class="edge">
<title>ValidateDateDirective&#45;&gt;AdsModule</title>
<path fill="none" stroke="black" d="M717,-122.03C717,-138.4 717,-160 717,-160 717,-160 609.36,-160 609.36,-160"/>
<polygon fill="black" stroke="black" points="609.36,-156.5 599.36,-160 609.36,-163.5 609.36,-156.5"/>
</g>
<!-- AdsRoutingModule -->
<g id="node5" class="node">
<title>AdsRoutingModule</title>
<polygon fill="#8dd3c7" stroke="black" points="621.72,-122 618.72,-126 597.72,-126 594.72,-122 494.28,-122 494.28,-86 621.72,-86 621.72,-122"/>
<text text-anchor="middle" x="558" y="-99.8" font-family="Times,serif" font-size="14.00">AdsRoutingModule</text>
</g>
<!-- AdsRoutingModule&#45;&gt;AdsModule -->
<g id="edge4" class="edge">
<title>AdsRoutingModule&#45;&gt;AdsModule</title>
<path fill="none" stroke="black" d="M558,-122.11C558,-122.11 558,-140.99 558,-140.99"/>
<polygon fill="black" stroke="black" points="554.5,-140.99 558,-150.99 561.5,-140.99 554.5,-140.99"/>
</g>
<!-- AdsThemeModule -->
<g id="node6" class="node">
<title>AdsThemeModule</title>
<polygon fill="#8dd3c7" stroke="black" points="476.47,-122 473.47,-126 452.47,-126 449.47,-122 355.53,-122 355.53,-86 476.47,-86 476.47,-122"/>
<text text-anchor="middle" x="416" y="-99.8" font-family="Times,serif" font-size="14.00">AdsThemeModule</text>
</g>
<!-- AdsThemeModule&#45;&gt;AdsModule -->
<g id="edge5" class="edge">
<title>AdsThemeModule&#45;&gt;AdsModule</title>
<path fill="none" stroke="black" d="M416,-122.03C416,-138.4 416,-160 416,-160 416,-160 506.93,-160 506.93,-160"/>
<polygon fill="black" stroke="black" points="506.93,-163.5 516.93,-160 506.93,-156.5 506.93,-163.5"/>
</g>
<!-- NgbdDatepickerAdapterModule -->
<g id="node7" class="node">
<title>NgbdDatepickerAdapterModule</title>
<polygon fill="#8dd3c7" stroke="black" points="337.65,-122 334.65,-126 313.65,-126 310.65,-122 140.35,-122 140.35,-86 337.65,-86 337.65,-122"/>
<text text-anchor="middle" x="239" y="-99.8" font-family="Times,serif" font-size="14.00">NgbdDatepickerAdapterModule</text>
</g>
<!-- NgbdDatepickerAdapterModule&#45;&gt;AdsModule -->
<g id="edge6" class="edge">
<title>NgbdDatepickerAdapterModule&#45;&gt;AdsModule</title>
<path fill="none" stroke="black" d="M239,-122.11C239,-141.34 239,-169 239,-169 239,-169 506.95,-169 506.95,-169"/>
<polygon fill="black" stroke="black" points="506.95,-172.5 516.95,-169 506.95,-165.5 506.95,-172.5"/>
</g>
<!-- ThemeModule -->
<g id="node8" class="node">
<title>ThemeModule</title>
<polygon fill="#8dd3c7" stroke="black" points="122.42,-122 119.42,-126 98.42,-126 95.42,-122 23.58,-122 23.58,-86 122.42,-86 122.42,-122"/>
<text text-anchor="middle" x="73" y="-99.8" font-family="Times,serif" font-size="14.00">ThemeModule</text>
</g>
<!-- ThemeModule&#45;&gt;AdsModule -->
<g id="edge7" class="edge">
<title>ThemeModule&#45;&gt;AdsModule</title>
<path fill="none" stroke="black" d="M73,-122.29C73,-144.21 73,-178 73,-178 73,-178 506.65,-178 506.65,-178"/>
<polygon fill="black" stroke="black" points="506.65,-181.5 516.65,-178 506.65,-174.5 506.65,-181.5"/>
</g>
</g>
</svg>
