<?xml version="1.0" encoding="UTF-8" standalone="no"?>
<!DOCTYPE svg PUBLIC "-//W3C//DTD SVG 1.1//EN"
 "http://www.w3.org/Graphics/SVG/1.1/DTD/svg11.dtd">
<!-- Generated by graphviz version 2.47.0 (20210316.0004)
 -->
<!-- Title: dependencies Pages: 1 -->
<svg width="535pt" height="211pt"
 viewBox="0.00 0.00 535.00 211.00" xmlns="http://www.w3.org/2000/svg" xmlns:xlink="http://www.w3.org/1999/xlink">
<g id="graph0" class="graph" transform="scale(1 1) rotate(0) translate(4 207)">
<title>dependencies</title>
<polygon fill="white" stroke="transparent" points="-4,4 -4,-207 531,-207 531,4 -4,4"/>
<text text-anchor="start" x="242.51" y="-42.4" font-family="sans-serif" font-weight="bold" font-size="14.00">Legend</text>
<polygon fill="#ffffb3" stroke="transparent" points="29.5,-10 29.5,-30 49.5,-30 49.5,-10 29.5,-10"/>
<text text-anchor="start" x="53.13" y="-15.4" font-family="sans-serif" font-size="14.00"> &#160;Declarations</text>
<polygon fill="#8dd3c7" stroke="transparent" points="142.5,-10 142.5,-30 162.5,-30 162.5,-10 142.5,-10"/>
<text text-anchor="start" x="166.23" y="-15.4" font-family="sans-serif" font-size="14.00"> &#160;Module</text>
<polygon fill="#80b1d3" stroke="transparent" points="228.5,-10 228.5,-30 248.5,-30 248.5,-10 228.5,-10"/>
<text text-anchor="start" x="252.28" y="-15.4" font-family="sans-serif" font-size="14.00"> &#160;Bootstrap</text>
<polygon fill="#fdb462" stroke="transparent" points="325.5,-10 325.5,-30 345.5,-30 345.5,-10 325.5,-10"/>
<text text-anchor="start" x="349.17" y="-15.4" font-family="sans-serif" font-size="14.00"> &#160;Providers</text>
<polygon fill="#fb8072" stroke="transparent" points="421.5,-10 421.5,-30 441.5,-30 441.5,-10 421.5,-10"/>
<text text-anchor="start" x="445.23" y="-15.4" font-family="sans-serif" font-size="14.00"> &#160;Exports</text>
<g id="clust1" class="cluster">
<title>cluster_StartModule</title>
<polygon fill="none" stroke="black" stroke-dasharray="1,5" points="8,-70 8,-195 519,-195 519,-70 8,-70"/>
</g>
<g id="clust4" class="cluster">
<title>cluster_StartModule_imports</title>
<polygon fill="none" stroke="black" points="194,-78 194,-130 511,-130 511,-78 194,-78"/>
</g>
<g id="clust2" class="cluster">
<title>cluster_StartModule_declarations</title>
<polygon fill="none" stroke="black" points="16,-78 16,-130 186,-130 186,-78 16,-78"/>
</g>
<!-- AdsManagerComponent -->
<g id="node1" class="node">
<title>AdsManagerComponent</title>
<polygon fill="#ffffb3" stroke="black" points="177.63,-122 24.37,-122 24.37,-86 177.63,-86 177.63,-122"/>
<text text-anchor="middle" x="101" y="-99.8" font-family="Times,serif" font-size="14.00">AdsManagerComponent</text>
</g>
<!-- StartModule -->
<g id="node2" class="node">
<title>StartModule</title>
<polygon fill="#8dd3c7" stroke="black" points="310.99,-187 307.99,-191 286.99,-191 283.99,-187 225.01,-187 225.01,-151 310.99,-151 310.99,-187"/>
<text text-anchor="middle" x="268" y="-164.8" font-family="Times,serif" font-size="14.00">StartModule</text>
</g>
<!-- AdsManagerComponent&#45;&gt;StartModule -->
<g id="edge1" class="edge">
<title>AdsManagerComponent&#45;&gt;StartModule</title>
<path fill="none" stroke="black" d="M101,-122.11C101,-141.34 101,-169 101,-169 101,-169 214.99,-169 214.99,-169"/>
<polygon fill="black" stroke="black" points="214.99,-172.5 224.99,-169 214.99,-165.5 214.99,-172.5"/>
</g>
<!-- DaywakaThemeModule -->
<g id="node3" class="node">
<title>DaywakaThemeModule</title>
<polygon fill="#8dd3c7" stroke="black" points="502.78,-122 499.78,-126 478.78,-126 475.78,-122 351.22,-122 351.22,-86 502.78,-86 502.78,-122"/>
<text text-anchor="middle" x="427" y="-99.8" font-family="Times,serif" font-size="14.00">DaywakaThemeModule</text>
</g>
<!-- DaywakaThemeModule&#45;&gt;StartModule -->
<g id="edge2" class="edge">
<title>DaywakaThemeModule&#45;&gt;StartModule</title>
<path fill="none" stroke="black" d="M427,-122.11C427,-141.34 427,-169 427,-169 427,-169 321.03,-169 321.03,-169"/>
<polygon fill="black" stroke="black" points="321.03,-165.5 311.03,-169 321.03,-172.5 321.03,-165.5"/>
</g>
<!-- StartRoutingModule -->
<g id="node4" class="node">
<title>StartRoutingModule</title>
<polygon fill="#8dd3c7" stroke="black" points="333.61,-122 330.61,-126 309.61,-126 306.61,-122 202.39,-122 202.39,-86 333.61,-86 333.61,-122"/>
<text text-anchor="middle" x="268" y="-99.8" font-family="Times,serif" font-size="14.00">StartRoutingModule</text>
</g>
<!-- StartRoutingModule&#45;&gt;StartModule -->
<g id="edge3" class="edge">
<title>StartRoutingModule&#45;&gt;StartModule</title>
<path fill="none" stroke="black" d="M268,-122.11C268,-122.11 268,-140.99 268,-140.99"/>
<polygon fill="black" stroke="black" points="264.5,-140.99 268,-150.99 271.5,-140.99 264.5,-140.99"/>
</g>
</g>
</svg>
