<?xml version="1.0" encoding="UTF-8" standalone="no"?>
<!DOCTYPE svg PUBLIC "-//W3C//DTD SVG 1.1//EN"
 "http://www.w3.org/Graphics/SVG/1.1/DTD/svg11.dtd">
<!-- Generated by graphviz version 2.47.0 (20210316.0004)
 -->
<!-- Title: dependencies Pages: 1 -->
<svg width="724pt" height="211pt"
 viewBox="0.00 0.00 724.00 211.00" xmlns="http://www.w3.org/2000/svg" xmlns:xlink="http://www.w3.org/1999/xlink">
<g id="graph0" class="graph" transform="scale(1 1) rotate(0) translate(4 207)">
<title>dependencies</title>
<polygon fill="white" stroke="transparent" points="-4,4 -4,-207 720,-207 720,4 -4,4"/>
<text text-anchor="start" x="337.01" y="-42.4" font-family="sans-serif" font-weight="bold" font-size="14.00">Legend</text>
<polygon fill="#ffffb3" stroke="transparent" points="124,-10 124,-30 144,-30 144,-10 124,-10"/>
<text text-anchor="start" x="147.63" y="-15.4" font-family="sans-serif" font-size="14.00"> &#160;Declarations</text>
<polygon fill="#8dd3c7" stroke="transparent" points="237,-10 237,-30 257,-30 257,-10 237,-10"/>
<text text-anchor="start" x="260.73" y="-15.4" font-family="sans-serif" font-size="14.00"> &#160;Module</text>
<polygon fill="#80b1d3" stroke="transparent" points="323,-10 323,-30 343,-30 343,-10 323,-10"/>
<text text-anchor="start" x="346.78" y="-15.4" font-family="sans-serif" font-size="14.00"> &#160;Bootstrap</text>
<polygon fill="#fdb462" stroke="transparent" points="420,-10 420,-30 440,-30 440,-10 420,-10"/>
<text text-anchor="start" x="443.67" y="-15.4" font-family="sans-serif" font-size="14.00"> &#160;Providers</text>
<polygon fill="#fb8072" stroke="transparent" points="516,-10 516,-30 536,-30 536,-10 516,-10"/>
<text text-anchor="start" x="539.73" y="-15.4" font-family="sans-serif" font-size="14.00"> &#160;Exports</text>
<g id="clust1" class="cluster">
<title>cluster_DwJobsModule</title>
<polygon fill="none" stroke="black" stroke-dasharray="1,5" points="8,-70 8,-195 708,-195 708,-70 8,-70"/>
</g>
<g id="clust4" class="cluster">
<title>cluster_DwJobsModule_imports</title>
<polygon fill="none" stroke="black" points="194,-78 194,-130 700,-130 700,-78 194,-78"/>
</g>
<g id="clust2" class="cluster">
<title>cluster_DwJobsModule_declarations</title>
<polygon fill="none" stroke="black" points="16,-78 16,-130 186,-130 186,-78 16,-78"/>
</g>
<!-- AdsManagerComponent -->
<g id="node1" class="node">
<title>AdsManagerComponent</title>
<polygon fill="#ffffb3" stroke="black" points="177.63,-122 24.37,-122 24.37,-86 177.63,-86 177.63,-122"/>
<text text-anchor="middle" x="101" y="-99.8" font-family="Times,serif" font-size="14.00">AdsManagerComponent</text>
</g>
<!-- DwJobsModule -->
<g id="node2" class="node">
<title>DwJobsModule</title>
<polygon fill="#8dd3c7" stroke="black" points="414.15,-187 411.15,-191 390.15,-191 387.15,-187 309.85,-187 309.85,-151 414.15,-151 414.15,-187"/>
<text text-anchor="middle" x="362" y="-164.8" font-family="Times,serif" font-size="14.00">DwJobsModule</text>
</g>
<!-- AdsManagerComponent&#45;&gt;DwJobsModule -->
<g id="edge1" class="edge">
<title>AdsManagerComponent&#45;&gt;DwJobsModule</title>
<path fill="none" stroke="black" d="M101,-122.11C101,-141.34 101,-169 101,-169 101,-169 299.81,-169 299.81,-169"/>
<polygon fill="black" stroke="black" points="299.81,-172.5 309.81,-169 299.81,-165.5 299.81,-172.5"/>
</g>
<!-- DaywakaThemeModule -->
<g id="node3" class="node">
<title>DaywakaThemeModule</title>
<polygon fill="#8dd3c7" stroke="black" points="691.78,-122 688.78,-126 667.78,-126 664.78,-122 540.22,-122 540.22,-86 691.78,-86 691.78,-122"/>
<text text-anchor="middle" x="616" y="-99.8" font-family="Times,serif" font-size="14.00">DaywakaThemeModule</text>
</g>
<!-- DaywakaThemeModule&#45;&gt;DwJobsModule -->
<g id="edge2" class="edge">
<title>DaywakaThemeModule&#45;&gt;DwJobsModule</title>
<path fill="none" stroke="black" d="M616,-122.11C616,-141.34 616,-169 616,-169 616,-169 424.32,-169 424.32,-169"/>
<polygon fill="black" stroke="black" points="424.32,-165.5 414.32,-169 424.32,-172.5 424.32,-165.5"/>
</g>
<!-- DwJobsRoutingModule -->
<g id="node4" class="node">
<title>DwJobsRoutingModule</title>
<polygon fill="#8dd3c7" stroke="black" points="521.77,-122 518.77,-126 497.77,-126 494.77,-122 372.23,-122 372.23,-86 521.77,-86 521.77,-122"/>
<text text-anchor="middle" x="447" y="-99.8" font-family="Times,serif" font-size="14.00">DwJobsRoutingModule</text>
</g>
<!-- DwJobsRoutingModule&#45;&gt;DwJobsModule -->
<g id="edge3" class="edge">
<title>DwJobsRoutingModule&#45;&gt;DwJobsModule</title>
<path fill="none" stroke="black" d="M393.22,-122.11C393.22,-122.11 393.22,-140.99 393.22,-140.99"/>
<polygon fill="black" stroke="black" points="389.72,-140.99 393.22,-150.99 396.72,-140.99 389.72,-140.99"/>
</g>
<!-- WbGoogleMapsModule -->
<g id="node5" class="node">
<title>WbGoogleMapsModule</title>
<polygon fill="#8dd3c7" stroke="black" points="354.08,-122 351.08,-126 330.08,-126 327.08,-122 201.92,-122 201.92,-86 354.08,-86 354.08,-122"/>
<text text-anchor="middle" x="278" y="-99.8" font-family="Times,serif" font-size="14.00">WbGoogleMapsModule</text>
</g>
<!-- WbGoogleMapsModule&#45;&gt;DwJobsModule -->
<g id="edge4" class="edge">
<title>WbGoogleMapsModule&#45;&gt;DwJobsModule</title>
<path fill="none" stroke="black" d="M331.86,-122.11C331.86,-122.11 331.86,-140.99 331.86,-140.99"/>
<polygon fill="black" stroke="black" points="328.36,-140.99 331.86,-150.99 335.36,-140.99 328.36,-140.99"/>
</g>
</g>
</svg>
