<?xml version="1.0" encoding="UTF-8" standalone="no"?>
<!DOCTYPE svg PUBLIC "-//W3C//DTD SVG 1.1//EN"
 "http://www.w3.org/Graphics/SVG/1.1/DTD/svg11.dtd">
<!-- Generated by graphviz version 2.47.0 (20210316.0004)
 -->
<!-- Title: dependencies Pages: 1 -->
<svg width="1171pt" height="284pt"
 viewBox="0.00 0.00 1171.00 284.00" xmlns="http://www.w3.org/2000/svg" xmlns:xlink="http://www.w3.org/1999/xlink">
<g id="graph0" class="graph" transform="scale(1 1) rotate(0) translate(4 280)">
<title>dependencies</title>
<polygon fill="white" stroke="transparent" points="-4,4 -4,-280 1167,-280 1167,4 -4,4"/>
<text text-anchor="start" x="560.51" y="-42.4" font-family="sans-serif" font-weight="bold" font-size="14.00">Legend</text>
<polygon fill="#ffffb3" stroke="transparent" points="347.5,-10 347.5,-30 367.5,-30 367.5,-10 347.5,-10"/>
<text text-anchor="start" x="371.13" y="-15.4" font-family="sans-serif" font-size="14.00"> &#160;Declarations</text>
<polygon fill="#8dd3c7" stroke="transparent" points="460.5,-10 460.5,-30 480.5,-30 480.5,-10 460.5,-10"/>
<text text-anchor="start" x="484.23" y="-15.4" font-family="sans-serif" font-size="14.00"> &#160;Module</text>
<polygon fill="#80b1d3" stroke="transparent" points="546.5,-10 546.5,-30 566.5,-30 566.5,-10 546.5,-10"/>
<text text-anchor="start" x="570.28" y="-15.4" font-family="sans-serif" font-size="14.00"> &#160;Bootstrap</text>
<polygon fill="#fdb462" stroke="transparent" points="643.5,-10 643.5,-30 663.5,-30 663.5,-10 643.5,-10"/>
<text text-anchor="start" x="667.17" y="-15.4" font-family="sans-serif" font-size="14.00"> &#160;Providers</text>
<polygon fill="#fb8072" stroke="transparent" points="739.5,-10 739.5,-30 759.5,-30 759.5,-10 739.5,-10"/>
<text text-anchor="start" x="763.23" y="-15.4" font-family="sans-serif" font-size="14.00"> &#160;Exports</text>
<g id="clust1" class="cluster">
<title>cluster_WfHoverCardModule</title>
<polygon fill="none" stroke="black" stroke-dasharray="1,5" points="8,-70 8,-268 1155,-268 1155,-70 8,-70"/>
</g>
<g id="clust2" class="cluster">
<title>cluster_WfHoverCardModule_declarations</title>
<polygon fill="none" stroke="black" points="304,-78 304,-130 1147,-130 1147,-78 304,-78"/>
</g>
<g id="clust9" class="cluster">
<title>cluster_WfHoverCardModule_exports</title>
<polygon fill="none" stroke="black" points="283,-208 283,-260 819,-260 819,-208 283,-208"/>
</g>
<g id="clust8" class="cluster">
<title>cluster_WfHoverCardModule_imports</title>
<polygon fill="none" stroke="black" points="16,-78 16,-130 296,-130 296,-78 16,-78"/>
</g>
<!-- HoverCardComponent -->
<g id="node1" class="node">
<title>HoverCardComponent</title>
<polygon fill="#ffffb3" stroke="black" points="1138.53,-122 995.47,-122 995.47,-86 1138.53,-86 1138.53,-122"/>
<text text-anchor="middle" x="1067" y="-99.8" font-family="Times,serif" font-size="14.00">HoverCardComponent</text>
</g>
<!-- WfHoverCardModule -->
<g id="node6" class="node">
<title>WfHoverCardModule</title>
<polygon fill="#8dd3c7" stroke="black" points="613.62,-187 610.62,-191 589.62,-191 586.62,-187 474.38,-187 474.38,-151 613.62,-151 613.62,-187"/>
<text text-anchor="middle" x="544" y="-164.8" font-family="Times,serif" font-size="14.00">WfHoverCardModule</text>
</g>
<!-- HoverCardComponent&#45;&gt;WfHoverCardModule -->
<g id="edge1" class="edge">
<title>HoverCardComponent&#45;&gt;WfHoverCardModule</title>
<path fill="none" stroke="black" d="M1067,-122.13C1067,-142.57 1067,-173 1067,-173 1067,-173 623.72,-173 623.72,-173"/>
<polygon fill="black" stroke="black" points="623.72,-169.5 613.72,-173 623.72,-176.5 623.72,-169.5"/>
</g>
<!-- HoverCardContainerComponent -->
<g id="node2" class="node">
<title>HoverCardContainerComponent</title>
<polygon fill="#ffffb3" stroke="black" points="977.23,-122 778.77,-122 778.77,-86 977.23,-86 977.23,-122"/>
<text text-anchor="middle" x="878" y="-99.8" font-family="Times,serif" font-size="14.00">HoverCardContainerComponent</text>
</g>
<!-- HoverCardContainerComponent&#45;&gt;WfHoverCardModule -->
<g id="edge2" class="edge">
<title>HoverCardContainerComponent&#45;&gt;WfHoverCardModule</title>
<path fill="none" stroke="black" d="M794.57,-122.27C794.57,-140.56 794.57,-166 794.57,-166 794.57,-166 623.8,-166 623.8,-166"/>
<polygon fill="black" stroke="black" points="623.8,-162.5 613.8,-166 623.8,-169.5 623.8,-162.5"/>
</g>
<!-- HoverCardDirective -->
<g id="node3" class="node">
<title>HoverCardDirective</title>
<polygon fill="#ffffb3" stroke="black" points="760.28,-122 629.72,-122 629.72,-86 760.28,-86 760.28,-122"/>
<text text-anchor="middle" x="695" y="-99.8" font-family="Times,serif" font-size="14.00">HoverCardDirective</text>
</g>
<!-- HoverCardDirective&#45;&gt;WfHoverCardModule -->
<g id="edge3" class="edge">
<title>HoverCardDirective&#45;&gt;WfHoverCardModule</title>
<path fill="none" stroke="black" d="M637.49,-122.01C637.49,-138.05 637.49,-159 637.49,-159 637.49,-159 623.9,-159 623.9,-159"/>
<polygon fill="black" stroke="black" points="623.9,-155.5 613.9,-159 623.9,-162.5 623.9,-155.5"/>
</g>
<!-- PageCardComponent -->
<g id="node4" class="node">
<title>PageCardComponent</title>
<polygon fill="#ffffb3" stroke="black" points="611.76,-122 476.24,-122 476.24,-86 611.76,-86 611.76,-122"/>
<text text-anchor="middle" x="544" y="-99.8" font-family="Times,serif" font-size="14.00">PageCardComponent</text>
</g>
<!-- PageCardComponent&#45;&gt;WfHoverCardModule -->
<g id="edge4" class="edge">
<title>PageCardComponent&#45;&gt;WfHoverCardModule</title>
<path fill="none" stroke="black" d="M544,-122.11C544,-122.11 544,-140.99 544,-140.99"/>
<polygon fill="black" stroke="black" points="540.5,-140.99 544,-150.99 547.5,-140.99 540.5,-140.99"/>
</g>
<!-- ProfileCardComponent -->
<g id="node5" class="node">
<title>ProfileCardComponent</title>
<polygon fill="#ffffb3" stroke="black" points="458.14,-122 311.86,-122 311.86,-86 458.14,-86 458.14,-122"/>
<text text-anchor="middle" x="385" y="-99.8" font-family="Times,serif" font-size="14.00">ProfileCardComponent</text>
</g>
<!-- ProfileCardComponent&#45;&gt;WfHoverCardModule -->
<g id="edge5" class="edge">
<title>ProfileCardComponent&#45;&gt;WfHoverCardModule</title>
<path fill="none" stroke="black" d="M450.6,-122.01C450.6,-138.05 450.6,-159 450.6,-159 450.6,-159 464.17,-159 464.17,-159"/>
<polygon fill="black" stroke="black" points="464.17,-162.5 474.17,-159 464.17,-155.5 464.17,-162.5"/>
</g>
<!-- HoverCardComponent  -->
<g id="node9" class="node">
<title>HoverCardComponent </title>
<polygon fill="#fb8072" stroke="black" points="810.53,-252 663.47,-252 663.47,-216 810.53,-216 810.53,-252"/>
<text text-anchor="middle" x="737" y="-229.8" font-family="Times,serif" font-size="14.00">HoverCardComponent </text>
</g>
<!-- WfHoverCardModule&#45;&gt;HoverCardComponent  -->
<g id="edge8" class="edge">
<title>WfHoverCardModule&#45;&gt;HoverCardComponent </title>
<path fill="none" stroke="black" stroke-dasharray="5,2" d="M613.71,-180C659.82,-180 711.81,-180 711.81,-180 711.81,-180 711.81,-205.72 711.81,-205.72"/>
<polygon fill="black" stroke="black" points="708.31,-205.72 711.81,-215.72 715.31,-205.72 708.31,-205.72"/>
</g>
<!-- HoverCardContainerComponent  -->
<g id="node10" class="node">
<title>HoverCardContainerComponent </title>
<polygon fill="#fb8072" stroke="black" points="645.23,-252 442.77,-252 442.77,-216 645.23,-216 645.23,-252"/>
<text text-anchor="middle" x="544" y="-229.8" font-family="Times,serif" font-size="14.00">HoverCardContainerComponent </text>
</g>
<!-- WfHoverCardModule&#45;&gt;HoverCardContainerComponent  -->
<g id="edge9" class="edge">
<title>WfHoverCardModule&#45;&gt;HoverCardContainerComponent </title>
<path fill="none" stroke="black" stroke-dasharray="5,2" d="M544,-187.11C544,-187.11 544,-205.99 544,-205.99"/>
<polygon fill="black" stroke="black" points="540.5,-205.99 544,-215.99 547.5,-205.99 540.5,-205.99"/>
</g>
<!-- HoverCardDirective  -->
<g id="node11" class="node">
<title>HoverCardDirective </title>
<polygon fill="#fb8072" stroke="black" points="424.78,-252 291.22,-252 291.22,-216 424.78,-216 424.78,-252"/>
<text text-anchor="middle" x="358" y="-229.8" font-family="Times,serif" font-size="14.00">HoverCardDirective </text>
</g>
<!-- WfHoverCardModule&#45;&gt;HoverCardDirective  -->
<g id="edge10" class="edge">
<title>WfHoverCardModule&#45;&gt;HoverCardDirective </title>
<path fill="none" stroke="black" stroke-dasharray="5,2" d="M474.3,-180C425.24,-180 368.28,-180 368.28,-180 368.28,-180 368.28,-205.72 368.28,-205.72"/>
<polygon fill="black" stroke="black" points="364.78,-205.72 368.28,-215.72 371.78,-205.72 364.78,-205.72"/>
</g>
<!-- DeviceDetectorModule -->
<g id="node7" class="node">
<title>DeviceDetectorModule</title>
<polygon fill="#8dd3c7" stroke="black" points="287.88,-122 284.88,-126 263.88,-126 260.88,-122 140.12,-122 140.12,-86 287.88,-86 287.88,-122"/>
<text text-anchor="middle" x="214" y="-99.8" font-family="Times,serif" font-size="14.00">DeviceDetectorModule</text>
</g>
<!-- DeviceDetectorModule&#45;&gt;WfHoverCardModule -->
<g id="edge6" class="edge">
<title>DeviceDetectorModule&#45;&gt;WfHoverCardModule</title>
<path fill="none" stroke="black" d="M214,-122.27C214,-140.56 214,-166 214,-166 214,-166 464.02,-166 464.02,-166"/>
<polygon fill="black" stroke="black" points="464.02,-169.5 474.02,-166 464.02,-162.5 464.02,-169.5"/>
</g>
<!-- ThemeModule -->
<g id="node8" class="node">
<title>ThemeModule</title>
<polygon fill="#8dd3c7" stroke="black" points="122.42,-122 119.42,-126 98.42,-126 95.42,-122 23.58,-122 23.58,-86 122.42,-86 122.42,-122"/>
<text text-anchor="middle" x="73" y="-99.8" font-family="Times,serif" font-size="14.00">ThemeModule</text>
</g>
<!-- ThemeModule&#45;&gt;WfHoverCardModule -->
<g id="edge7" class="edge">
<title>ThemeModule&#45;&gt;WfHoverCardModule</title>
<path fill="none" stroke="black" d="M73,-122.13C73,-142.57 73,-173 73,-173 73,-173 464.25,-173 464.25,-173"/>
<polygon fill="black" stroke="black" points="464.25,-176.5 474.25,-173 464.25,-169.5 464.25,-176.5"/>
</g>
</g>
</svg>
