<?xml version="1.0" encoding="UTF-8" standalone="no"?>
<!DOCTYPE svg PUBLIC "-//W3C//DTD SVG 1.1//EN"
 "http://www.w3.org/Graphics/SVG/1.1/DTD/svg11.dtd">
<!-- Generated by graphviz version 2.47.0 (20210316.0004)
 -->
<!-- Title: dependencies Pages: 1 -->
<svg width="704pt" height="211pt"
 viewBox="0.00 0.00 704.00 211.00" xmlns="http://www.w3.org/2000/svg" xmlns:xlink="http://www.w3.org/1999/xlink">
<g id="graph0" class="graph" transform="scale(1 1) rotate(0) translate(4 207)">
<title>dependencies</title>
<polygon fill="white" stroke="transparent" points="-4,4 -4,-207 700,-207 700,4 -4,4"/>
<text text-anchor="start" x="327.01" y="-42.4" font-family="sans-serif" font-weight="bold" font-size="14.00">Legend</text>
<polygon fill="#ffffb3" stroke="transparent" points="114,-10 114,-30 134,-30 134,-10 114,-10"/>
<text text-anchor="start" x="137.63" y="-15.4" font-family="sans-serif" font-size="14.00"> &#160;Declarations</text>
<polygon fill="#8dd3c7" stroke="transparent" points="227,-10 227,-30 247,-30 247,-10 227,-10"/>
<text text-anchor="start" x="250.73" y="-15.4" font-family="sans-serif" font-size="14.00"> &#160;Module</text>
<polygon fill="#80b1d3" stroke="transparent" points="313,-10 313,-30 333,-30 333,-10 313,-10"/>
<text text-anchor="start" x="336.78" y="-15.4" font-family="sans-serif" font-size="14.00"> &#160;Bootstrap</text>
<polygon fill="#fdb462" stroke="transparent" points="410,-10 410,-30 430,-30 430,-10 410,-10"/>
<text text-anchor="start" x="433.67" y="-15.4" font-family="sans-serif" font-size="14.00"> &#160;Providers</text>
<polygon fill="#fb8072" stroke="transparent" points="506,-10 506,-30 526,-30 526,-10 506,-10"/>
<text text-anchor="start" x="529.73" y="-15.4" font-family="sans-serif" font-size="14.00"> &#160;Exports</text>
<g id="clust1" class="cluster">
<title>cluster_MyprofileModule</title>
<polygon fill="none" stroke="black" stroke-dasharray="1,5" points="8,-70 8,-195 688,-195 688,-70 8,-70"/>
</g>
<g id="clust4" class="cluster">
<title>cluster_MyprofileModule_imports</title>
<polygon fill="none" stroke="black" points="178,-78 178,-130 680,-130 680,-78 178,-78"/>
</g>
<g id="clust2" class="cluster">
<title>cluster_MyprofileModule_declarations</title>
<polygon fill="none" stroke="black" points="16,-78 16,-130 170,-130 170,-78 16,-78"/>
</g>
<!-- MyprofileComponent -->
<g id="node1" class="node">
<title>MyprofileComponent</title>
<polygon fill="#ffffb3" stroke="black" points="162.09,-122 23.91,-122 23.91,-86 162.09,-86 162.09,-122"/>
<text text-anchor="middle" x="93" y="-99.8" font-family="Times,serif" font-size="14.00">MyprofileComponent</text>
</g>
<!-- MyprofileModule -->
<g id="node2" class="node">
<title>MyprofileModule</title>
<polygon fill="#8dd3c7" stroke="black" points="396.31,-187 393.31,-191 372.31,-191 369.31,-187 279.69,-187 279.69,-151 396.31,-151 396.31,-187"/>
<text text-anchor="middle" x="338" y="-164.8" font-family="Times,serif" font-size="14.00">MyprofileModule</text>
</g>
<!-- MyprofileComponent&#45;&gt;MyprofileModule -->
<g id="edge1" class="edge">
<title>MyprofileComponent&#45;&gt;MyprofileModule</title>
<path fill="none" stroke="black" d="M93,-122.11C93,-141.34 93,-169 93,-169 93,-169 269.63,-169 269.63,-169"/>
<polygon fill="black" stroke="black" points="269.63,-172.5 279.63,-169 269.63,-165.5 269.63,-172.5"/>
</g>
<!-- DaywakaThemeModule -->
<g id="node3" class="node">
<title>DaywakaThemeModule</title>
<polygon fill="#8dd3c7" stroke="black" points="671.78,-122 668.78,-126 647.78,-126 644.78,-122 520.22,-122 520.22,-86 671.78,-86 671.78,-122"/>
<text text-anchor="middle" x="596" y="-99.8" font-family="Times,serif" font-size="14.00">DaywakaThemeModule</text>
</g>
<!-- DaywakaThemeModule&#45;&gt;MyprofileModule -->
<g id="edge2" class="edge">
<title>DaywakaThemeModule&#45;&gt;MyprofileModule</title>
<path fill="none" stroke="black" d="M596,-122.11C596,-141.34 596,-169 596,-169 596,-169 406.22,-169 406.22,-169"/>
<polygon fill="black" stroke="black" points="406.22,-165.5 396.22,-169 406.22,-172.5 406.22,-165.5"/>
</g>
<!-- MyprofileRoutingModule -->
<g id="node4" class="node">
<title>MyprofileRoutingModule</title>
<polygon fill="#8dd3c7" stroke="black" points="502.93,-122 499.93,-126 478.93,-126 475.93,-122 341.07,-122 341.07,-86 502.93,-86 502.93,-122"/>
<text text-anchor="middle" x="422" y="-99.8" font-family="Times,serif" font-size="14.00">MyprofileRoutingModule</text>
</g>
<!-- MyprofileRoutingModule&#45;&gt;MyprofileModule -->
<g id="edge3" class="edge">
<title>MyprofileRoutingModule&#45;&gt;MyprofileModule</title>
<path fill="none" stroke="black" d="M368.72,-122.11C368.72,-122.11 368.72,-140.99 368.72,-140.99"/>
<polygon fill="black" stroke="black" points="365.22,-140.99 368.72,-150.99 372.22,-140.99 365.22,-140.99"/>
</g>
<!-- SharedThemeModule -->
<g id="node5" class="node">
<title>SharedThemeModule</title>
<polygon fill="#8dd3c7" stroke="black" points="323.79,-122 320.79,-126 299.79,-126 296.79,-122 186.21,-122 186.21,-86 323.79,-86 323.79,-122"/>
<text text-anchor="middle" x="255" y="-99.8" font-family="Times,serif" font-size="14.00">SharedThemeModule</text>
</g>
<!-- SharedThemeModule&#45;&gt;MyprofileModule -->
<g id="edge4" class="edge">
<title>SharedThemeModule&#45;&gt;MyprofileModule</title>
<path fill="none" stroke="black" d="M301.75,-122.11C301.75,-122.11 301.75,-140.99 301.75,-140.99"/>
<polygon fill="black" stroke="black" points="298.25,-140.99 301.75,-150.99 305.25,-140.99 298.25,-140.99"/>
</g>
</g>
</svg>
