<?xml version="1.0" encoding="UTF-8" standalone="no"?>
<!DOCTYPE svg PUBLIC "-//W3C//DTD SVG 1.1//EN"
 "http://www.w3.org/Graphics/SVG/1.1/DTD/svg11.dtd">
<!-- Generated by graphviz version 2.47.0 (20210316.0004)
 -->
<!-- Title: dependencies Pages: 1 -->
<svg width="548pt" height="211pt"
 viewBox="0.00 0.00 548.00 211.00" xmlns="http://www.w3.org/2000/svg" xmlns:xlink="http://www.w3.org/1999/xlink">
<g id="graph0" class="graph" transform="scale(1 1) rotate(0) translate(4 207)">
<title>dependencies</title>
<polygon fill="white" stroke="transparent" points="-4,4 -4,-207 544,-207 544,4 -4,4"/>
<text text-anchor="start" x="249.01" y="-42.4" font-family="sans-serif" font-weight="bold" font-size="14.00">Legend</text>
<polygon fill="#ffffb3" stroke="transparent" points="36,-10 36,-30 56,-30 56,-10 36,-10"/>
<text text-anchor="start" x="59.63" y="-15.4" font-family="sans-serif" font-size="14.00"> &#160;Declarations</text>
<polygon fill="#8dd3c7" stroke="transparent" points="149,-10 149,-30 169,-30 169,-10 149,-10"/>
<text text-anchor="start" x="172.73" y="-15.4" font-family="sans-serif" font-size="14.00"> &#160;Module</text>
<polygon fill="#80b1d3" stroke="transparent" points="235,-10 235,-30 255,-30 255,-10 235,-10"/>
<text text-anchor="start" x="258.78" y="-15.4" font-family="sans-serif" font-size="14.00"> &#160;Bootstrap</text>
<polygon fill="#fdb462" stroke="transparent" points="332,-10 332,-30 352,-30 352,-10 332,-10"/>
<text text-anchor="start" x="355.67" y="-15.4" font-family="sans-serif" font-size="14.00"> &#160;Providers</text>
<polygon fill="#fb8072" stroke="transparent" points="428,-10 428,-30 448,-30 448,-10 428,-10"/>
<text text-anchor="start" x="451.73" y="-15.4" font-family="sans-serif" font-size="14.00"> &#160;Exports</text>
<g id="clust1" class="cluster">
<title>cluster_DwViewerModule</title>
<polygon fill="none" stroke="black" stroke-dasharray="1,5" points="8,-70 8,-195 532,-195 532,-70 8,-70"/>
</g>
<g id="clust2" class="cluster">
<title>cluster_DwViewerModule_declarations</title>
<polygon fill="none" stroke="black" points="354,-78 354,-130 524,-130 524,-78 354,-78"/>
</g>
<g id="clust4" class="cluster">
<title>cluster_DwViewerModule_imports</title>
<polygon fill="none" stroke="black" points="16,-78 16,-130 346,-130 346,-78 16,-78"/>
</g>
<!-- AdsManagerComponent -->
<g id="node1" class="node">
<title>AdsManagerComponent</title>
<polygon fill="#ffffb3" stroke="black" points="515.63,-122 362.37,-122 362.37,-86 515.63,-86 515.63,-122"/>
<text text-anchor="middle" x="439" y="-99.8" font-family="Times,serif" font-size="14.00">AdsManagerComponent</text>
</g>
<!-- DwViewerModule -->
<g id="node2" class="node">
<title>DwViewerModule</title>
<polygon fill="#8dd3c7" stroke="black" points="333.46,-187 330.46,-191 309.46,-191 306.46,-187 212.54,-187 212.54,-151 333.46,-151 333.46,-187"/>
<text text-anchor="middle" x="273" y="-164.8" font-family="Times,serif" font-size="14.00">DwViewerModule</text>
</g>
<!-- AdsManagerComponent&#45;&gt;DwViewerModule -->
<g id="edge1" class="edge">
<title>AdsManagerComponent&#45;&gt;DwViewerModule</title>
<path fill="none" stroke="black" d="M439,-122.11C439,-141.34 439,-169 439,-169 439,-169 343.87,-169 343.87,-169"/>
<polygon fill="black" stroke="black" points="343.87,-165.5 333.87,-169 343.87,-172.5 343.87,-165.5"/>
</g>
<!-- DwBusinessModule -->
<g id="node3" class="node">
<title>DwBusinessModule</title>
<polygon fill="#8dd3c7" stroke="black" points="337.54,-122 334.54,-126 313.54,-126 310.54,-122 208.46,-122 208.46,-86 337.54,-86 337.54,-122"/>
<text text-anchor="middle" x="273" y="-99.8" font-family="Times,serif" font-size="14.00">DwBusinessModule</text>
</g>
<!-- DwBusinessModule&#45;&gt;DwViewerModule -->
<g id="edge2" class="edge">
<title>DwBusinessModule&#45;&gt;DwViewerModule</title>
<path fill="none" stroke="black" d="M273,-122.11C273,-122.11 273,-140.99 273,-140.99"/>
<polygon fill="black" stroke="black" points="269.5,-140.99 273,-150.99 276.5,-140.99 269.5,-140.99"/>
</g>
<!-- DwViewerRoutingModule -->
<g id="node4" class="node">
<title>DwViewerRoutingModule</title>
<polygon fill="#8dd3c7" stroke="black" points="190.07,-122 187.07,-126 166.07,-126 163.07,-122 23.93,-122 23.93,-86 190.07,-86 190.07,-122"/>
<text text-anchor="middle" x="107" y="-99.8" font-family="Times,serif" font-size="14.00">DwViewerRoutingModule</text>
</g>
<!-- DwViewerRoutingModule&#45;&gt;DwViewerModule -->
<g id="edge3" class="edge">
<title>DwViewerRoutingModule&#45;&gt;DwViewerModule</title>
<path fill="none" stroke="black" d="M107,-122.11C107,-141.34 107,-169 107,-169 107,-169 202.13,-169 202.13,-169"/>
<polygon fill="black" stroke="black" points="202.13,-172.5 212.13,-169 202.13,-165.5 202.13,-172.5"/>
</g>
</g>
</svg>
